<?xml version="1.0" encoding="UTF-8"?>
<svg width="793px" height="226px" viewBox="0 0 793 226" version="1.1" xmlns="http://www.w3.org/2000/svg" xmlns:xlink="http://www.w3.org/1999/xlink">
    <!-- Generator: Sketch 40.3 (33839) - http://www.bohemiancoding.com/sketch -->
    <title>HDX</title>
    <desc>Created with Sketch.</desc>
    <defs></defs>
    <g id="Page-1" stroke="none" stroke-width="1" fill="none" fill-rule="evenodd">
        <g id="HDX" transform="translate(-1.000000, 0.000000)">
            <g id="layer1" transform="translate(0.513890, 0.401270)">
                <polygon id="path3462" fill="#FFFFFF" points="441.75946 193.97229 397.276611 193.97229 397.276611 118.755737 331.765503 118.755737 331.765503 193.97229 287.282654 193.97229 287.282654 23.3199463 331.765503 23.3199463 331.765503 85.5960693 397.276611 85.5960693 397.276611 23.3199463 441.75946 23.3199463 441.75946 193.97229"></polygon>
                <path d="M628.587158,109.050293 C628.587158,125.226074 625.352112,138.97522 618.073181,151.915649 C610.794189,164.855835 601.897583,173.752686 590.574707,181.031494 C582.486938,185.883789 572.781555,189.927856 563.076294,191.54541 C553.370789,193.163208 541.239136,194.780762 527.490112,194.780762 L466.831665,194.780762 L466.831665,23.3199463 L529.107727,23.3199463 C542.857056,23.3199463 554.988708,24.1287232 565.502747,26.5552979 C575.208252,28.9815674 584.104614,32.216858 591.38385,36.2609253 C603.515503,43.5400391 612.412109,53.2448731 618.882202,65.3765259 C625.352112,78.3169556 628.587158,92.0661011 628.587158,109.050293 L628.587158,109.050293 Z M583.295715,109.050293 C583.295715,97.7271729 580.869568,88.0223389 576.825623,79.9344483 C572.781677,71.8468629 566.311645,65.3765259 557.415039,61.3327637 C552.562317,58.9064331 548.518371,57.2889405 543.66571,56.4801636 C538.812988,55.6716919 531.534058,54.8626709 522.63739,54.8626709 L511.314514,54.8626709 L511.314514,161.621582 L522.63739,161.621582 C533.151428,161.621582 540.430664,160.812866 546.09198,160.003784 C550.944641,159.195312 555.797363,157.577515 560.64978,154.342163 C568.73761,149.48999 574.399231,143.828369 578.442993,135.740478 C580.869324,129.269898 583.295715,120.373535 583.295715,109.050293 L583.295715,109.050293 L583.295715,109.050293 Z" id="path3464" fill="#FFFFFF"></path>
                <polygon id="path3466" fill="#FFFFFF" points="741.816406 193.97229 704.61261 137.357788 667.408691 193.97229 618.881958 193.97229 679.540344 107.432861 620.499573 22.5109253 671.452637 22.5109253 707.038879 75.8901367 743.433838 22.5106811 791.960571 22.5106811 732.111084 105.815063 792.769409 193.97229"></polygon>
                <g id="g4318" transform="translate(113.697050, 113.080450) scale(1, -1) translate(-113.697050, -113.080450) translate(0.697050, 0.080450)">
                    <path d="M86.1868,137.407417 L169.086609,20.1345444" id="path3383" stroke="#FFFFFF" stroke-width="1.25"></path>
                    <path d="M86.1868,137.407417 L191.32803,106.067238" id="path3387" stroke="#FFFFFF" stroke-width="1.25"></path>
                    <path d="M86.1868,137.407417 L194.360962,194.022026" id="path3391" stroke="#FFFFFF" stroke-width="1.25"></path>
                    <path d="M19.4625521,54.5076751 L170.097604,20.1345444" id="path3395" stroke="#FFFFFF" stroke-width="1.25"></path>
                    <path d="M86.1868,137.407417 L35.6381225,193.010979" id="path3399" stroke="#FFFFFF" stroke-width="1.25"></path>
                    <g id="g3401">
                        <path d="M130.669642,137.407417 C130.669642,113.14415 110.450172,92.924652 86.1868095,92.924652 C61.9234466,92.924652 41.7039824,113.14415 41.7039824,137.407417 C41.7039824,161.670799 61.9234515,181.890297 86.1868095,181.890297 C111.461143,181.890297 130.669642,161.670799 130.669642,137.407417" id="path3411" fill="#FFFFFF"></path>
                        <path d="M130.669642,137.407417 C130.669642,113.14415 110.450172,92.924652 86.1868095,92.924652 C61.9234466,92.924652 41.7039824,113.14415 41.7039824,137.407417 C41.7039824,161.670799 61.9234515,181.890297 86.1868095,181.890297 C111.461143,181.890297 130.669642,161.670799 130.669642,137.407417 L130.669642,137.407417 Z" id="path3415" stroke="#FFFFFF" stroke-width="0.5"></path>
                        <path d="M189.306088,20.1345444 C189.306088,9.01386263 180.207329,0.926094 170.097599,0.926094 C159.987869,0.926094 149.87814,10.0247955 149.87814,20.1345444 C149.87814,31.2552261 158.976898,39.343071 169.086609,39.343071 C179.196358,39.343071 189.306088,31.2552261 189.306088,20.1345444" id="path3419" fill="#FFFFFF"></path>
                        <path d="M189.306088,20.1345444 C189.306088,9.01386263 180.207329,0.926094 170.097599,0.926094 C159.987869,0.926094 149.87814,10.0247955 149.87814,20.1345444 C149.87814,31.2552261 158.976898,39.343071 169.086609,39.343071 C179.196358,39.343071 189.306088,31.2552261 189.306088,20.1345444 L189.306088,20.1345444 Z" id="path3423" stroke="#FFFFFF" stroke-width="0.5"></path>
                        <path d="M213.56945,106.067314 C213.56945,94.9465561 204.470711,86.8587875 194.360962,86.8587875 C183.240242,86.8587875 175.152454,95.9576034 175.152454,106.067314 C175.152454,116.176987 184.251232,125.275803 194.360962,125.275803 C205.481663,125.275803 213.56945,117.188034 213.56945,106.067314" id="path3427" fill="#FFFFFF"></path>
                        <path d="M213.56945,106.067314 C213.56945,94.9465561 204.470711,86.8587875 194.360962,86.8587875 C183.240242,86.8587875 175.152454,95.9576034 175.152454,106.067314 C175.152454,116.176987 184.251232,125.275803 194.360962,125.275803 C205.481663,125.275803 213.56945,117.188034 213.56945,106.067314 L213.56945,106.067314 Z" id="path3431" stroke="#FFFFFF" stroke-width="0.5"></path>
                        <path d="M225.701141,194.022026 C225.701141,176.83548 211.547508,162.681847 194.360962,162.681847 C177.174397,162.681847 163.020782,176.83548 163.020782,194.022026 C163.020782,211.208572 177.174396,225.362206 194.360962,225.362206 C211.547508,225.362206 225.701141,211.208572 225.701141,194.022026" id="path3435" fill="#FFFFFF"></path>
                        <path d="M225.701141,194.022026 C225.701141,176.83548 211.547508,162.681847 194.360962,162.681847 C177.174397,162.681847 163.020782,176.83548 163.020782,194.022026 C163.020782,211.208572 177.174396,225.362206 194.360962,225.362206 C211.547508,225.362206 225.701141,211.208572 225.701141,194.022026 L225.701141,194.022026 Z" id="path3439" stroke="#FFFFFF" stroke-width="0.5"></path>
                        <path d="M38.6710501,52.4856568 C38.6710501,42.375946 29.5722914,33.2772064 19.4625521,33.2772064 C8.34184537,33.2772064 0.254054125,42.375946 0.254054125,52.4856568 C0.254054125,63.6063766 8.34184475,72.7051544 19.4625521,72.7051544 C29.5722914,72.7051544 38.6710501,63.6063766 38.6710501,52.4856568" id="path3443" fill="#FFFFFF"></path>
                        <path d="M38.6710501,52.4856568 C38.6710501,42.375946 29.5722914,33.2772064 19.4625521,33.2772064 C8.34184537,33.2772064 0.254054125,42.375946 0.254054125,52.4856568 C0.254054125,63.6063766 8.34184475,72.7051544 19.4625521,72.7051544 C29.5722914,72.7051544 38.6710501,63.6063766 38.6710501,52.4856568 L38.6710501,52.4856568 Z" id="path3447" stroke="#FFFFFF" stroke-width="0.5"></path>
                        <path d="M47.769804,203.120727 C47.769804,192.000046 38.6710501,183.912277 28.5613108,183.912277 C17.4406075,183.912277 8.3418465,192.000046 8.3418465,203.120727 C8.3418465,214.241409 17.44061,222.329254 27.5503445,222.329254 C38.6710501,222.329254 47.769804,213.230476 47.769804,203.120727" id="path3451" fill="#FFFFFF"></path>
                        <g id="g3453" transform="translate(8.605375, 183.596250)" stroke="#FFFFFF" stroke-width="0.5">
                            <path d="M39.0057183,19.291954 C39.0057183,8.17127225 29.9069548,0.083503625 19.7972203,0.083503625 C8.67651225,0.083503625 0.588725875,8.17127212 0.588725875,19.291954 C0.588725875,30.4126359 9.687487,38.5004806 19.7972203,38.5004806 C29.9069535,38.5004806 39.0057183,30.4126357 39.0057183,19.291954 L39.0057183,19.291954 Z" id="path3455"></path>
                        </g>
                    </g>
                </g>
            </g>
        </g>
    </g>
</svg>