<?xml version="1.0" encoding="utf-8"?>
<!-- Generator: Adobe Illustrator 18.0.0, SVG Export Plug-In . SVG Version: 6.00 Build 0)  -->
<!DOCTYPE svg PUBLIC "-//W3C//DTD SVG 1.0//EN" "http://www.w3.org/TR/2001/REC-SVG-20010904/DTD/svg10.dtd">
<svg version="1.0"
	 id="svg2" xmlns:rdf="http://www.w3.org/1999/02/22-rdf-syntax-ns#" xmlns:svg="http://www.w3.org/2000/svg" xmlns:cc="http://creativecommons.org/ns#" xmlns:inkscape="http://www.inkscape.org/namespaces/inkscape" xmlns:sodipodi="http://sodipodi.sourceforge.net/DTD/sodipodi-0.dtd" xmlns:dc="http://purl.org/dc/elements/1.1/" inkscape:version="0.48.4 r9939" sodipodi:docname="New document 1"
	 xmlns="http://www.w3.org/2000/svg" xmlns:xlink="http://www.w3.org/1999/xlink" x="0px" y="0px"
	 viewBox="1.4245098 414.0790405 791.8587646 224.5170746" enable-background="new 1.4245098 414.0790405 791.8587646 224.5170746"
	 xml:space="preserve">
<sodipodi:namedview  id="base" fit-margin-left="0" inkscape:zoom="5.7194494" inkscape:cy="19.383405" pagecolor="#ffffff" bordercolor="#666666" showgrid="false" borderopacity="1.0" inkscape:cx="78.519329" fit-margin-top="0" inkscape:current-layer="layer1" inkscape:window-y="-8" inkscape:window-maximized="1" inkscape:window-height="803" inkscape:pageopacity="0" inkscape:window-width="1536" fit-margin-bottom="0" fit-margin-right="0" inkscape:window-x="-8" inkscape:document-units="px" inkscape:pageshadow="2">
	</sodipodi:namedview>
<g id="layer1" transform="translate(-290.48611,-508.59873)" inkscape:label="Layer 1" inkscape:groupmode="layer">
	<path id="path3462" inkscape:connector-curvature="0" fill="#888888" d="M732.7594604,1115.97229h-44.4828491v-75.2165527
		h-65.5111084v75.2165527h-44.4828491V945.3199463h44.4828491v62.276123h65.5111084v-62.276123h44.4828491V1115.97229
		L732.7594604,1115.97229z"/>
	<path id="path3464" inkscape:connector-curvature="0" fill="#888888" d="M919.5871582,1031.050293
		c0,16.1757812-3.2350464,29.9249268-10.5139771,42.8653564c-7.2789917,12.9401855-16.1755981,21.8370361-27.4984741,29.1158447
		c-8.0877686,4.8522949-17.7931519,8.8963623-27.4984131,10.513916c-9.7055054,1.6177979-21.8371582,3.2353516-35.5861816,3.2353516
		H757.831665V945.3199463h62.276062c13.7493286,0,25.8809814,0.8087769,36.3950195,3.2353516
		c9.7055054,2.4262695,18.6018677,5.6615601,25.8811035,9.7056274
		c12.1316528,7.2791138,21.0282593,16.9839478,27.4983521,29.1156006
		C916.3521118,1000.3169556,919.5871582,1014.0661011,919.5871582,1031.050293z M874.2957153,1031.050293
		c0-11.3231201-2.4261475-21.0279541-6.4700928-29.1158447c-4.0439453-8.0875854-10.5139771-14.5579224-19.4105835-18.6016846
		c-4.8527222-2.4263306-8.8966675-4.0438232-13.7493286-4.8526001c-4.8527222-0.8084717-12.1316528-1.6174927-21.0283203-1.6174927
		h-11.322876v106.7589111h11.322876c10.5140381,0,17.7932739-0.8087158,23.4545898-1.6177979
		c4.8526611-0.8084717,9.7053833-2.4262695,14.5578003-5.6616211c8.0878296-4.8521729,13.7494507-10.5137939,17.7932129-18.6016846
		C871.8693237,1051.2698975,874.2957153,1042.3735352,874.2957153,1031.050293L874.2957153,1031.050293z"/>
	<path id="path3466" inkscape:connector-curvature="0" fill="#888888" d="M1083.7694092,1115.97229h-50.9530029
		l-37.2037964-56.614502l-37.2039185,56.614502H909.881958l60.6583862-86.5394287l-59.0407715-84.921936h50.953064
		l35.5862427,53.3792114l36.3949585-53.3794556h48.5267334l-59.8494873,83.3043823L1083.7694092,1115.97229L1083.7694092,1115.97229
		z"/>
	<g id="g4318" transform="matrix(1.25,0,0,-1.25,284.19705,541.83045)">
		<path id="path3383" inkscape:connector-curvature="0" fill="none" stroke="#888888" stroke-miterlimit="10" d="
			M74.94944-375.0740662l66.3198471-93.8182983"/>
		<path id="path3387" inkscape:connector-curvature="0" fill="none" stroke="#888888" stroke-miterlimit="10" d="
			M74.94944-375.0740662l84.1129837-25.0721436"/>
		<path id="path3391" inkscape:connector-curvature="0" fill="none" stroke="#888888" stroke-miterlimit="10" d="
			M74.94944-375.0740662l86.5393295,45.291687"/>
		<path id="path3395" inkscape:connector-curvature="0" fill="none" stroke="#888888" stroke-miterlimit="10" d="
			M21.5700417-441.3938599l120.5080414-27.4985046"/>
		<path id="path3399" inkscape:connector-curvature="0" fill="none" stroke="#888888" stroke-miterlimit="10" d="
			M74.94944-375.0740662L34.510498-330.591217"/>
		<g id="g3401">
			<path id="path3411" inkscape:connector-curvature="0" fill="#6C6C6C" d="M110.5357132-375.0740662
				c0-19.410614-16.1755753-35.5862122-35.5862656-35.5862122s-35.5862617,16.1755981-35.5862617,35.5862122
				c0,19.4107056,16.1755753,35.5863037,35.5862617,35.5863037
				C95.1689148-339.4877625,110.5357132-355.6633606,110.5357132-375.0740662"/>
			
				<path id="path3415" inkscape:connector-curvature="0" fill="none" stroke="#1B1B1B" stroke-width="0.0809637" stroke-miterlimit="10" d="
				M110.5357132-375.0740662c0-19.410614-16.1755753-35.5862122-35.5862656-35.5862122
				s-35.5862617,16.1755981-35.5862617,35.5862122c0,19.4107056,16.1755753,35.5863037,35.5862617,35.5863037
				C95.1689148-339.4877625,110.5357132-355.6633606,110.5357132-375.0740662z"/>
			<path id="path3419" inkscape:connector-curvature="0" fill="#8B8B8B" d="M157.44487-468.8923645
				c0-8.8965454-7.279007-15.3667603-15.3667908-15.3667603s-16.1755676,7.2789612-16.1755676,15.3667603
				c0,8.8965454,7.279007,15.3668213,15.3667755,15.3668213C149.3570862-453.5255432,157.44487-459.9958191,157.44487-468.8923645"
				/>
			
				<path id="path3423" inkscape:connector-curvature="0" fill="none" stroke="#1B1B1B" stroke-width="0.0809637" stroke-miterlimit="10" d="
				M157.44487-468.8923645c0-8.8965454-7.279007-15.3667603-15.3667908-15.3667603s-16.1755676,7.2789612-16.1755676,15.3667603
				c0,8.8965454,7.279007,15.3668213,15.3667755,15.3668213C149.3570862-453.5255432,157.44487-459.9958191,157.44487-468.8923645z"
				/>
			<path id="path3427" inkscape:connector-curvature="0" fill="#8B8B8B" d="M176.8555603-400.1461487
				c0-8.8966064-7.2789917-15.3668213-15.3667908-15.3668213c-8.8965759,0-15.366806,7.2790527-15.366806,15.3668213
				c0,8.087738,7.2790222,15.3667908,15.366806,15.3667908
				C170.3853302-384.7793579,176.8555603-391.2495728,176.8555603-400.1461487"/>
			
				<path id="path3431" inkscape:connector-curvature="0" fill="none" stroke="#1B1B1B" stroke-width="0.0809637" stroke-miterlimit="10" d="
				M176.8555603-400.1461487c0-8.8966064-7.2789917-15.3668213-15.3667908-15.3668213
				c-8.8965759,0-15.366806,7.2790527-15.366806,15.3668213c0,8.087738,7.2790222,15.3667908,15.366806,15.3667908
				C170.3853302-384.7793579,176.8555603-391.2495728,176.8555603-400.1461487z"/>
			<path id="path3435" inkscape:connector-curvature="0" fill="#8E8E8E" d="M186.5609131-329.7823792
				c0-13.7492371-11.3229065-25.0721436-25.0721436-25.0721436c-13.7492523,0-25.0721436,11.3229065-25.0721436,25.0721436
				s11.3228912,25.0721436,25.0721436,25.0721436C175.2380066-304.7102356,186.5609131-316.0331421,186.5609131-329.7823792"/>
			
				<path id="path3439" inkscape:connector-curvature="0" fill="none" stroke="#1B1B1B" stroke-width="0.0809637" stroke-miterlimit="10" d="
				M186.5609131-329.7823792c0-13.7492371-11.3229065-25.0721436-25.0721436-25.0721436
				c-13.7492523,0-25.0721436,11.3229065-25.0721436,25.0721436s11.3228912,25.0721436,25.0721436,25.0721436
				C175.2380066-304.7102356,186.5609131-316.0331421,186.5609131-329.7823792z"/>
			<path id="path3443" inkscape:connector-curvature="0" fill="#8B8B8B" d="M36.9368401-443.0114746
				c0-8.0877686-7.279007-15.3667603-15.3667984-15.3667603c-8.8965654,0-15.3667984,7.2789917-15.3667984,15.3667603
				c0,8.8965759,6.4702325,16.1755981,15.3667984,16.1755981C29.6578331-426.8358765,36.9368401-434.1148987,36.9368401-443.0114746
				"/>
			
				<path id="path3447" inkscape:connector-curvature="0" fill="none" stroke="#1B1B1B" stroke-width="0.0809637" stroke-miterlimit="10" d="
				M36.9368401-443.0114746c0-8.0877686-7.279007-15.3667603-15.3667984-15.3667603
				c-8.8965654,0-15.3667984,7.2789917-15.3667984,15.3667603c0,8.8965759,6.4702325,16.1755981,15.3667984,16.1755981
				C29.6578331-426.8358765,36.9368401-434.1148987,36.9368401-443.0114746z"/>
			<path id="path3451" inkscape:connector-curvature="0" fill="#8B8B8B" d="M44.2158432-322.503418
				c0-8.8965454-7.2790031-15.3667603-15.3667946-15.3667603c-8.8965626,0-16.1755714,6.4702148-16.1755714,15.3667603
				s7.2790108,15.3668213,15.3667984,15.3668213C36.9368401-307.1365967,44.2158432-314.4156189,44.2158432-322.503418"/>
			<g id="g3453" transform="translate(9.8843,23.877)">
				
					<path id="path3455" inkscape:connector-curvature="0" fill="none" stroke="#1B1B1B" stroke-width="0.0809637" stroke-miterlimit="10" d="
					M34.2045746-346.5664368c0-8.8965454-7.2790108-15.3667603-15.3667984-15.3667603
					c-8.8965664,0-15.3667955,6.4702148-15.3667955,15.3667603s7.2790089,15.3668213,15.3667955,15.3668213
					S34.2045746-337.6698914,34.2045746-346.5664368z"/>
			</g>
		</g>
	</g>
</g>
</svg>
