<?xml version="1.0" encoding="UTF-8"?>
<svg width="229px" height="51px" viewBox="0 0 229 51" version="1.1" xmlns="http://www.w3.org/2000/svg" xmlns:xlink="http://www.w3.org/1999/xlink">
    <!-- Generator: Sketch 40.3 (33839) - http://www.bohemiancoding.com/sketch -->
    <title>HXL</title>
    <desc>Created with Sketch.</desc>
    <defs></defs>
    <g id="Page-1" stroke="none" stroke-width="1" fill="none" fill-rule="evenodd">
        <g id="HXL" fill="#FFFFFF">
            <g id="Group">
                <g id="Rectangle-path">
                    <rect x="9.2252369" y="0.5097656" width="7.3645234" height="50"></rect>
                    <rect x="44.0398178" y="0.5097656" width="7.3641438" height="50"></rect>
                    <rect x="-1.91e-05" y="32.5010986" width="60.6318512" height="7.364141"></rect>
                    <rect x="-1.91e-05" y="10.7996368" width="60.6318512" height="7.3640652"></rect>
                </g>
                <g transform="translate(84.000000, 3.000000)" id="Shape">
                    <path d="M0.8916626,0.8572388 C0.8916626,0.4608002 1.1808014,0.1992188 1.6175156,0.1992188 L8.7625733,0.1992188 C9.2096711,0.1992188 9.5033112,0.4608002 9.5033112,0.8572388 L9.5033112,18.4374237 C9.5033112,18.7067871 9.6382218,18.8379669 9.9340744,18.8379669 L28.8086166,18.8379669 C29.1149292,18.8379669 29.2580108,18.7067871 29.2580108,18.4374237 L29.2580108,0.8572388 C29.2580108,0.4608002 29.5620193,0.1992188 29.9890441,0.1992188 L37.1385268,0.1992188 C37.56929,0.1992188 37.8599547,0.4608002 37.8599547,0.8572388 L37.8599547,44.16568 C37.8599547,44.5591126 37.56929,44.8207093 37.1385268,44.8207093 L29.9890441,44.8207093 C29.5620193,44.8207093 29.2580108,44.5591126 29.2580108,44.16568 L29.2580108,26.1838685 C29.2580108,25.9219056 29.1149291,25.7907258 28.8086166,25.7907258 L9.9340744,25.7907258 C9.6382217,25.7907258 9.5033112,25.9219056 9.5033112,26.1838685 L9.5033112,44.16568 C9.5033112,44.5591126 9.2096711,44.8207093 8.7625733,44.8207093 L1.6175156,44.8207093 C1.1808014,44.8207093 0.8916626,44.5591126 0.8916626,44.16568 L0.8916626,0.8572388 L0.8916626,0.8572388 Z"></path>
                    <path d="M86.3616943,44.8207092 C85.7767181,44.8207092 85.4883422,44.6258239 85.1902771,44.1656799 L75.2037659,29.0010528 L75.0599213,29.0010528 L64.9906922,44.1656799 C64.7089692,44.6258239 64.416092,44.8207092 63.8191987,44.8207092 L55.9617158,44.8207092 C55.4483033,44.8207092 55.2217561,44.4283447 55.5250703,43.9655761 L70.3226472,21.7223052 L56.6093446,1.0509795 C56.3202211,0.5889281 56.5355684,0.1992186 57.0505067,0.1992186 L64.9198915,0.1992186 C65.5018922,0.1992186 65.7880556,0.3933562 66.0913087,0.8572386 L75.0599214,14.3693083 L75.203766,14.3693083 L84.1745149,0.8572386 C84.4614412,0.3933562 84.7595064,0.1992186 85.3392946,0.1992186 L93.2154085,0.1992186 C93.7236177,0.1992186 93.9501955,0.5889281 93.6573183,1.0509795 L79.9618837,21.7223052 L94.7408296,43.9655761 C95.0485841,44.4283447 94.8190462,44.8207092 94.3123475,44.8207092 L86.3616943,44.8207092 L86.3616943,44.8207092 Z"></path>
                    <path d="M112.405945,0.8572388 C112.405945,0.4608002 112.693619,0.1992188 113.124329,0.1992188 L120.276855,0.1992188 C120.70755,0.1992188 121.017578,0.4608002 121.017578,0.8572388 L121.017578,37.4674073 C121.017578,37.731598 121.147247,37.8634644 121.448288,37.8634644 L144.203903,37.8634644 C144.636124,37.8634644 144.927551,38.1246644 144.927551,38.5151368 L144.927551,44.16568 C144.927551,44.5591126 144.636124,44.8207093 144.203903,44.8207093 L113.124329,44.8207093 C112.693619,44.8207093 112.405945,44.5591126 112.405945,44.16568 L112.405945,0.8572388 L112.405945,0.8572388 Z"></path>
                </g>
            </g>
        </g>
    </g>
</svg>