<?xml version="1.0" encoding="utf-8"?>
<!-- Generator: Adobe Illustrator 18.0.0, SVG Export Plug-In . SVG Version: 6.00 Build 0)  -->
<!DOCTYPE svg PUBLIC "-//W3C//DTD SVG 1.0//EN" "http://www.w3.org/TR/2001/REC-SVG-20010904/DTD/svg10.dtd">
<svg version="1.0" id="Layer_1" xmlns="http://www.w3.org/2000/svg" xmlns:xlink="http://www.w3.org/1999/xlink" x="0px" y="0px"
	 viewBox="-0.0000184 219.5097809 228.9275665 50" enable-background="new -0.0000184 219.5097809 228.9275665 50"
	 xml:space="preserve">
<g>
	<g>
		<g>
			<g>
				<rect x="9.2252369" y="219.5097656" fill="#888888" width="7.3645234" height="50"/>
			</g>
			<g>
				<rect x="44.0398178" y="219.5097656" fill="#888888" width="7.3641438" height="50"/>
			</g>
			<g>
				<rect x="-0.0000191" y="251.5010986" fill="#888888" width="60.6318512" height="7.364141"/>
			</g>
			<g>
				<rect x="-0.0000191" y="229.7996368" fill="#888888" width="60.6318512" height="7.3640652"/>
			</g>
		</g>
	</g>
	<g>
		<g>
			<g>
				<g>
					<path fill="#888888" d="M84.8916626,222.8572388c0-0.3964386,0.2891388-0.65802,0.725853-0.65802h7.1450577
						c0.4470978,0,0.7407379,0.2615814,0.7407379,0.65802v17.5801849c0,0.2693634,0.1349106,0.4005432,0.4307632,0.4005432
						h18.8745422c0.3063126,0,0.4493942-0.1311798,0.4493942-0.4005432v-17.5801849
						c0-0.3964386,0.3040085-0.65802,0.7310333-0.65802h7.1494827c0.4307632,0,0.7214279,0.2615814,0.7214279,0.65802v43.3084412
						c0,0.3934326-0.2906647,0.6550293-0.7214279,0.6550293h-7.1494827c-0.4270248,0-0.7310333-0.2615967-0.7310333-0.6550293
						v-17.9818115c0-0.2619629-0.1430817-0.3931427-0.4493942-0.3931427H93.9340744
						c-0.2958527,0-0.4307632,0.1311798-0.4307632,0.3931427v17.9818115c0,0.3934326-0.2936401,0.6550293-0.7407379,0.6550293
						h-7.1450577c-0.4367142,0-0.725853-0.2615967-0.725853-0.6550293V222.8572388z"/>
				</g>
			</g>
			<g>
				<g>
					<path fill="#888888" d="M170.3616943,266.8207092c-0.5849762,0-0.8733521-0.1948853-1.1714172-0.6550293l-9.9865112-15.1646271
						h-0.1438446l-10.0692291,15.1646271c-0.281723,0.460144-0.5746002,0.6550293-1.1714935,0.6550293h-7.8574829
						c-0.5134125,0-0.7399597-0.3923645-0.4366455-0.8551331l14.7975769-22.2432709l-13.7133026-20.6713257
						c-0.2891235-0.4620514-0.0737762-0.8517609,0.4411621-0.8517609h7.8693848c0.5820007,0,0.8681641,0.1941376,1.1714172,0.65802
						l8.9686127,13.5120697h0.1438446l8.9707489-13.5120697c0.2869263-0.4638824,0.5849915-0.65802,1.1647797-0.65802h7.8761139
						c0.5082092,0,0.734787,0.3897095,0.4419098,0.8517609l-13.6954346,20.6713257l14.7789459,22.2432709
						c0.3077545,0.4627686,0.0782166,0.8551331-0.4284821,0.8551331H170.3616943z"/>
				</g>
			</g>
			<g>
				<g>
					<path fill="#888888" d="M196.4059448,222.8572388c0-0.3964386,0.287674-0.65802,0.7183838-0.65802h7.1525269
						c0.4306946,0,0.7407227,0.2615814,0.7407227,0.65802v36.6101685c0,0.2641907,0.1296692,0.3960571,0.4307098,0.3960571
						h22.7556152c0.4322205,0,0.7236481,0.2612,0.7236481,0.6516724v5.6505432c0,0.3934326-0.2914276,0.6550293-0.7236481,0.6550293
						h-31.0795746c-0.4307098,0-0.7183838-0.2615967-0.7183838-0.6550293V222.8572388z"/>
				</g>
			</g>
		</g>
	</g>
</g>
</svg>
