<?xml version="1.0" encoding="UTF-8"?>
<svg width="42px" height="37px" viewBox="0 0 42 37" version="1.1" xmlns="http://www.w3.org/2000/svg" xmlns:xlink="http://www.w3.org/1999/xlink">
    <!-- Generator: Sketch 51.3 (57544) - http://www.bohemiancoding.com/sketch -->
    <title>SVG Layer</title>
    <desc>Created with Sketch.</desc>
    <defs></defs>
    <g id="Page-1" stroke="none" stroke-width="1" fill="none" fill-rule="evenodd">
        <g id="SVG-Layer" fill="#FFFFFF" fill-rule="nonzero">
            <g id="UN-Logo">
                <g id="Page-1">
                    <g id="Artboard">
                        <g id="ocha-logo">
                            <g id="Group">
                                <path d="M17.6,15.6 C17.6,14.2652746 18.4040192,13.0619748 19.6371447,12.5511975 C20.8702702,12.0404202 22.289659,12.3227542 23.2334524,13.2665476 C24.1772458,14.210341 24.4595798,15.6297298 23.9488025,16.8628553 C23.4380252,18.0959808 22.2347254,18.9 20.9,18.9 L20.9,18.5 C22.5016258,18.5 23.8,17.2016258 23.8,15.6 C23.8,13.9983742 22.5016258,12.7 20.9,12.7 C19.2983742,12.7 18,13.9983742 18,15.6 C18,17.2016258 19.2983742,18.5 20.9,18.5 L20.9,18.9 C19.0842489,18.8837143 17.6162857,17.4157511 17.6,15.6" id="Shape"></path>
                                <path d="M15,15.6 C15,12.2862915 17.6862915,9.6 21,9.6 C24.3137085,9.6 27,12.2862915 27,15.6 C27,18.9137085 24.3137085,21.6 21,21.6 L21,21.2 C24.0927946,21.2 26.6,18.6927946 26.6,15.6 C26.6,12.5072054 24.0927946,10 21,10 C17.9072054,10 15.4,12.5072054 15.4,15.6 C15.3973392,17.0860264 15.9864831,18.5119548 17.0372641,19.5627359 C18.0880452,20.6135169 19.5139736,21.2026608 21,21.2 L21,21.6 C17.6862915,21.6 15,18.9137085 15,15.6" id="Shape-2"></path>
                                <path d="M12.1,15.6 C12.1,10.6846657 16.0846657,6.7 21,6.7 C25.9153343,6.7 29.9,10.6846657 29.9,15.6 C29.9,20.5153343 25.9153343,24.5 21,24.5 L21,24 C25.6467993,23.9788586 29.4238703,20.2462237 29.5,15.6 C29.5,10.9055796 25.6944204,7.1 21,7.1 C16.3055796,7.1 12.5,10.9055796 12.5,15.6 C12.5025402,17.8444181 13.4021109,19.994707 14.998518,21.5723329 C16.5949252,23.1499588 18.755709,24.0240202 21,24 L21,24.4 C18.6463983,24.4349066 16.3775606,23.5222279 14.703753,21.8672271 C13.0299454,20.2122263 12.0916892,17.9538459 12.1,15.6" id="Shape-3"></path>
                                <path d="M9.3,15.6 C9.27244539,9.1659696 14.4658992,3.92780901 20.8999294,3.9002149 C27.3339596,3.87262079 32.5721521,9.06604239 32.5997857,15.5000725 C32.6274193,21.9341025 27.4340299,27.1723269 21,27.2 L21,26.8 C27.1855892,26.8 32.2,21.7855892 32.2,15.6 C32.2,9.4144108 27.1855892,4.4 21,4.4 C14.8144108,4.4 9.8,9.4144108 9.8,15.6 C9.7946785,18.5720529 10.9729662,21.4239096 13.0745283,23.5254717 C15.1760904,25.6270338 18.0279471,26.8053215 21,26.8 L21,27.2 C17.908614,27.2186173 14.9370213,26.005659 12.74168,23.8290813 C10.5463387,21.6525036 9.30791843,18.6914319 9.3,15.6" id="Shape-4"></path>
                                <path d="M6.3,15.6 C6.3,7.48141418 12.8814142,0.9 21,0.9 C29.1185858,0.9 35.7,7.48141418 35.7,15.6 C35.7,23.7185858 29.1185858,30.3 21,30.3 L21,29.9 C28.8976719,29.9 35.3,23.4976719 35.3,15.6 C35.3,7.70232808 28.8976719,1.3 21,1.3 C13.1023281,1.3 6.7,7.70232808 6.7,15.6 C6.7,23.4976719 13.1023281,29.9 21,29.9 L21,30.3 C17.0980591,30.3106611 13.3528591,28.7653393 10.5937599,26.0062401 C7.83466068,23.2471409 6.2893389,19.5019409 6.3,15.6" id="Shape-5"></path>
                                <rect id="Rectangle-path" x="20.7" y="1.1" width="1" height="11.4"></rect>
                                <polygon id="Shape-6" points="10.6 5.5 10.9 5.2 18.9 13.2 18.6 13.5"></polygon>
                                <rect id="Rectangle-path-2" x="6.5" y="15.4" width="11.4" height="1"></rect>
                                <polygon id="Shape-7" points="10.6 25.7 18.6 17.7 18.9 18 10.9 26"></polygon>
                                <rect id="Rectangle-path-3" x="20.7" y="18.7" width="1" height="11.4"></rect>
                                <rect id="Rectangle-path-4" transform="translate(27.351417, 21.556874) rotate(-44.830000) translate(-27.351417, -21.556874) " x="26.8514173" y="15.906874" width="1" height="11.3"></rect>
                                <rect id="Rectangle-path-5" x="24.1" y="15.4" width="11.4" height="1"></rect>
                                <polygon id="Shape-8" points="23 13.2 31.1 5.2 31.3 5.5 23.3 13.5"></polygon>
                                <path d="M18.7,16.5 C18.8,16.5 18.8,16.6 18.8,16.7 L18.9,16.7 C19.0701811,16.4897446 19.2052565,16.2533626 19.3,16 C19.3552285,16 19.4,15.9552285 19.4,15.9 C19.4,15.8 19.2,15.7 19.2,15.6 C19.1,15.8 18.9,15.6 18.8,15.7 L18.8,15.8 L18.9,15.8 L18.9,16 C18.8199988,15.9234597 18.7099251,15.8867685 18.6,15.9 C18.7,15.9 18.6,15.9 18.6,16 C18.4267693,15.9739159 18.2498729,16.0092951 18.1,16.1 C18,16.1 18,16.1 17.9,16 C17.8,16.1 17.8,16.2 17.7,16.2 L17.6,16.1 C17.7,16 17.8,16 17.8,15.9 L17.8,15.6 C17.9,15.5 17.9,15.4 18,15.4 C18.1,15.4 18.3,15.5 18.4,15.4 L18.5,15.5 L18.5,15.6 C18.4,15.7 18.3,15.7 18.3,15.8 C18.3,15.9 18.3,15.9 18.4,15.9 C18.5,15.9 18.5,15.8 18.6,15.8 C18.7,15.8 18.7,15.8 18.7,15.8 L19,15.8 C19.1,15.8 19.1,15.5 19,15.4 L19,15.2 C19,15.1 19.2,15.1 19.2,15.2 L19.2,15.3 C19.2,15.3 19.2,15.4 19.3,15.3 L19.3,15.1 C19.3539389,15.1543054 19.4241924,15.1894321 19.5,15.2 L19.7,15.2 C19.8,15.2 19.8,15.1 19.7,15 L19.6,15 C19.5480953,15.0570536 19.4767857,15.0927084 19.4,15.1 C19.3,15.1 19.3,15 19.2,15 C19.1,15 19,15.1 19,15 C19,14.9 18.9,14.9 18.9,14.8 L19,14.7 C19.1099251,14.7132315 19.2199988,14.6765403 19.3,14.6 C19.3105679,14.5241924 19.3456946,14.4539389 19.4,14.4 L19.5,14.4 C19.6099251,14.4132315 19.7199988,14.3765403 19.8,14.3 C19.9,14.3 20,14.2 20.1,14.1 C20.2,14 20.2,14 20.3,14 C20.3,13.9447715 20.3447715,13.9 20.4,13.9 L20.4,13.4 C20.4,13.3447715 20.4447715,13.3 20.5,13.3 L20.4,13.3 C20.4,13.3 20.3,13.2 20.4,13.2 C20.5,13.2 20.6,13.2 20.6,13.1 C20.639023,13.0498515 20.6503938,12.9835152 20.6302998,12.9232334 C20.6102059,12.8629515 20.5613075,12.816705 20.5,12.8 C20.4,12.7 20.3,12.8 20.2,12.8 C20.2,12.8552285 20.1552285,12.9 20.1,12.9 C20,12.9 19.9,12.8 20,12.7 L20,12.6 L19.9,12.6 L19.6,12.9 L19.6,13 C19.6,13.1 19.6,13.2 19.5,13.2 L19.4,13.2 C19.4,13.3 19.6,13.3 19.5,13.4 C19.4,13.5 19.3,13.5 19.1,13.6 C18.8020814,13.6499767 18.4979186,13.6499767 18.2,13.6 L17.7,13.6 C17.6,13.6 17.6,13.7 17.5,13.8 L17.5,13.6 C17.5,13.5 17.4,13.6 17.4,13.5 C17.2,13.1 16.7,13.2 16.3,13.2 C16.2734784,13.2 16.248043,13.2105357 16.2292893,13.2292893 C16.2105357,13.248043 16.2,13.2734784 16.2,13.3 C16.1,13.4 16,13.3 15.9,13.3 L15.8,13.4 C15.7,13.4 15.6,13.3 15.5,13.4 C15.4,13.5 15.4,13.5 15.3,13.5 L15.3,13.6 L15.2,13.6 C15.1,13.6 14.9,13.6 14.9,13.7 C14.9,13.8 14.9,14 14.8,14 C14.6590402,13.9850362 14.5173345,14.0204626 14.4,14.1 C14.3,14.1 14.3,14.2 14.2,14.2 C13.9639271,14.5580917 13.8259967,14.9718829 13.8,15.4 L13.8,15.5 C13.6,15.9 13.5,16.1 13.2,16.6 C13.1,16.8 13,17.2 13.2,17.3 C13.4,17.4 13.2,17.5 13,17.5 C12.8,17.5 12.6,17.5 12.6,17.3 C12.6,17.1 12.4,17.2 12.3,17.2 L11.9,17.2 C11.7,17.2 11.7,17.5 11.6,17.6 C11.5,17.7 11.3,17.7 11.3,17.8 L11.3,18 C11.2447715,18 11.2,18.0447715 11.2,18.1 L11.2,18.2 C11.2,18.4 11.1,18.5 11.2,18.7 L11.2,18.8 C11.215564,18.9728218 11.1808367,19.1464583 11.1,19.3 C11,19.5 10.8,19.5 10.6,19.5 L9.6,19.5 C9.5,19.5 9.5,19.4 9.4,19.4 C9.34294641,19.3480953 9.30729159,19.2767857 9.3,19.2 C9.2,19.1 9,19.2 8.9,19.3 C9,19.3 8.9,19.4 8.9,19.4 C8.9,19.4 8.7,19.5 8.6,19.6 C8.5,19.7 8.4,19.4 8.4,19.3 C8.4,19.2 8.3,19.2 8.2,19.2 L8.2,19.3 L8.1,19.3 C8,19.4 8.2,19.4 8.2,19.4 L8.2,19.5 L8.1,19.5 C8.1,19.5552285 8.05522847,19.6 8,19.6 C7.9,19.6 7.9,19.7 7.9,19.6 L7.9,19.4 L7.8,19.4 C7.8,19.5 7.8,19.5 7.7,19.5 L7.7,19.6 L7.9,19.6 C7.97654029,19.6800012 8.01323153,19.7900749 8,19.9 C8,20 8,20.1 7.9,20 C7.8,19.9 7.9,19.8 7.9,19.7 L7.8,19.7 C7.9,19.9 7.7,20 7.9,20.2 C8.1,20.4 7.7,20.4 7.8,20.4 C7.85393887,20.4543054 7.92419236,20.4894321 8,20.5 L8,20.4 C8,20.4 8.1,20.3 8.1,20.4 L8.1,20.5 L8,20.5 L8,20.9 C8,21 8.2,20.9 8.2,21 C8.2,21.1 8.1,21.1 8.2,21.2 C8.25522847,21.2 8.3,21.2447715 8.3,21.3 L8.3,21.4 C8.35522847,21.4 8.4,21.4447715 8.4,21.5 C8.5,21.5 8.5,21.5 8.5,21.4 C8.5,21.3 8.6,21.3 8.6,21.2 C8.6,21.1 8.6,21.1 8.5,21.2 L8.5,21 C8.5,20.9 8.4,20.9 8.4,20.8 C8.4,20.7 8.5,20.8 8.6,20.7 C8.65522847,20.7 8.7,20.7447715 8.7,20.8 L8.7,20.9 C8.75522847,20.9 8.8,20.9447715 8.8,21 C8.9,21 8.9,21.1 9,21.2 L9.3,21.2 L9.3,21.1 L9.4,21.2 C9.38676847,21.3099251 9.42345971,21.4199988 9.5,21.5 L9.6,21.5 L9.7,21.6 L9.8,21.6 C9.85522847,21.6 9.9,21.6447715 9.9,21.7 C10,21.7 10.1,21.7 10.1,21.8 C10.1,21.9 10.2,22 10.3,22.2 C10.366667,22.2666663 10.4333337,22.333333 10.5,22.4 C10.5800012,22.4765403 10.6900749,22.5132315 10.8,22.5 C10.8539389,22.4456946 10.9241924,22.4105679 11,22.4 L11.1,22.4 C11.2,22.6 11.2,22.8 11.4,22.8 C11.6,22.8 11.5,22.9 11.6,23 L11.8,23 C11.8,23.0552285 11.8447715,23.1 11.9,23.1 C12,23.2 12.1,23.2 12.1,23.3 L12.1,23.4 C12.2,23.4 12.3,23.3 12.3,23.4 C12.3,23.5 12.5,23.5 12.5,23.6 L12.6,23.6 L12.6,23.5 C12.6,23.4 12.7,23.5 12.8,23.4 C12.9,23.3 12.9,23.2 12.9,23.2 C12.9,23.2 13.1,23.3 13.2,23.4 L13.3,23.4 C13.4,23.5 13.4,23.7 13.5,23.7 C13.6,23.7 13.7,23.8 13.9,23.9 C14.1,24 14.1,24 14.2,24 L14.3,24 C14.4,24 14.4,24 14.5,23.9 C14.6,23.8 14.8,23.8 14.9,23.7 L15,23.6 C15.2,23.5 15.5,23.7 15.7,23.6 C15.9,23.5 15.8,23.6 15.9,23.5 C16,23.4 16.1,23.2 16,23.1 C15.9,23 15.8,22.6 15.7,22.4 L15.4,22.1 L15.3,22.1 C15.2,22.1 15.2,22 15.2,21.9 C15.1447715,21.9 15.1,21.8552285 15.1,21.8 L15.1,21.5 C15,21.5 14.9,21.4 14.7,21.4 C14.6447715,21.4 14.6,21.3552285 14.6,21.3 L14.6,21.2 C14.6800012,21.1234597 14.7900749,21.0867685 14.9,21.1 L14.9,20.8 C14.9,20.7734784 14.8894643,20.748043 14.8707107,20.7292893 C14.851957,20.7105357 14.8265216,20.7 14.8,20.7 C14.8,20.6 14.9,20.5 14.8,20.4 C14.7,20.3 14.6,20.2 14.6,20.1 C14.5734784,20.1 14.548043,20.0894643 14.5292893,20.0707107 C14.5105357,20.051957 14.5,20.0265216 14.5,20 L14.5,19.5 C14.5,19.4 14.4,19.4 14.5,19.3 L14.6,19.2 C14.7,19.2 14.7,19.1 14.7,19 C14.6736675,18.9731246 14.6376256,18.9579796 14.6,18.9579796 C14.5623744,18.9579796 14.5263325,18.9731246 14.5,19 L14.5,18.7 L14.4,18.6 L14.4,18.4 C14.4,18.4 14.4,18.3 14.3,18.4 L14.3,18.2 C14.3,18.1 14.2,18 14.1,18.1 C14.0736675,18.1268754 14.0376256,18.1420204 14,18.1420204 C13.9623744,18.1420204 13.9263325,18.1268754 13.9,18.1 L13.9,18 C13.9552285,18 14,17.9552285 14,17.9 C14.0268754,17.8736675 14.0420204,17.8376256 14.0420204,17.8 C14.0420204,17.7623744 14.0268754,17.7263325 14,17.7 C13.9,17.6 13.8,17.5 13.9,17.4 C13.8,17.4 13.6,17.4 13.6,17.2 C13.6,17 13.6,16.9 13.5,16.8 L13.5,16.5 C13.5,16.4447715 13.5447715,16.4 13.6,16.4 C13.8,16.4 14,16.4 14,16.3 C14,16.2 13.9,16 14,16 C14.1,16 14.4,16 14.6,15.8 C14.7,15.8 14.7,15.7 14.6,15.6 C14.5894321,15.5241924 14.5543054,15.4539389 14.5,15.4 C14.4,15.3 14.3,15.4 14.2,15.2 L14.2,15 C14.2,14.9 14.3,14.9 14.4,14.8 C14.5,14.7 14.7,14.8 14.9,14.9 L15,15 L15,15.1 C15,15.3 15.1,15.5 15,15.7 C14.9,15.9 14.9,15.8 14.9,15.9 L15,15.9 C15,16 15.1,16.2 15,16.3 C14.9,16.4 14.9,16.3 14.7,16.3 C14.5,16.3 14.6,16.3 14.6,16.4 L14.7,16.5 C15.1,16.6 15.2,16.6 15.6,16.7 C15.7,16.7 15.7,16.8 15.8,16.8 L16.1,16.8 C16.1,16.8552285 16.1447715,16.9 16.2,16.9 C16.3,17 16.3,17.2 16.4,17.2 C16.4263325,17.1731246 16.4623744,17.1579796 16.5,17.1579796 C16.5376256,17.1579796 16.5736675,17.1731246 16.6,17.2 C16.5,17.3 16.6,17.4 16.6,17.5 C16.6,17.6 16.8,17.6 16.9,17.7 C17,17.8 17.1,17.8 17.1,17.7 C17.1,17.6 17,17.5 17.1,17.4 C17.2,17.6 17.1,17.8 17.2,18 C17.3,18.1 17.3,18.2 17.4,18.2 C17.5,18.2 17.5,18.1 17.5,18 L17.5,17.9 C17.5,17.8 17.5,17.8 17.6,17.7 C17.7,17.6 17.7,17.5 17.7,17.4 L17.7,17.3 C17.7,17.2 17.9,17.1 18,17.1 L18,17 C18.1,17 18,16.8 18.1,16.8 C18.2,16.8 18.2,16.7 18.2,16.6 C18.2,16.5 18.3,16.5 18.2,16.5 C18.7,16.6 18.7,16.5 18.7,16.5" id="Shape-9"></path>
                                <path d="M14.5,16.3 L14.4,16.3 L14.4,16.4 L14.5,16.5 L14.5,16.8 C14.5,16.9 14.6,17 14.7,16.9 C14.8,16.8 14.9,16.6 14.8,16.5 C14.7,16.4 14.7,16.4 14.5,16.3" id="Shape-10"></path>
                                <path d="M14.3,17.2 C14.4,17.4 14.5,17.3 14.6,17.3 L14.6,17.2 C14.5,17.1 14.5,17.1 14.3,17.2 C14.4,17.1 14.3,17.1 14.3,17.1 L14.3,17.2" id="Shape-11"></path>
                                <path d="M14.6,17.6 C14.6,17.4 14.5,17.4 14.4,17.5 C14.3,17.6 14.4,17.8 14.5,17.9 C14.5,17.9552285 14.5447715,18 14.6,18 C14.6,18.1 14.7,18 14.8,18 C14.9,18 14.8,17.9 14.9,17.9 C14.8,17.8 14.7,17.6 14.6,17.6" id="Shape-12"></path>
                                <path d="M14.3,16.8 C14.3,16.7 14.2,16.7 14.3,16.8 C14.2,16.8 14.2,16.8 14.2,16.9 C14.2,17 14.2,17.1 14.3,17.1 C14.3552285,17.1 14.4,17.0552285 14.4,17 C14.3,16.9 14.3,16.9 14.3,16.8" id="Shape-13"></path>
                                <path d="M14.7,17.4 L14.8,17.3 L14.9,17.3 L14.9,17.2 C14.8,17.2 14.8,17.3 14.7,17.3 C14.6,17.3 14.7,17.4 14.7,17.4" id="Shape-14"></path>
                                <path d="M14.6,18.3 C14.6,18.4 14.6,18.4 14.7,18.4 L14.8,18.4 L14.8,18.3 L14.6,18.3" id="Shape-15"></path>
                                <path d="M14.8,19 C14.8,18.9 14.9,18.9 14.8,18.8 L14.7,18.8 C14.7105679,18.8758076 14.7456946,18.9460611 14.8,19" id="Shape-16"></path>
                                <path d="M8.5,21.5 L8.5,21.6 L8.7,21.6 C8.6,21.6 8.6,21.4 8.5,21.5" id="Shape-17"></path>
                                <path d="M9.1,22.2 C9,22.3 9.2,22.4 9.3,22.4 L9.3,22.2 C9.27366755,22.1731246 9.23762563,22.1579796 9.2,22.1579796 C9.16237437,22.1579796 9.12633245,22.1731246 9.1,22.2" id="Shape-18"></path>
                                <path d="M9.4,22.6 C9.4,22.8 9.5,22.9 9.6,22.9 C9.7,22.7 9.6,22.6 9.4,22.6" id="Shape-19"></path>
                                <path d="M19.5,17.4 C19.6889467,17.3185559 19.8948523,17.2842383 20.1,17.3 C20.5,17.3 20.5,16.7 20.7,16.4 C20.7149638,16.2590402 20.6795374,16.1173345 20.6,16 C20.5,15.8 20,16 19.9,15.8 C19.8,15.6 20.2,15.9 20.2,15.7 C20.2,15.5 20.2,15.6 20.1,15.5 L19.9,15.5 C19.7079833,15.7330508 19.5712306,16.0065562 19.5,16.3 C19.1454362,16.6560108 18.8424925,17.0599357 18.6,17.5 C18.6,17.6 18.6,17.6 18.7,17.7 C19,17.8 19.3,17.5 19.5,17.4" id="Shape-20"></path>
                                <path d="M21.3,16.4 C21.2,16.4 21.2,16.4 21.1,16.5 L21.1,16.7 L21.2,16.7 C21.2,16.6 21.2,16.6 21.1,16.6 C21.3,16.5 21.3,16.4 21.3,16.4" id="Shape-21"></path>
                                <path d="M20,17.9 C20.1,18.1 20.5,18 20.5,17.9 C20.5,17.8 20.2,17.7 20.1,17.7 C20,17.7 20.2,17.8 20,17.9" id="Shape-22"></path>
                                <path d="M20.5,19.2 C20.5765403,19.1199988 20.6132315,19.0099251 20.6,18.9 L20.3,19.2 L20.5,19.2" id="Shape-23"></path>
                                <path d="M22.3,16.5 L22.3,16.4 L22.1,16.4 C22,16.4 22,16.3 22,16.2 C22,16.1 21.9,16 21.9,15.9 C21.9,15.8 21.8,16.1 21.8,16.1 C22,16.3 22.1,16.6 22.3,16.5" id="Shape-24"></path>
                                <path d="M19.9,15.3 C19.8,15.2 19.8,15.3 19.9,15.3 C19.8,15.4 19.9,15.4 19.9,15.3" id="Shape-25"></path>
                                <path d="M8.1,19.1 C8.1,19.0447715 8.05522847,19 8,19 L7.9,19 L7.9,19.1 C7.92633245,19.1268754 7.96237437,19.1420204 8,19.1420204 C8.03762563,19.1420204 8.07366755,19.1268754 8.1,19.1" id="Shape-26"></path>
                                <path d="M8.8,19.1 C8.9,19.1 9,19 8.9,18.9 C8.8,18.8 8.6,18.9 8.7,19 C8.6,19.1 8.7,19.2 8.8,19.1" id="Shape-27"></path>
                                <path d="M20.2,12.1 C20.2,12 20.3,12 20.3,11.9 L20.2,11.9 C20.1,11.9 20.1,12 20.2,12.1" id="Shape-28"></path>
                                <path d="M20.5,12 C20.5,12 20.6,11.9 20.5,11.9 L20.4,11.9 C20.4,11.9552285 20.4447715,12 20.5,12" id="Shape-29"></path>
                                <path d="M19.4,14.6 C19.4,14.7 19.6,14.9 19.7,14.8 C19.7268754,14.7736675 19.7420204,14.7376256 19.7420204,14.7 C19.7420204,14.6623744 19.7268754,14.6263325 19.7,14.6 C19.6640044,14.553701 19.6086454,14.526619 19.55,14.526619 C19.4913546,14.526619 19.4359956,14.553701 19.4,14.6" id="Shape-30"></path>
                                <path d="M19.7,15.4 L19.7,15.3 L19.4,15.3 C19.4,15.3552285 19.4447715,15.4 19.5,15.4 C19.5,15.3 19.6,15.4 19.7,15.4" id="Shape-31"></path>
                                <path d="M19.4,15.6 C19.3,15.6 19.4,15.7 19.4,15.8 C19.4,15.9 19.5,15.8 19.6,15.7 C19.7,15.6 19.7,15.5 19.6,15.5 C19.5,15.5 19.4,15.5 19.4,15.6" id="Shape-32"></path>
                                <path d="M19.2,15.3 C19.2,15.4 19.1,15.5 19.2,15.6 C19.3,15.7 19.3,15.6 19.3,15.6 C19.3,15.6 19.3,15.4 19.4,15.4 L19.3,15.4 L19.3,15.3 L19.2,15.3" id="Shape-33"></path>
                                <path d="M26.8,22.4 C26.9,22.4 26.8,22.3 26.8,22.4" id="Shape-34"></path>
                                <path d="M21,18.5 L20.9,18.4 C20.9,18.3 20.8,18.5 20.7,18.4 C20.8,18.5 20.7,18.5 20.6,18.6 C20.6,18.6265216 20.6105357,18.651957 20.6292893,18.6707107 C20.648043,18.6894643 20.6734784,18.7 20.7,18.7 C20.7,18.8 20.6,18.8 20.7,18.9 L20.6,19 C20.6,19 20.5,19.1 20.6,19.1 C20.7,19.1 20.8,19 20.9,19 L21,19 C21.1,19 21.1,18.9 21.2,18.8 L21,18.8 C21,18.8 20.9,18.8 21,18.5" id="Shape-35"></path>
                                <path d="M21.6,20.4 C21.6,20.5 21.7,20.5 21.6,20.4 C21.7,20.4 21.7,20.3 21.7,20.2 L21.6,20.2 L21.6,20.4" id="Shape-36"></path>
                                <path d="M21.7,20.2 C21.8,20.2 21.7,20.1 21.7,20.1 L21.6,20.1 C21.6,20.1265216 21.6105357,20.151957 21.6292893,20.1707107 C21.648043,20.1894643 21.6734784,20.2 21.7,20.2" id="Shape-37"></path>
                                <path d="M22.3,20.5 C22.2,20.5 22.2,20.4 22.1,20.5 L22,20.5 L22,20.6 C22.2,20.5 22.2,20.5 22.3,20.5" id="Shape-38"></path>
                                <path d="M23.3,20.4 L23.3,20.3 C23.2,20.3 23.1,20.4 23,20.3 L23,20.4 L22.9,20.4 C23.1,20.5 23.2,20.4 23.3,20.4" id="Shape-39"></path>
                                <path d="M23.7,20 C23.7,20.2 23.9,20.1 23.9,20 C23.9,19.9 23.9,19.9 23.7,20 L23.8,19.9 C23.8,19.9552285 23.7552285,20 23.7,20" id="Shape-40"></path>
                                <path d="M28.5,16.8 C28.5,16.9 28.6,16.9 28.7,16.9 C28.8099251,16.9132315 28.9199988,16.8765403 29,16.8 C29.0097741,16.7178255 28.9813244,16.635707 28.9228087,16.5771913 C28.864293,16.5186756 28.7821745,16.4902259 28.7,16.5 C28.5,16.6 28.5,16.7 28.5,16.8" id="Shape-41"></path>
                                <path d="M28.5,21.9 L28.4,21.9 C28.3,22.4 27.8,23.1 28.4,23.4 C28.6,23.6 28.9,23.3 29,23.1 C29.1,22.9 29,22.1 28.5,21.9" id="Shape-42"></path>
                                <path d="M27,19.7 C26.9,19.7 26.9,19.9 27,19.9 C27.0265216,19.9 27.051957,19.8894643 27.0707107,19.8707107 C27.0894643,19.851957 27.1,19.8265216 27.1,19.8 L27.1,19.7 L27,19.7" id="Shape-43"></path>
                                <path d="M27.4,24.8 L27.4,25 C27.4,25 27.6,24.9 27.4,24.8" id="Shape-44"></path>
                                <path d="M29.7,13.1 L29.6,13.1 L29.6,13.3 C29.4,13.7 28.9,14.2 29.2,14.7 C29.3235219,14.586046 29.4251903,14.4504881 29.5,14.3 C29.6505651,13.9738204 29.7840784,13.640037 29.9,13.3 C29.9,13.3 29.8,13.1 29.7,13.1" id="Shape-45"></path>
                                <path d="M28.8,14.9 C28.8,15 28.8,15 28.9,15 C29,15 29,14.9 28.9,14.9 C28.8,14.9 28.9,14.8 28.8,14.9" id="Shape-46"></path>
                                <path d="M23.7,11.8 C23.6,11.6 23.5,11.8 23.4,11.8 L23.3,11.7 L23.2,11.7 C23.1,11.7 23.2,11.9 23.3,11.9 C23.4,11.9 23.4,11.8 23.4,11.9 C23.4,12 23.4,12.2 23.6,12.1 C23.8,12 23.8,12 23.9,12 C24,12 24,11.9 24,11.8 C24,11.7 24.2,11.7 24.3,11.8 C24.3,11.8265216 24.3105357,11.851957 24.3292893,11.8707107 C24.348043,11.8894643 24.3734784,11.9 24.4,11.9 C24.4,12 24.5,12 24.6,12 C24.7099251,12.0132315 24.8199988,11.9765403 24.9,11.9 C24.946299,11.8640044 24.973381,11.8086454 24.973381,11.75 C24.973381,11.6913546 24.946299,11.6359956 24.9,11.6 L24.7,11.6 C24.6,11.6 24.6,11.5 24.5,11.5 C24.1,11.4 23.9,11.7 23.7,11.8" id="Shape-47"></path>
                                <path d="M22.7,12 L23,12 C23,11.8 22.8,11.9 22.7,11.9 C22.8,11.8 22.8,11.9 22.7,12" id="Shape-48"></path>
                                <path d="M23.1,12.6 C23.2,12.5 23.4,12.4 23.5,12.3 L23.5,12.2 C23.5,12.1 23.4,12.1 23.3,12 C23.3,12.0552285 23.2552285,12.1 23.2,12.1 C23.1,12.2 23,12.2 23,12.3 L23,12.5 C23.1,12.8 23.1,12.7 23.1,12.6" id="Shape-49"></path>
                                <path d="M21.6,11.6 L21.6,11.7 C21.7,11.8 21.7,11.7 21.6,11.6" id="Shape-50"></path>
                                <path d="M18,9.4 C18.1173345,9.47953741 18.2590402,9.51496383 18.4,9.5 L18.5,9.4 C18.4,9.3 18.3,9.4 18.3,9.3 L18.2,9.3 C18.1,9.2 18,9.3 18,9.4" id="Shape-51"></path>
                                <path d="M27.1,11 C27.1,11.1 27,11 26.9,11.1 L26.9,11.2 C27,11.3 27.1,11.2 27.2,11.2 C27.2,11.2 27.3,11.1 27.3,11.2 L27.3,11.3 C27.2734784,11.3 27.248043,11.3105357 27.2292893,11.3292893 C27.2105357,11.348043 27.2,11.3734784 27.2,11.4 L26.9,11.4 L26.9,11.6 C26.8,11.7 26.5,11.8 26.6,12 C26.7498729,12.0907049 26.9267693,12.1260841 27.1,12.1 C27.1,11.9 27.2,11.9 27.3,11.8 C27.3,11.7447715 27.2552285,11.7 27.2,11.7 L27.2,11.6 C27.2552285,11.6 27.3,11.5552285 27.3,11.5 L27.3,11.4 C27.3758076,11.3894321 27.4460611,11.3543054 27.5,11.3 C27.5,11.2 27.4,11.1 27.4,11 C27.4,10.9447715 27.4447715,10.9 27.5,10.9 L27.5,10.8 L27.4,10.8 C27.4,10.8 27.3,10.8 27.4,10.9 C27.2900749,10.8867685 27.1800012,10.9234597 27.1,11 C27.1,10.8 27.2,11 27.1,11" id="Shape-52"></path>
                                <path d="M26.1,12 C26.1,12.1 26.2,12.1 26.3,12 L26.1,12" id="Shape-53"></path>
                                <path d="M27.5,11.8 C27.4,11.9 27.6,11.9 27.7,11.9 C27.7,11.8 27.6,11.8 27.5,11.8" id="Shape-54"></path>
                                <path d="M27.9,11.3 C27.8,11.3 27.8,11.4 27.9,11.3" id="Shape-55"></path>
                                <path d="M25.6,7.3 C25.7,7.4 25.8,7.4 25.8,7.5 L25.8,7.9 L25.9,8 L25.9,8.2 C25.9,8.3 26,8.5 26,8.6 C26.0552285,8.6 26.1,8.64477153 26.1,8.7 C26.1,8.8 26.1,8.8 26.2,8.9 C26.3,9 26.3,8.9 26.4,9 C26.5,9.1 26.6,9.3 26.7,9.4 C26.7552285,9.4 26.8,9.44477153 26.8,9.5 L26.8,9.6 C27,9.6 27.3,9.7 27.2,10 C27.3,9.9 27.4,9.9 27.4,9.8 C27.4,9.7 27.5,9.5 27.4,9.4 C27.3,9.3 27.3,9.3 27.2,9.2 L27.2,9 C27.2,8.94477153 27.1552285,8.9 27.1,8.9 C27.1,8.8 27,8.6 27.2,8.6 L27.2,8.5 L27,8.5 L27,8.4 C27.017329,8.28950147 26.9808028,8.17737568 26.9017136,8.09828642 C26.8226243,8.01919717 26.7104985,7.982671 26.6,8 C26.5,7.9 26.5,7.9 26.4,7.9 L26.2,7.9 C26.0329103,7.72468628 25.8975628,7.52166503 25.8,7.3 C25.7640044,7.25370101 25.7086454,7.22661904 25.65,7.22661904 C25.5913546,7.22661904 25.5359956,7.25370101 25.5,7.3 C25.6,7.2 25.6,7.2 25.6,7.3" id="Shape-56"></path>
                                <path d="M24.7,7.6 C24.6731246,7.62633245 24.6579796,7.66237437 24.6579796,7.7 C24.6579796,7.73762563 24.6731246,7.77366755 24.7,7.8 L25.1,7.8 C25.1265216,7.8 25.151957,7.78946432 25.1707107,7.77071068 C25.1894643,7.75195704 25.2,7.72652165 25.2,7.7 C25.3,7.6 25.4,7.7 25.6,7.6 C25.6,7.7 25.6,7.7 25.7,7.7 C25.8,7.7 25.7,7.5 25.6,7.5 C25.5,7.5 25.5,7.3 25.4,7.2 L25.3,7.2 C25.3,7.4 25.2,7.3 25,7.4 L25,7.5 L25,7.4 L24.8,7.4 C24.7894321,7.47580764 24.7543054,7.54606113 24.7,7.6" id="Shape-57"></path>
                                <path d="M22.4,3.7 C22.3,3.5 22.1,3.3 22.2,3 C22.4916983,3.0998099 22.8083017,3.0998099 23.1,3 C23.3,2.9 23.6,3 23.8,2.9 L23.8,2.7 C23.5,2.8 23.3,2.5 23.1,2.6 C22.8166879,2.74443841 22.5133127,2.84556346 22.2,2.9 C22,3 21.3,2.9 21.3,3.3 C21.6,3.3 22,3.3 22.2,3.6 C22.2,3.7 22.3,3.7 22.4,3.7" id="Shape-58"></path>
                                <path d="M23.4,5.2 C23.4801313,5.34193723 23.6383714,5.42105727 23.8,5.4 C23.8,5.3 23.8,5.3 23.7,5.2 L23.4,5.2" id="Shape-59"></path>
                                <path d="M23.1,5.7 C23,5.7 23.1,5.8 23.2,5.9 C23.2,5.8 23.3,5.6 23.1,5.7" id="Shape-60"></path>
                                <path d="M22.9,5.4 C23,5.3 22.9,5.2 22.8,5.2 L22.8,5.3 L22.9,5.4" id="Shape-61"></path>
                                <path d="M23.8,6.5 C23.8570536,6.44809533 23.8927084,6.37678568 23.9,6.3 L23.8,6.3 C23.7731246,6.32633245 23.7579796,6.36237437 23.7579796,6.4 C23.7579796,6.43762563 23.7731246,6.47366755 23.8,6.5" id="Shape-62"></path>
                                <path d="M24.1,6.5 L24.1,6.6 C24.2,6.7 24.2,6.6 24.1,6.5 C24.2,6.5 24.1,6.6 24.1,6.5" id="Shape-63"></path>
                                <path d="M24,6.8 L24.1,6.7 C24.1,6.6 24,6.6 23.9,6.7 C23.8,6.8 24,6.7 24,6.8" id="Shape-64"></path>
                                <path d="M24.1,6.8 C24.1,6.9 24.2,7 24.3,6.9 C24.4,6.8 24.4,6.8 24.3,6.8 L24.1,6.8 Z" id="Shape-65"></path>
                                <path d="M24.6,7 C24.5894321,6.92419236 24.5543054,6.85393887 24.5,6.8 C24.5,6.8 24.4,6.9 24.5,6.9 C24.6,6.9 24.5,7 24.6,7" id="Shape-66"></path>
                                <polyline id="Shape-67" points="24.7 7.3 24.8 7.3 24.8 7.2 24.8 7.2 24.8 7.1 24.6 7.1 24.6 7.2 24.7 7.3"></polyline>
                                <path d="M24.5,7.5 C24.6,7.4 24.6,7.4 24.5,7.3 L24.4,7.3 C24.4,7.32652165 24.3894643,7.35195704 24.3707107,7.37071068 C24.351957,7.38946432 24.3265216,7.4 24.3,7.4 C24.4,7.5 24.4,7.5 24.5,7.5" id="Shape-68"></path>
                                <path d="M24.2,2.5 C24.1,2.4 24.1,2.4 24,2.4 C24.1,2.5 24.1,2.6 24.2,2.5" id="Shape-69"></path>
                                <path d="M27.6,5 C27.7,5.1 27.8,5 27.8,5.1 C27.8,5.2 27.9,5.3 28,5.3 C28.1,5.3 28.1,5.3 28.1,5.2 C28.1,5.1 28.1,4.8 27.9,4.8 L27.4,4.8 C27.3,4.8 27.3,4.9 27.3,5 C27.3359956,4.95370101 27.3913546,4.92661904 27.45,4.92661904 C27.5086454,4.92661904 27.5640044,4.95370101 27.6,5" id="Shape-70"></path>
                                <path d="M31.7,10.2 C31.6,10.1 31.6,9.9 31.5,9.8 C31.4,9.7 31.3,9.7 31.2,9.6 L31.2,9.4 L31.1,9.3 C31,9.1 31,9 30.8,9 C30.8,8.8 30.7,8.8 30.5,8.7 L30.5,8.6 C30.5,8.54477153 30.4552285,8.5 30.4,8.5 L30.3,8.5 C30.2,8.4 30.1,8.3 30.1,8.2 C30.1,8.1 29.9,8 29.8,7.9 L29.7,7.8 C29.6,7.8 29.5,7.8 29.5,7.7 C29.5,7.6 29.3,7.4 29.2,7.3 C29.1,7.2 29.2,6.9 29.1,6.6 C29.1,6.5 29,6.5 28.9,6.5 C28.8447715,6.5 28.8,6.45522847 28.8,6.4 C28.7,6.3 28.8,6.1 28.7,6 C28.6,5.9 28.4,5.7 28.3,5.5 C28.2199988,5.42345971 28.1099251,5.38676847 28,5.4 L27.9,5.4 L27.8,5.3 C27.7,5.2 27.6,5.1 27.5,5.1 C27.4,5.1 27.1,5.1 26.9,5 C26.7,4.9 26.5,5 26.4,5.2 C26.3,5.4 26.1,5.4 25.9,5.4 C25.7,5.4 25.9,5.5 25.9,5.6 C25.9,5.7 25.7,5.8 25.8,5.8 L26,5.8 C26.0552285,5.8 26.1,5.84477153 26.1,5.9 C26.2,6 26.3,6.1 26.3,6.2 C26.2731246,6.22633245 26.2579796,6.26237437 26.2579796,6.3 C26.2579796,6.33762563 26.2731246,6.37366755 26.3,6.4 C26.3765403,6.48000117 26.4132315,6.59007489 26.4,6.7 C26.4,6.8 26.5,6.7 26.5,6.7 C26.5772389,6.72874585 26.6353483,6.79371187 26.6553368,6.87366581 C26.6753252,6.95361976 26.6546245,7.03828829 26.6,7.1 L26.6,7.4 C26.7,7.6 26.7,7.8 26.8,7.9 L26.9,7.8 C27,7.8 27,7.7 27.1,7.7 C27.3,7.5 27.5,7.9 27.6,8 C27.7,8.1 27.6,8.4 27.7,8.6 C27.7748097,8.75048812 27.8764781,8.88604602 28,9 C28.0072916,9.07678568 28.0429464,9.14809533 28.1,9.2 L28.2,9.3 C28.2,9.24477153 28.2447715,9.2 28.3,9.2 L28.4,9.2 C28.6,9.4 28.6,9.8 28.9,9.8 C28.9,9.85522847 28.9447715,9.9 29,9.9 C29.1,9.9 29.1,9.8 29.2,9.9 C29.2105679,9.97580764 29.2456946,10.0460611 29.3,10.1 L29.6,10.1 C29.7,10.1 29.7,10.2 29.8,10.3 L29.9,10.4 C30.1,10.6 30.2,10.9 30.4,11.1 C30.6,11.3 30.6,11.3 30.7,11.2 L30.7,11.1 C30.8063667,11.0906993 30.8906993,11.0063667 30.9,10.9 L31.2,10.6 C31.3,10.5 31.4,10.5 31.5,10.4 C31.8,10.4 31.7,10.2 31.7,10.2" id="Shape-71"></path>
                                <path d="M27.5,10.3 C27.5,10.4 27.6,10.4 27.7,10.4 C27.8,10.4 27.8,10.6 27.9,10.6 C28,10.6 28,10.5 28,10.4 L28.1,10.4 C28.2,10.3 28.1,10.1 28,10 C27.9,9.9 27.9,9.8 27.7,9.8 C27.5,9.8 27.6,9.8 27.5,9.9 C27.4,10 27.5,10.1 27.5,10.2 L27.5,10.3" id="Shape-72"></path>
                                <path d="M28.2,10.7 C28.1,10.9 28.2,11.1 28.2,11.3 C28.2,11.5 28,11.4 28,11.5 C27.9731246,11.5263325 27.9579796,11.5623744 27.9579796,11.6 C27.9579796,11.6376256 27.9731246,11.6736675 28,11.7 C28,11.8 28.2,11.8 28.3,11.9 C28.5680328,12.0178752 28.7821248,12.2319672 28.9,12.5 C28.9765403,12.5800012 29.0132315,12.6900749 29,12.8 C29.1,12.9 29.2,12.9 29.2,13 C29.2,13.1 29.3,13.1 29.3,13 C29.4018576,12.8861197 29.4018576,12.7138803 29.3,12.6 C29.2,12.5 29.2,12.5 29.2,12.4 C29.1810072,12.1236296 29.1132983,11.8527941 29,11.6 L28.7,11.3 L28.7,11.2 C28.7,11.1 28.8,11.1 28.8,11 C28.8,10.9 28.7,10.8 28.6,10.7 C28.4,10.6 28.3,10.6 28.2,10.7" id="Shape-73"></path>
                                <path d="M29.7,12.1 L29.7,11.9 C29.7,11.7 29.5,11.7 29.4,11.7 L29.3,11.7 L29.3,11.9 C29.4590599,12.2126855 29.5606727,12.5513948 29.6,12.9 C29.6,13 29.9,12.9 29.9,12.8 L29.9,12.6 C29.9,12.5 29.8,12.5 29.8,12.4 C29.8,12.3 29.7,12.2 29.7,12.1" id="Shape-74"></path>
                                <path d="M29.3,11.2 C29.2,11.3 29.3,11.4 29.3,11.5 C29.4,11.5 29.4,11.5 29.4,11.4 C29.4,11.3 29.4,11.3 29.3,11.2" id="Shape-75"></path>
                                <path d="M29.3,11 C29.3,10.9 29.3,10.9 29.2,10.9 C29.1,10.9 29.1,11 29,11 C28.9,11 29,11.1 29.1,11.2 C29.3,11.2 29.4,11.1 29.3,11" id="Shape-76"></path>
                                <path d="M28.8,10.5 C28.9,10.6 28.8,10.7 28.9,10.7 C29,10.7 29.1,10.8 29.2,10.7 C29.3,10.6 29.2,10.6 29.1,10.6 L29.1,10.5 L29,10.5 C28.9,10.4 29.1,10.4 29,10.3 L29,10.2 L28.9,10.2 L28.9,10.3 C28.8,10.4 28.7,10.5 28.8,10.5" id="Shape-77"></path>
                                <path d="M28.7,9.9 C28.6,9.9 28.5,9.9 28.5,9.8 L28.4,9.8 C28.4,9.8 28.3,9.9 28.4,9.9 C28.4552285,9.9 28.5,9.94477153 28.5,10 C28.5,10.1 28.6,10 28.6,10.1 C28.6,10.2 28.7,10.2 28.7,10.1 L28.7,10 C28.7,10 28.8,9.9 28.7,9.9" id="Shape-78"></path>
                                <path d="M21.6,14.5 C21.6268754,14.4736675 21.6420204,14.4376256 21.6420204,14.4 C21.6420204,14.3623744 21.6268754,14.3263325 21.6,14.3 C21.5447715,14.3 21.5,14.3447715 21.5,14.4 C21.6,14.4 21.6,14.4 21.6,14.5" id="Shape-79"></path>
                                <path d="M29.4,13.2 C29.2590402,13.1850362 29.1173345,13.2204626 29,13.3 C28.8,13.4 28.7,13.7 28.6,13.9 C28.5036076,14.0235252 28.3566556,14.0970012 28.2,14.1 C28.1447715,14.1 28.1,14.0552285 28.1,14 L28.1,13.8 L28.2,13.7 C28.3,13.6 28.2,13.5 28.2,13.4 C28.2,13.3 27.9,13 27.7,13.1 C27.5,13.2 27.4,13.4 27.2,13.6 C27.1,13.5 27,13.4 27,13.3 L27,13.2 C27.1,13.2 27.2,13.4 27.2,13.3 C27.2,13.2 27.2,13.1 27.1,13.1 C27,13.1 27,13 26.9,13 C26.8,13 26.8,12.9 26.7,12.8 C26.6,12.7 26.7,12.5 26.6,12.5 C26.4900749,12.5132315 26.3800012,12.4765403 26.3,12.4 L26.1,12.4 L26.1,12.3 C26.2,12.3 26.4,12.3 26.3,12.1 C26.2,11.9 26.2,12 26.1,12 L26,12 L26,12.3 C25.9199988,12.3765403 25.8099251,12.4132315 25.7,12.4 L25.6,12.4 C25.5,12.4 25.4,12.3 25.3,12.3 C25.2,12.3 25.2,12.5 25.1,12.5 C25,12.5 25,12.5 24.9,12.6 C24.8,12.7 24.8,12.8 24.9,12.9 L24.9,13 C24.8447715,13 24.8,12.9552285 24.8,12.9 C24.8,12.8 24.7,12.7 24.7,12.6 C24.7,12.5 24.8,12.4 24.9,12.3 L24.9,12.1 C24.8,12 24.8,12 24.7,12 C24.6,12 24.4,12.4 24.2,12.3 C24,12.2 24,12.1 23.9,12.1 C23.8,12.1 23.8,12 23.7,12.1 C23.5474506,12.2218399 23.3792938,12.322734 23.2,12.4 C23.1,12.5 22.9,12.6 22.9,12.8 C22.8449696,12.9062877 22.7430793,12.9804369 22.6250189,13.0001137 C22.5069586,13.0197904 22.3865275,12.9826947 22.3,12.9 C22.2,12.8 22.1,12.7 22,12.7 C21.9,12.7 21.8,12.9 21.7,12.9 C21.6,12.9 21.6,12.9 21.5,12.8 L21.5,12.7 L22.1,12.4 C22.2,12.4 22.2,12.3 22.2,12.2 L22.2,12 C21.9399492,12.0075782 21.7070148,12.1628678 21.6,12.4 C21.6,12.4552285 21.5552285,12.5 21.5,12.5 C21.3,12.5 21.2,12.6 21,12.5 L20.9,12.3 C20.8,12.4 20.8,12.5 20.7,12.5 L20.6,12.6 C20.5,12.7 20.7,12.9 20.6,13 C20.5,13.1 20.4,13.1 20.3,13.1 L20.3,13.3 C20.3,13.4 20.4,13.3 20.4,13.4 C20.4,13.5 20.5,13.7 20.6,13.7 C20.7,13.7 20.9,13.7 21.1,13.8 C21.3,13.9 21.3,13.9 21.4,14 C21.5,14.1 21.5,14.1 21.5,14.2 C21.5,14.2265216 21.5105357,14.251957 21.5292893,14.2707107 C21.548043,14.2894643 21.5734784,14.3 21.6,14.3 L21.8,14.3 C21.9,14.3 21.8,14.4 21.9,14.5 C21.8958379,14.6400007 21.9304449,14.7784286 22,14.9 C22,14.9 22,15.1 21.9,15.1 C21.8447715,15.1 21.8,15.1447715 21.8,15.2 L21.8,15.5 L21.9,15.5 C22,15.6 22,15.7 22.1,15.8 L22.2,15.9 C22.1734784,15.9 22.148043,15.9105357 22.1292893,15.9292893 C22.1105357,15.948043 22.1,15.9734784 22.1,16 C22.1263325,16.0268754 22.1623744,16.0420204 22.2,16.0420204 C22.2376256,16.0420204 22.2736675,16.0268754 22.3,16 C22.4,16 22.4,15.9 22.5,15.9 C22.5552285,15.9 22.6,15.8552285 22.6,15.8 C22.6543054,15.8539389 22.6894321,15.9241924 22.7,16 C22.6,16.1 22.4,16 22.3,16.1 C22.2,16.2 22.2,16.1 22.1,16.2 C22.1,16.2265216 22.1105357,16.251957 22.1292893,16.2707107 C22.148043,16.2894643 22.1734784,16.3 22.2,16.3 C22.4,16.4 22.3,16.7 22.1,16.9 L22.1,17.1 L22,17.1 C21.8,17.1 21.5,17 21.3,17.1 C21.1,17.2 21.2,17.2 21.2,17.3 C21.1447715,17.3 21.1,17.3447715 21.1,17.4 L21.1,17.6 C20.9,17.8 20.9,18.1 20.8,18.3 C20.8,18.3265216 20.8105357,18.351957 20.8292893,18.3707107 C20.848043,18.3894643 20.8734784,18.4 20.9,18.4 C21,18.4 21,18.3 21.1,18.3 C21.2,18.3 21.2,18.5 21.2,18.5 C21.2,18.5 21.4,18.6 21.4,18.5 C21.3867685,18.3900749 21.4234597,18.2800012 21.5,18.2 C21.5,18.1 21.4,18 21.4,17.9 C21.4,17.8 21.4,17.7 21.5,17.7 C21.5265216,17.7 21.551957,17.7105357 21.5707107,17.7292893 C21.5894643,17.748043 21.6,17.7734784 21.6,17.8 L21.6,18.2 C21.6268754,18.2263325 21.6420204,18.2623744 21.6420204,18.3 C21.6420204,18.3376256 21.6268754,18.3736675 21.6,18.4 C21.6,18.4265216 21.5894643,18.451957 21.5707107,18.4707107 C21.551957,18.4894643 21.5265216,18.5 21.5,18.5 L21.5,18.7 C21.4,18.8 21.4,18.8 21.4,18.9 C21.2,18.9 21,18.8 21.1,18.6 C21,18.6 21,18.6 20.9,18.7 L20.9,19 C20.8,19.1 20.8,19.2 20.7,19.3 L20.7,19.4 C20.6,19.5 20.5,19.6 20.4,19.6 C20.3,19.7 20.2,19.6 20.2,19.7 C20.2,19.8 20.3,19.9 20.3,20 C20.3,20.1 20.3,20.1 20.2,20.2 L19.8,20.2 C19.8132315,20.3099251 19.7765403,20.4199988 19.7,20.5 C19.6,20.6 19.7,20.7 19.8,20.7 C19.9,20.7 19.9,20.9 20,20.9 C20.1,20.9 20.1,21 20.2,21 C20.3063667,20.9906993 20.3906993,20.9063667 20.4,20.8 C20.4,20.7 20.5,20.8 20.6,20.8 L20.7,20.8 C20.7268754,20.7736675 20.7420204,20.7376256 20.7420204,20.7 C20.7420204,20.6623744 20.7268754,20.6263325 20.7,20.6 L21.1,20.2 C21.2,20.2 21.2,20.1 21.3,20.1 C21.4,20.1 21.4,20.2 21.5,20.2 C21.6,20.2 21.6,20.3 21.7,20.3 L21.8,20.3 C21.9,20.3 22,20.5 22.1,20.5 C22.1132315,20.3900749 22.0765403,20.2800012 22,20.2 C21.9,20.1 21.8,20 21.7,20 L21.7,19.9 C21.8,20 21.8,20 21.9,20 C22,20 22,20.2 22.1,20.3 C22.2,20.4 22.2,20.4 22.3,20.4 C22.4099251,20.4132315 22.5199988,20.3765403 22.6,20.3 C22.6,20.2 22.6,20.2 22.5,20.2 C22.4,20.2 22.5,20.1 22.6,20 C22.7,19.9 22.6,19.8 22.6,19.7 L22.6,19.6 C22.7,19.5 22.6,19.4 22.6,19.2 C22.6,19.3 22.7,19.3 22.8,19.3 C22.9063667,19.2906993 22.9906993,19.2063667 23,19.1 C23.0501485,19.060977 23.1164848,19.0496062 23.1767666,19.0697002 C23.2370485,19.0897941 23.283295,19.1386925 23.3,19.2 C23.3,19.3 23.3,19.4 23.2,19.4 C23.014509,19.403405 22.8366694,19.4745408 22.7,19.6 L22.6,19.7 C22.5,19.8 22.5,19.8 22.5,19.9 L22.4,20 C22.4265216,20 22.451957,20.0105357 22.4707107,20.0292893 C22.4894643,20.048043 22.5,20.0734784 22.5,20.1 C22.6099251,20.1132315 22.7199988,20.0765403 22.8,20 L22.8,19.8 C22.9,19.8 22.9,19.7 23,19.7 C23.1,19.7 23.3,19.9 23.2,20 L23.1,20 C23,20.1 22.9,20.3 22.8,20.3 C22.7,20.3 22.3,20.4 22.1,20.5 C21.9,20.6 22,20.7 21.9,20.7 C21.8,20.7 21.7,20.8 21.6,20.7 C21.6,20.8 21.4,20.7 21.3,20.7 C21.2927084,20.6232143 21.2570536,20.5519047 21.2,20.5 L21.1,20.5 L21.1,20.4 L20.3,20.4 C20.2734784,20.4 20.248043,20.4105357 20.2292893,20.4292893 C20.2105357,20.448043 20.2,20.4734784 20.2,20.5 L20.1,20.6 C20.0199988,20.6765403 19.9099251,20.7132315 19.8,20.7 C19.6900749,20.6867685 19.5800012,20.7234597 19.5,20.8 C19.3,20.8 19.2,21 19.1,21.1 C19.0199988,21.1765403 18.9099251,21.2132315 18.8,21.2 L18.8,21.3 C18.6,21.3 18.5,21.6 18.4,21.8 L18.4,22 C18.3,22.1 18.3,22.3 18.1,22.4 L18.1,22.5 C18.2,22.7 18.4,22.8 18.6,23 C18.6,23.0552285 18.6447715,23.1 18.7,23.1 C18.8,23.2 18.8,23.3 18.9,23.5 C19,23.7 19.2,23.7 19.4,23.7 C19.4758076,23.7105679 19.5460611,23.7456946 19.6,23.8 C19.8,23.8 20.1,23.9 20.3,23.8 C20.6,23.9 21,23.8 21.3,23.9 C21.4,23.9 21.4,24 21.4,24.1 C21.4,24.2 21.6,24.4 21.7,24.5 C21.8173345,24.5795374 21.9590402,24.6149638 22.1,24.6 C22.1072916,24.6767857 22.1429464,24.7480953 22.2,24.8 C22.2,24.9 22.2,24.9 22.3,25 C22.4,25.1 22.4,25.1 22.4,25.2 C22.4,25.3 22.3,25.4 22.3,25.6 L22.3,25.8 C22.4742069,25.9953863 22.6764024,26.1638825 22.9,26.3 C22.9,26.3 23,26.3 22.9,26.4 C23,26.4 23,26.5 23.1,26.6 C23.2,26.7 23.1,26.7 23.2,26.8 L23.5,27.1 C23.6173345,27.1795374 23.7590402,27.2149638 23.9,27.2 C23.9552285,27.2 24,27.2447715 24,27.3 C24.1,27.3 24.3,27.4 24.4,27.3 C24.5,27.2 24.5,27.1 24.6,27.1 C24.7173345,27.0204626 24.8590402,26.9850362 25,27 C25.0265216,27 25.051957,26.9894643 25.0707107,26.9707107 C25.0894643,26.951957 25.1,26.9265216 25.1,26.9 C25.1,26.8 25.2,26.8 25.2,26.7 C25.2,26.6 25.4,26.6 25.5,26.6 C25.6,26.6 25.8,26.3 26,26.2 C26.2,26.1 26.4,26.1 26.5,26 C26.6,25.9 26.5,25.6 26.5,25.4 C26.5,25.2 26.6,25.2 26.6,25.1 L26.6,24.6 C26.6,24.5 26.5,24.4 26.5,24.3 C26.5,24.2 26.6,24.2 26.7,24.2 C26.8,24.2 26.8,23.9 26.9,23.8 C26.9552285,23.8 27,23.7552285 27,23.7 C27.1,23.7 27,23.6 27,23.5 C26.9447715,23.5 26.9,23.4552285 26.9,23.4 C26.7868363,23.187266 26.612734,23.0131637 26.4,22.9 C26.3447715,22.9 26.3,22.8552285 26.3,22.8 L26.3,22.7 C26.2,22.7 26.3,22.6 26.2,22.6 L26.3,22.6 C26.4,22.5 26.4,22.3 26.5,22.2 C26.5552285,22.2 26.6,22.1552285 26.6,22.1 L26.6,21.8 C26.5,21.7 26.6,21.5 26.6,21.4 C26.6162306,21.1294501 26.5823281,20.8582301 26.5,20.6 C26.5,20.5 26.4,20.5 26.3,20.5 C26.3,20.5552285 26.2552285,20.6 26.2,20.6 C26.1927084,20.6767857 26.1570536,20.7480953 26.1,20.8 C26.1,20.9 25.9,20.9 25.9,21 C25.9,21.1 25.9,21.1 25.8,21.2 L25.7,21.3 C26.1,21 26,21 26,21.1 L25.7,21.1 C25.1769477,20.9020592 24.642689,20.7351033 24.1,20.6 L24.4,20.6 C24.5,20.6 24.4,20.5 24.4,20.5 C24.4,20.5 24.6,20.6 24.7,20.7 C24.8,20.8 25.2,20.8 25.4,20.9 C25.6,21 25.7,21.1 25.9,21.1 C26.1,21.1 26.2,21 26.3,21 L26.3,20.9 C26.4,20.8 26.5,20.7 26.5,20.6 L26.5,20.3 L26.6,20.2 L26.6,19.8 C26.6265216,19.8 26.651957,19.7894643 26.6707107,19.7707107 C26.6894643,19.751957 26.7,19.7265216 26.7,19.7 L26.7,19.4 C26.7260841,19.2267693 26.6907049,19.0498729 26.6,18.9 C26.6,18.8 26.5,18.8 26.4,18.8 C26.4,18.8552285 26.3552285,18.9 26.3,18.9 C26.2,18.9 26.1,18.9 26.1,19 C26.0447715,19 26,19.0447715 26,19.1 C25.9036076,19.2235252 25.7566556,19.2970012 25.6,19.3 C25.5,19.3 25.4,19.3 25.4,19.2 C25.4,19.1 25.6,19 25.8,19 L25.9,18.9 C25.9093007,18.7936333 25.9936333,18.7093007 26.1,18.7 L26.3,18.7 C26.4,18.7 26.4,18.6 26.5,18.6 C26.5072916,18.5232143 26.5429464,18.4519047 26.6,18.4 C26.6,18.3 26.7,18.3 26.8,18.2 C26.9,18.1 26.9,17.8 27,17.6 C27.1,17.4 27,17.7 27.1,17.8 C27.1359956,17.846299 27.1913546,17.873381 27.25,17.873381 C27.3086454,17.873381 27.3640044,17.846299 27.4,17.8 C27.5,17.7 27.4,17.6 27.5,17.6 L27.6,17.6 C27.7,17.6 27.7,17.7 27.8,17.7 C27.8539389,17.6456946 27.9241924,17.6105679 28,17.6 L28.3,17.6 C28.5,17.5 28.9,17.6 28.9,17.4 C28.8525327,17.0701178 28.6187415,16.7973614 28.3,16.7 C28.1,16.6 28.2,16.3 28,16.1 C27.9,16.1 28,16 27.9,15.9 L27.8,15.8 L27.7,15.7 L27.7,15.2 C27.7,15.1 27.8,15.1 27.9,15.1 C28,15.1 28.1,15 28.1,14.9 L28.1,14.5 L28.2,14.4 C28.4,14.4 28.7,14.5 28.9,14.3 C29,14.3 29,14.2 29,14.1 C29.2518058,13.9111456 29.4,13.6147573 29.4,13.3 C29.3,13.4 29.4,13.4 29.4,13.2 C29.5,13.3 29.5,13.2 29.4,13.2 M24.9,18.6 C24.8,18.7 24.8,18.7 24.7,18.6 C24.6,18.5 24.6,18.5 24.6,18.4 C24.6,18.3 24.5,18.4 24.5,18.5 L24.3,18.5 C24.3,18.4 24.2,18.4 24.2,18.3 C24.2,18.2 24.2,18.1 24.3,18.1 C24.4,18.1 24.4,18.1 24.4,18.2 L24.4,18.3 C24.5,18.4 24.5,18.3 24.6,18.3 L24.9,18.3 C24.9,18.4 25,18.5 24.9,18.6" id="Shape-80"></path>
                                <path d="M15.6,36 C16.9,34.1 20.8,32.1 24.6,32.1 C28.4,32.1 32.6,34.3 34.2,33.1 C32.6956852,34.1049358 30.9065518,34.5960705 29.1,34.5 C25.7,34.5 24.4,32.8 22.1,32.8 C19.8,32.8 17.3,34.7 16.2,36.3 L15.6,36 Z" id="Shape-81"></path>
                                <path d="M27.7,31.8 C28.4117608,31.3132139 28.9950507,30.6613016 29.4,29.9 C30.3259584,28.2001665 31.5842241,26.7038506 33.1,25.5 C33.1,25.5 31.4,31 29.6,31.2 C29.6,31.2 29.3,31.4 29.8,31.3 C30.3,31.2 32.6,30.4 33.4,30.2 C34.5635683,30.0624996 35.6866451,29.6881406 36.7,29.1 C36.9190309,28.8873502 37.1984616,28.7476348 37.5,28.7 C37.5,28.7 35.3,32.4 31.3,32.4 C30.0820319,32.3289975 28.8751598,32.1278522 27.7,31.8" id="Shape-82"></path>
                                <path d="M32.4,29.9 C32.6942394,29.3789254 32.8652755,28.7974025 32.9,28.2 C33.2888027,25.9159353 34.2141619,23.7567639 35.6,21.9 C35.6,21.9 35.9,26.2 33.7,28.9 C33.7,28.9 33.6,29.3 33.8,29 C35.1549461,27.5031512 36.7016535,26.1918124 38.4,25.1 C38.4,25.1 39.9,23.8 40,23.4 C40,23.3 38.8,29.5 32.4,29.9" id="Shape-83"></path>
                                <path d="M36.1,25.8 C36.2173199,25.3759885 36.2844462,24.9396678 36.3,24.5 C36.3,23.9 36,21.9 36,21 C35.947246,19.7186655 36.2226141,18.445088 36.8,17.3 C36.7924621,17.774291 36.8599621,18.2467912 37,18.7 C37.2528855,19.5137459 37.4204535,20.3515862 37.5,21.2 C37.4702883,22.0466416 37.3359343,22.8863541 37.1,23.7 C37.3606509,23.4847253 37.5663186,23.2105018 37.7,22.9 C38.2994014,21.8687959 39.0398872,20.9263594 39.9,20.1 C40.5198455,19.5151962 40.9985832,18.7970896 41.3,18 C41.4091064,19.4668276 40.9827698,20.9234776 40.1,22.1 C38.6,24.2 38,23.9 37.2,24.7 C36.858785,25.0912644 36.4912644,25.458785 36.1,25.8" id="Shape-84"></path>
                                <path d="M38.4,20.9 C38.4145707,20.3514289 38.3123087,19.8060312 38.1,19.3 C37.0980128,17.5031619 36.6459638,15.4515552 36.8,13.4 C36.8,13.4 37,13.2 37.4,14.4 C37.8,15.6 38.4,16 38.6,17.2 C38.7070489,17.7611833 38.7738856,18.329295 38.8,18.9 C38.8,18.9 38.9,19.1 38.9,18.9 C38.9672547,17.7931579 39.2384756,16.7082746 39.7,15.7 C40.4,14.2 41.3,12.8 41.2,11.8 C41.2,11.8 41.6,11.8 41.5,13.4 C41.6,15 41.2,17.8 38.4,20.9" id="Shape-85"></path>
                                <path d="M39.2,16.1 C38.9691299,15.5817161 38.7017925,15.0804586 38.4,14.6 C38.1,14.2 35.7,10.9 35.5,9.3 C35.5,9.3 35.7,9.2 35.9,9.6 C36.3492999,10.209461 36.8512259,10.7783104 37.4,11.3 C38.1910605,12.0454756 38.7176445,13.0284324 38.9,14.1 C38.9,14.1 39,14.2 38.8,12 C38.6,9.8 39.5,8.3 38.7,6.7 C38.7,6.7 39.8,6.9 40.4,11.5 C40.3349674,12.7468112 40.029353,13.9692689 39.5,15.1 C39.6,15 39.3,16.1 39.2,16.1" id="Shape-86"></path>
                                <path d="M38.3,11 C37.8131663,10.5123819 37.2769498,10.076706 36.7,9.7 C35.2089936,8.61422973 34.0631216,7.12112373 33.4,5.4 C33.4,5.4 33.5,5.2 34.2,6.1 C34.7,6.8 35.3,6.5 36.9,8.5 C36.9,8.5 37.1,9 37.2,8.9 C37.3,8.8 37.1,8.4 37.1,8.4 C37.1,8.4 37,7.2 37,6.8 C36.806416,5.7386988 36.5048485,4.69996635 36.1,3.7 C37.6429997,4.77140268 38.5739998,6.5216827 38.6,8.4 C38.5,8.4 38.4,10.9 38.3,11" id="Shape-87"></path>
                                <path d="M36.5,7.3 C36.5,7.3 36.6,4.3 32.7,2.7 C32.7,2.7 34.1,5.5 35.1,6.2 C35.5942281,6.53016257 36.0622802,6.89791783 36.5,7.3" id="Shape-88"></path>
                                <path d="M26.3,36 C25,34.1 21.1,32.1 17.3,32.1 C13.5,32.1 9.3,34.3 7.7,33.1 C9.20431477,34.1049358 10.9934482,34.5960705 12.8,34.5 C16.2,34.5 17.5,32.8 19.8,32.8 C22.1,32.8 24.6,34.7 25.7,36.3 L26.3,36 Z" id="Shape-89"></path>
                                <path d="M14.2,31.8 C13.4882392,31.3132139 12.9049493,30.6613016 12.5,29.9 C11.5740416,28.2001665 10.3157759,26.7038506 8.8,25.5 C8.8,25.5 10.5,31 12.3,31.2 C12.3,31.2 12.6,31.4 12.1,31.3 C11.6,31.2 9.3,30.4 8.5,30.2 C7.33643175,30.0624996 6.21335487,29.6881406 5.2,29.1 C4.9923813,28.8717856 4.70714271,28.7291663 4.4,28.7 C4.4,28.7 6.6,32.4 10.6,32.4 C11.8179681,32.3289975 13.0248402,32.1278522 14.2,31.8" id="Shape-90"></path>
                                <path d="M9.5,29.9 C9.2057606,29.3789254 9.03472447,28.7974025 9,28.2 C8.61119725,25.9159353 7.68583808,23.7567639 6.3,21.9 C6.3,21.9 6,26.2 8.2,28.9 C8.2,28.9 8.3,29.3 8.1,29 C6.74505388,27.5031512 5.19834654,26.1918124 3.5,25.1 C3.5,25.1 2,23.8 1.9,23.4 C1.9,23.3 3.1,29.5 9.5,29.9" id="Shape-91"></path>
                                <path d="M5.8,25.8 C5.68268007,25.3759885 5.6155538,24.9396678 5.6,24.5 C5.6,23.9 5.9,21.9 5.9,21 C5.95275404,19.7186655 5.67738592,18.445088 5.1,17.3 C5.10753794,17.774291 5.0400379,18.2467912 4.9,18.7 C4.64711451,19.5137459 4.47954645,20.3515862 4.4,21.2 C4.42971166,22.0466416 4.56406566,22.8863541 4.8,23.7 C4.53934905,23.4847253 4.33368142,23.2105018 4.2,22.9 C3.60059863,21.8687959 2.86011279,20.9263594 2,20.1 C1.38015448,19.5151962 0.901416761,18.7970896 0.6,18 C0.490893611,19.4668276 0.917230212,20.9234776 1.8,22.1 C3.3,24.2 3.9,23.9 4.7,24.7 C4.8,24.7 5.7,25.8 5.8,25.8" id="Shape-92"></path>
                                <path d="M3.5,20.9 C3.53679423,20.3567328 3.63748877,19.8196952 3.8,19.3 C4.80198722,17.5031619 5.25403616,15.4515552 5.1,13.4 C5.1,13.4 4.9,13.2 4.5,14.4 C4.1,15.6 3.5,16 3.3,17.2 C3.14031925,17.7544992 3.03975943,18.3243382 3,18.9 C3,18.9 2.9,19.1 2.9,18.9 C2.83274525,17.7931579 2.56152443,16.7082746 2.1,15.7 C1.4,14.2 0.5,12.8 0.6,11.8 C0.6,11.8 0.2,11.8 0.3,13.4 C0.366453627,16.2176333 1.51189854,18.9022698 3.5,20.9" id="Shape-93"></path>
                                <path d="M2.7,16.1 C2.93087013,15.5817161 3.19820746,15.0804586 3.5,14.6 C3.8,14.2 6.2,10.9 6.4,9.3 C6.4,9.3 6.2,9.2 6,9.6 C5.55070009,10.209461 5.04877414,10.7783104 4.5,11.3 C3.70893951,12.0454756 3.18235552,13.0284324 3,14.1 C3,14.1 2.9,14.2 3.1,12 C3.3,9.8 2.4,8.3 3.2,6.7 C3.2,6.7 2.1,6.9 1.5,11.5 C1.56503257,12.7468112 1.87064698,13.9692689 2.4,15.1 C2.3,15 2.6,16.1 2.7,16.1" id="Shape-94"></path>
                                <path d="M3.6,11 C4.08683369,10.5123819 4.62305019,10.076706 5.2,9.7 C6.69100638,8.61422973 7.83687843,7.12112373 8.5,5.4 C8.5,5.4 8.4,5.2 7.7,6.1 C7.2,6.8 6.6,6.5 5,8.5 C5,8.5 4.8,9 4.7,8.9 C4.6,8.8 4.8,8.4 4.8,8.4 C4.93517568,7.84010679 5.03536941,7.27234234 5.1,6.7 C5.29358402,5.6386988 5.5951515,4.59996635 6,3.6 C4.45700026,4.67140268 3.52600025,6.4216827 3.5,8.3 C3.43334725,9.20092808 3.46688586,10.1064707 3.6,11" id="Shape-95"></path>
                                <path d="M5.4,7.3 C5.4,7.3 5.3,4.3 9.2,2.7 C9.2,2.7 7.8,5.5 6.8,6.2 C6.30577194,6.53016257 5.8377198,6.89791783 5.4,7.3" id="Shape-96"></path>
                            </g>
                        </g>
                    </g>
                </g>
            </g>
        </g>
    </g>
</svg>