<?xml version="1.0" encoding="utf-8"?>
<!-- Generator: Adobe Illustrator 18.0.0, SVG Export Plug-In . SVG Version: 6.00 Build 0)  -->
<!DOCTYPE svg PUBLIC "-//W3C//DTD SVG 1.0//EN" "http://www.w3.org/TR/2001/REC-SVG-20010904/DTD/svg10.dtd">
<svg version="1.0" id="logo" xmlns="http://www.w3.org/2000/svg" xmlns:xlink="http://www.w3.org/1999/xlink" x="0px" y="0px"
	 viewBox="74.8851852 229.1504517 208.5778198 50" enable-background="new 74.8851852 229.1504517 208.5778198 50"
	 xml:space="preserve">
<g>
	<g>
		<path fill="#888888" d="M142.8372345,255.1919708c0-10.0693665,7.3343506-17.8375092,17.690918-17.8375092
			c10.3566437,0,17.6903992,7.7681427,17.6903992,17.8375092c0,10.0678558-7.3337555,17.8370209-17.6903992,17.8370209
			C150.1715851,273.0289917,142.8372345,265.2598267,142.8372345,255.1919708z M173.3290253,255.1919708
			c0-7.4321899-5.0327454-13.5205536-12.8008728-13.5205536c-7.7681427,0-12.8008881,6.0883636-12.8008881,13.5205536
			c0,7.4297943,5.0327454,13.5190582,12.8008881,13.5190582S173.3290253,262.6217651,173.3290253,255.1919708z"/>
		<path fill="#888888" d="M208.474823,245.5549927c-1.9194946-2.4929962-5.0823975-3.8835754-8.2006226-3.8835754
			c-7.62117,0-12.6547852,6.0883636-12.6547852,13.8068542c0,7.1434937,4.7464294,13.2327576,12.6547852,13.2327576
			c3.8865509,0,6.8557129-1.7236633,8.8695374-4.5545959l3.8846741,2.9263611
			c-1.0059814,1.3896179-5.0814056,5.9461975-12.8486481,5.9461975c-10.7889404,0-17.450882-9.0156555-17.450882-17.5507202
			c0-10.546524,7.2394257-18.1238098,17.6894073-18.1238098c4.4621582,0,9.1588287,1.6798706,11.8914337,5.2751617
			L208.474823,245.5549927z"/>
		<path fill="#888888" d="M218.5927582,238.2182312h4.6023407V252.31427h17.594986v-14.0960388h4.604248v33.947876h-4.604248
			v-15.5362854h-17.594986v15.5362854h-4.6023407V238.2182312z"/>
		<path fill="#888888" d="M264.765625,238.2182312h4.1688538l14.5285339,33.947876h-5.370697l-3.4035339-8.39328h-16.1576233
			l-3.3547516,8.39328h-5.3716888L264.765625,238.2182312z M273.0099182,259.7460632l-6.3268738-15.581665h-0.0983276
			l-6.4233398,15.581665H273.0099182z"/>
	</g>
	<g>
		<g>
			<path fill="#888888" d="M99.4184113,249.8744354c0-2.6001892,2.114151-4.7035675,4.703064-4.7035675l0,0
				c2.6010818,0.0096741,4.6913986,2.1053772,4.6962814,4.7035675l0,0
				c-0.0048828,2.5941925-2.0976944,4.6870117-4.6962814,4.6937866l0,0v-0.2970581v-0.2979584
				c2.2724075,0,4.103157-1.8307495,4.103157-4.0987701l0,0c0-2.2720032-1.835144-4.1056519-4.103157-4.1056519l0,0
				c-2.2675171,0.0018921-4.1056442,1.8336487-4.1100388,4.1056519l0,0
				c0.0043945,2.2680206,1.8425217,4.0938873,4.1100388,4.0987701l0,0v0.2979584v0.2970581
				C101.5325623,254.568222,99.4184113,252.473526,99.4184113,249.8744354L99.4184113,249.8744354z"/>
			<path fill="#888888" d="M95.6833191,249.8744354c0-4.655899,3.772583-8.4450378,8.4381561-8.4450378l0,0
				c4.6539001,0,8.4381561,3.7862396,8.4381561,8.4450378l0,0c0,4.6490173-3.784256,8.4312592-8.4381561,8.4332733l0,0v-0.2921753
				v-0.2999573c4.3208389-0.007782,7.8382416-3.5222931,7.8451233-7.8411407l0,0
				c-0.0068817-4.3296204-3.5242844-7.8432312-7.8451233-7.852005l0,0c-4.3325119,0.0087738-7.8334579,3.5223846-7.8427277,7.852005
				l0,0c0.0092697,4.3188477,3.5102158,7.8333588,7.8427277,7.8411407l0,0v0.2999573v0.2921753
				C99.4559021,258.3077087,95.6833191,254.5234528,95.6833191,249.8744354L95.6833191,249.8744354z"/>
			<path fill="#888888" d="M91.608284,249.8744354c0-6.9122467,5.6058273-12.5059052,12.5131912-12.5059052l0,0
				c6.9028702,0,12.5014191,5.5936584,12.5038147,12.5059052l0,0c-0.0023956,6.9004669-5.6009445,12.4989166-12.5038147,12.4989166
				l0,0v-0.2969666v-0.2979431c6.5743027-0.0117798,11.8991165-5.3298035,11.9107819-11.904007l0,0
				c-0.0116653-6.5840759-5.3364792-11.9011078-11.9107819-11.9176636l0,0
				c-6.5766907,0.0165558-11.9059982,5.3335876-11.9176636,11.9176636l0,0
				c0.0116653,6.5742035,5.3409729,11.8922272,11.9176636,11.904007l0,0v0.2979431v0.2969666
				C97.2141113,262.3733521,91.608284,256.7798157,91.608284,249.8744354L91.608284,249.8744354z"/>
			<path fill="#888888" d="M87.7179337,249.8744354c0-9.0731659,7.3396454-16.4109192,16.4010468-16.4109192l0,0
				c9.0667877,0,16.4158096,7.3377533,16.4158096,16.4109192l0,0c0,9.0594025-7.3490219,16.4040375-16.4158096,16.4040375l0,0
				v-0.2980652v-0.2969666c8.7381134-0.0165405,15.8061295-7.0796814,15.820282-15.8090057l0,0
				c-0.0141525-8.7429962-7.0821686-15.8032379-15.820282-15.8177948l0,0
				c-8.7356186,0.0145569-15.7914658,7.0747986-15.8080139,15.8177948l0,0
				c0.0165482,8.7293243,7.0723953,15.7924652,15.8080139,15.8090057l0,0v0.2969666v0.2980652
				C95.057579,266.2784729,87.7179337,258.9338379,87.7179337,249.8744354L87.7179337,249.8744354z"/>
			<path fill="#888888" d="M83.4116516,249.8744354c0-11.440506,9.2718124-20.7219849,20.7073288-20.7239838l0,0
				c11.4385071,0.0019989,20.7127151,9.2834778,20.7127151,20.7239838l0,0c0,11.4385223-9.2742081,20.7083282-20.7127151,20.7083282
				l0,0v-0.2999573v-0.2960815c11.1099396-0.0185242,20.1007385-9.000061,20.1196899-20.1122894l0,0
				c-0.0189514-11.1123352-9.0097504-20.1104126-20.1196899-20.1308594l0,0
				c-11.1073456,0.0204468-20.0957489,9.0185242-20.1171875,20.1308594l0,0
				c0.0214386,11.1122284,9.0098419,20.0937653,20.1171875,20.1122894l0,0v0.2960815v0.2999573
				C92.6834641,270.5827637,83.4116516,261.3129578,83.4116516,249.8744354L83.4116516,249.8744354z"/>
			<g>
				<g>
					<polygon fill="#888888" points="103.8166275,245.4737244 103.8166275,229.4504089 104.4145508,229.4504089 
						104.4145508,245.4737244 					"/>
				</g>
			</g>
			<g>
				<g>
					<polygon fill="#888888" points="89.4848633,235.6438751 89.9055786,235.2261505 101.2209396,246.5487976 
						100.7978287,246.9695129 					"/>
				</g>
			</g>
			<g>
				<g>
					<polygon fill="#888888" points="83.7043304,250.167511 83.7043304,249.579361 99.7134781,249.579361 99.7134781,250.167511 
											"/>
				</g>
			</g>
			<g>
				<g>
					<polygon fill="#888888" points="89.4848633,264.0834656 100.7978287,252.785141 101.2209396,253.2028656 
						89.9055786,264.5070496 					"/>
				</g>
			</g>
			<g>
				<g>
					<polygon fill="#888888" points="103.8166275,270.2828064 103.8166275,254.2711639 104.4145508,254.2711639 
						104.4145508,270.2828064 					"/>
				</g>
			</g>
			<g>
				<g>
					<polygon fill="#888888" points="107.0225067,253.2028656 107.4431305,252.785141 118.7604828,264.0834656 
						118.3402634,264.5070496 					"/>
				</g>
			</g>
			<g>
				<g>
					<polygon fill="#888888" points="108.520195,250.1703949 108.520195,249.579361 124.5366287,249.579361 
						124.5366287,250.1703949 					"/>
				</g>
			</g>
			<g>
				<g>
					<polygon fill="#888888" points="107.0225067,246.5487976 118.3402634,235.2261505 118.7604828,235.6438751 
						107.4431305,246.9695129 					"/>
				</g>
			</g>
		</g>
		<g>
			<path fill="#888888" d="M100.975029,251.1997986c0.1796951-0.0214386,0.1489792,0.1373291,0.2103043,0.2366333
				c0,0.0047913,0.0472717,0.0047913,0.0730972,0c0.271637-0.2931671,0.441658-0.6378937,0.5102615-1.0420532
				c0-0.0311127,0.0754929-0.0662231,0.0754929-0.0797882c-0.0399857-0.1821899-0.2361374-0.243515-0.323288-0.3973694
				c-0.1018143,0.2697296-0.375946,0.0496521-0.5813675,0.1820831c-0.0024948,0.0048828-0.019043,0.0779724,0.0354996,0.099411
				c0.072998,0.0350037,0.1796951,0.0019073,0.2030258,0.0583344c0.0496597,0.071106,0.0496597,0.1967468-0.0233307,0.2864075
				c-0.0097733,0.0213318-0.0687027,0.0165558-0.0687027,0c-0.1061096-0.2084198-0.2765274-0.180191-0.4678879-0.180191
				c0.080368,0.0690918-0.0613251,0.0496521-0.0282211,0.0905304c-0.2644577-0.0710907-0.5195389,0.0565491-0.7747192,0.0798798
				c-0.0778809,0.0097809-0.1796951-0.051651-0.2483063-0.1207581c-0.092041,0.0974274-0.2006302,0.2882843-0.3447266,0.2346344
				c-0.0496597-0.0213318-0.132431-0.137207-0.0778809-0.1655273c0.146492-0.0876465,0.2765198-0.1888733,0.3447342-0.3310699
				c0.0569382-0.1158752,0-0.252182,0.0637207-0.3680573c0.0759811-0.1519775,0.1962433-0.2931824,0.337944-0.2815094
				c0.1606522,0,0.455719,0.1421967,0.5906372-0.0331116c0.0496597-0.0447693,0.1489868,0.0974274,0.2079163,0.1626434
				c0.0214386,0.0214386-0.0116653,0.0574341-0.0355988,0.0857544c-0.0968246,0.0963287-0.2478027,0.1061096-0.3072357,0.2501984
				c-0.0447769,0.0993195,0.0121613,0.184082,0.0876541,0.2104034c0.122757,0.0564423,0.1607437-0.111084,0.2195816-0.1967468
				c0.0687103-0.0817566,0.1417007-0.0136566,0.2079163,0c0-0.0253296-0.0067825-0.0633087,0-0.0633087
				c0.1441956-0.0427856,0.3072357-0.0184479,0.4582062-0.0184479c0.1772003,0,0.0827713-0.3622894,0.0662155-0.5765839
				c0-0.0476685-0.0048828-0.1089935,0-0.1606445c0-0.0263367,0-0.0564423,0.0165558-0.0827789
				c0.0521545-0.1178589,0.2810059-0.1509705,0.3165131-0.0263214c0.0048828,0.0448761,0.0141525,0.0827637,0.0263214,0.1207581
				c0.0116653,0.063324,0.0422821,0.1013184,0.1226578,0.063324c0.019043-0.0116577,0.0423737-0.0302124,0.0472641-0.063324
				c0.0306091-0.0681,0.0165558-0.179184,0.0613251-0.2170868c0.0686111-0.071106,0.165535,0.1061096,0.2765274,0.1226501
				c0.111084,0.0263367,0.2337341,0.0263367,0.3257751-0.0379791c0.0778885-0.0467682,0.0778885-0.1392212,0.011673-0.2317505
				c-0.0258255-0.0418854-0.0895462-0.0496674-0.103714-0.0302124c-0.1017075,0.1061859-0.2337341,0.0798645-0.3447266,0.0798645
				c-0.1042099,0-0.1538696-0.127533-0.2410202-0.1889648c-0.0969238-0.0681152-0.2175903,0.071106-0.330574,0.0234375
				c-0.1066971-0.0496674-0.1607437-0.1528778-0.0993195-0.2521973c0.0257263-0.04776,0.0993195-0.0945282,0.1606522-0.1305237
				c0.1319275-0.0652161,0.2834015-0.0652161,0.3563919-0.1791992c0.0569458-0.1013184,0.0925446-0.2268677,0.0993271-0.3427429
				c0.0073776-0.0633087,0.0710983-0.0633087,0.1061935-0.0701904c0.1538696-0.0544586,0.3286819-0.0165558,0.4630051-0.0827789
				c0.153862-0.0593262,0.2717285-0.1917572,0.4231033-0.2959595c0.0730972-0.0399933,0.1441956-0.0847626,0.2288589-0.1033173
				c0.0428772-0.0116577,0.0662155-0.0856476,0.0759888-0.11586c0.0307083-0.2580872-0.04039-0.4966125,0-0.7683411
				c0.0185471-0.071106,0.1275406-0.1158752,0.0730896-0.1937561c-0.016655-0.0282288-0.1227493,0.0194397-0.1490784-0.0165558
				c-0.0588379-0.0496674-0.1109848-0.1509705-0.0233383-0.2055206c0.0662155-0.0584412,0.2103119-0.0067749,0.2595749-0.0993195
				c0.0875549-0.1226654,0.042778-0.3535004-0.0964279-0.3992767c-0.1398087-0.0700989-0.2955704,0.059433-0.4562225,0.0263214
				c0.0189514,0.0613251-0.0663071,0.0827637-0.0896454,0.0827637c-0.1986389,0.0662231-0.2151947-0.179184-0.1796951-0.3145142
				c0-0.0282135,0.0190506-0.0447693,0.0404892-0.0350952c0.0471649,0.0068817,0.0564423-0.0593414,0.065712-0.1158752
				c-0.0447693,0-0.1013107-0.0048828-0.1417007,0c-0.1748047,0.0876465-0.2526855,0.2746277-0.4274902,0.3642731
				c-0.0209427,0.0184479-0.0209427,0.0515594-0.0068817,0.0797729c0.0068817,0.0214386,0.0331039,0.0545502,0.0589294,0.0428772
				c0,0.1109924,0.0355988,0.2950745-0.1533661,0.2503052c-0.0165558-0.0068817-0.0165558-0.0477753-0.0306168-0.051651
				c-0.0472641-0.0360107-0.1563568-0.0613403-0.1821899,0c-0.0306091,0.124649,0.224472,0.1811829,0.163147,0.3067322
				c-0.0993195,0.1753082-0.3403473,0.2074127-0.5384903,0.3019562c-0.4158249,0.1635284-0.8458176-0.0234375-1.2878723,0.071991
				c-0.2313461,0.0448761-0.4674835,0.0136566-0.7108994-0.0525513c-0.1724167-0.0331116-0.2055206,0.1178589-0.2950745,0.2337341
				c-0.0072708-0.0214386-0.019043-0.0447693-0.0496521-0.0350952c-0.0116653-0.0895538,0.0423813-0.1587524,0.0209351-0.2502899
				c-0.0092697-0.0709991-0.1227493-0.0623322-0.1485825-0.1207733c-0.2881851-0.5433655-0.9874191-0.4751587-1.5191193-0.3856049
				c-0.0988235,0.0097656-0.1368179,0.111084-0.2006378,0.1724091c-0.1085968,0.0973358-0.257576-0.0136566-0.3758392,0.0642242
				c-0.0516586,0.0331116-0.0730972,0.1090851-0.1178741,0.1178589c-0.1606445,0.0447845-0.3305664-0.1178589-0.4678802-0.0330963
				c-0.092041,0.0778809-0.2055206,0.0905457-0.3023529,0.1353149c-0.0331039,0.0253296-0.0331039,0.0984192-0.0448685,0.1626434
				c0,0.04776-0.0802765,0.0361023-0.106102,0.0361023c-0.1489868,0.0466614-0.3685684-0.0312195-0.3968887,0.1810913
				c0.0043945,0,0.0423813,0,0.0540466,0c0.059433,0.1704102-0.0257263,0.3622742-0.18647,0.4274902
				c-0.1839828,0.0643158-0.3875122,0.0496674-0.5691986,0.1236572c-0.0876541,0.0302124-0.2054214,0.114975-0.2385254,0.1957397
				c-0.2882919,0.5102692-0.5624161,1.0341949-0.5813675,1.6204529c0,0.0214386,0,0.0379791,0,0.0643158
				c0,0.0369873,0.0613251,0.072998,0.0613251,0.0866547c-0.2810059,0.6046906-0.4698715,0.9124298-0.7980499,1.4909058
				c-0.1349182,0.2337341-0.2955704,0.8053284-0.0545502,0.9991913c0.1202621,0.0993195-0.0662155,0.3378448-0.2410202,0.3495026
				c-0.2219772,0.0097809-0.5195389-0.0447693-0.5999069-0.2881775c-0.04039-0.1042023-0.224472-0.122757-0.3660736-0.1412048
				c0,0,0.0091705,0,0.0189438,0l-0.1065979-0.0126648c-0.1651382,0-0.3423386-0.0351105-0.4815445,0.0126648
				c-0.2527924,0.0652161-0.2717361,0.3612823-0.3852158,0.5619202c-0.0778809,0.1790924-0.3685608,0.1343231-0.4538269,0.3047333
				c-0.0422745,0.0731049,0.0404892,0.195755-0.0233307,0.3019562c-0.0447769,0.0709991-0.1417007,0.0709991-0.167923,0.1518707
				c-0.0165558,0.0447693-0.0283279,0.1080933-0.0565491,0.1509857c-0.0638199,0.2336273-0.1085892,0.4459381-0.0545425,0.6777802
				c0.0048828,0.0662231,0.0048828,0.1343231,0.0239334,0.1791077c0.0588303,0.243515-0.0190506,0.4538116-0.1251526,0.6524506
				c-0.1582489,0.2288666-0.4372635,0.2288666-0.6924515,0.3097382c-0.106102,0.0467682-0.2361298-0.0643311-0.3661652-0.0360107
				c-0.2906876,0.0544586-0.5739899-0.0681915-0.8501129,0.0262299c-0.0165482,0.0097809-0.0710983,0.0447845-0.094429,0.0662231
				c-0.1417007,0.0565338-0.1913605-0.1012268-0.2717361-0.1704254c-0.0851593-0.0846558-0.0944366-0.2336426-0.1820831-0.2785187
				c-0.1675339-0.0797729-0.3968887,0.011673-0.515152,0.1791992c0.0783768-0.0087738-0.0019989,0.0905457,0.059433,0.0905457
				c-0.1845856,0.0087738-0.3237915,0.1695251-0.4654922,0.235733c-0.1864777,0.1012115-0.2293549-0.2269592-0.2459106-0.4227142
				c-0.0185471-0.0993195-0.1768036-0.1625366-0.3189011-0.0895386c-0.0234375,0.0282135-0.0540466,0.051651-0.0540466,0.1032104
				c-0.0423813,0-0.07798-0.0515594-0.1183701-0.0136719c-0.125145,0.1393127,0.0969238,0.122757,0.163147,0.2055359
				c0.0423737,0.0398712-0.011673,0.0895386-0.0589371,0.1226501c-0.0638199,0.051651-0.1606445-0.0544586-0.1704178,0
				c-0.0307236,0.0945282-0.0871582,0.1441956-0.1626434,0.1158752c0,0.0283203-0.0121689,0.0350952,0,0.0545502
				c0,0.0253143,0.0209351,0.0448608,0.0472641,0.0253143c-0.0710983,0.0292206-0.1417007,0.0739899-0.1938553,0.0331116
				c-0.0662155-0.0331116-0.0447769-0.1412048-0.0662155-0.2288513c-0.014061-0.0184479-0.0871506,0-0.0871506,0.0283203
				c-0.0238342,0.1421051,0.0141602,0.1869659-0.1397095,0.19664c0.0165558,0.051651-0.0398865,0.1412048,0.0354996,0.1558685
				c0.0803757,0.0398865,0.1772995-0.0496674,0.2479019,0c0.1133804,0.1158752,0.0993195,0.2950745,0.132431,0.4577026
				c0,0.0096741-0.0331116,0.021347-0.0496597,0.021347c0.0306091,0.0847626,0.0496597,0.2999573-0.0730972,0.2084045
				c-0.1489792-0.0876465,0.0234375-0.3028412-0.0637207-0.4371643c-0.0165558-0.0263214-0.1062012-0.0097656-0.1772995-0.0097656
				c0.0876541,0.2171783-0.1017151,0.4469299,0.0876541,0.6543579c0.0730896,0.0945129-0.224472,0.2220764-0.1158752,0.3350525
				c0.0638199,0.064209,0.1748123,0.127533,0.2692413,0.1470032c0.0521545,0.0048828,0-0.1090088,0.0165558-0.1470032
				c0.0165482-0.0487671,0.1724167-0.1032104,0.2055206-0.032196c0.0165558,0.0467529,0.0398865,0.1062012,0.0398865,0.1791992
				c-0.0729904-0.0194702-0.1484833,0.0165405-0.2098083,0.0448608c0.0613251,0.1391907-0.028717,0.2366333-0.0521545,0.3709412
				c0,0.0282288,0.0448761,0.0827942,0.0521545,0.1178894c0.0374908,0.1060791,0.2123032,0.0097656,0.2668533,0.0973206
				c0.0398788,0.0701904-0.0803757,0.1509705-0.0404968,0.247406c0.0307236,0.064209,0.1349258,0.0263062,0.1797028,0.08078
				c0.0662079,0.039978,0.0423813,0.1246338,0.0355988,0.2055054c0.0662155-0.0067749,0.1699219,0.063324,0.1417007,0.1509705
				c0.0778809,0.0311279,0.094429-0.0594177,0.0871506-0.1129761c0.1747131,0.0067749,0.1041107-0.1606445,0.1231537-0.2979736
				c-0.059433,0.0301208-0.0545425-0.0945129-0.1231537-0.0448608c-0.0327072-0.0944214,0.0072784-0.1986389-0.0327072-0.2832947
				c-0.0471649-0.0974426-0.1893616-0.118866-0.2103043-0.2484131c0.1202545,0.0263367,0.2103043-0.0165405,0.2857895-0.144104
				c0.0423889-0.0632935,0.1484909,0.0282288,0.1913681,0.1158752c0.0209427,0.0214539,0.0068817,0.0467834,0.0068817,0.0827637
				c0.1089935-0.0359802,0.1089935,0.0750122,0.1489792,0.1246643c0.0895462,0.0623169,0.1182632,0.1704102,0.2195816,0.2132874
				c0.1538696,0.0447998,0.3047409,0.0447998,0.4606018,0.016571c-0.0141602-0.071106,0-0.144104,0.04039-0.1675415
				c0.0682068-0.0623169,0.1037064,0.0700989,0.1889648,0.0778809c-0.0379944,0.151001,0.0398865,0.2756348,0.1631393,0.3516235
				c0.0306168,0.0067749,0.0822678-0.0116577,0.1109924,0.0067749c0.0496597,0.0361023,0.0706024,0.1158752,0.1417007,0.1393127
				c0.0496597,0.0126648,0.1012115-0.0234375,0.1440887-0.016571c0.0778885,0.016571,0.0778885,0.08078,0.092041,0.1635437
				c0.0092773,0.006897,0.0496674,0.0331116,0.0496674,0.0614319c0.1440887-0.0283203,0.3048401,0.0096741,0.3447266,0.1343384
				c0.0729904,0.184082,0.2030334,0.3281555,0.2857971,0.4937134c0.0331039,0.0847473,0.1796951,0.1139526,0.1986389,0.1889648
				c0.0092773,0.064209,0.0516586,0.104187,0.0754852,0.1178589c0.0944366,0.1089783,0.2361374,0.1420898,0.3754425,0.1772156
				c0.0496674,0.0194397,0.1300354-0.0778809,0.2175903-0.1178894c0.0448761-0.0135498,0.0969238,0.0312195,0.1037064,0.0400085
				c0.1325302,0.2151794,0.1656342,0.5082397,0.3779449,0.631012c0.1089859,0.064209,0.1397018,0.1937561,0.2526855,0.2239685
				c0.0686035,0.0165405,0.1513672-0.0535583,0.2200775,0c0.0447769,0.0331116,0.0589371,0.1256409,0.0944366,0.1324158
				c0.1558609,0.0740051,0.2785187,0.1684265,0.3116226,0.3379517c0.0048904,0.0262451,0.0214386,0.08078,0.0638199,0.0895691
				c0.1417007,0.0165405,0.259964-0.0817871,0.3354568-0.0087891c0.1042099,0.0964355,0.2385254,0.1412048,0.3305664,0.2386169
				c0.0287247,0.0379944,0.1067047,0.0662231,0.132431,0.0379944c0.0379944-0.04776,0.019043-0.1354065,0.0497589-0.1801758
				c0.0398865-0.0778809,0.1440964-0.0516663,0.2195816-0.0778809c0.0944366-0.0379944,0.1042099-0.21521,0.2054214-0.2220764
				c0.1748123-0.0282288,0.243515,0.184082,0.3827286,0.2668457c0.0097656,0.0165405,0.0638199,0.0331116,0.0827637,0.0525513
				c0.1533661,0.0818787,0.0852585,0.3583984,0.2668457,0.3778381c0.2151947,0,0.3286743,0.1908569,0.5195389,0.2269592
				c0.1440964,0.0447693,0.2599716,0.0798645,0.390007,0.1606445c0.0423813,0.0282288,0.1158676,0.0282288,0.165535,0.0087891
				c0.0822678-0.0302124,0.1558609-0.0682068,0.2220688-0.1158752c0.1839828-0.1158752,0.4226151-0.1246643,0.6090927-0.247406
				c0.0403824-0.0282288,0.080368-0.08078,0.1324234-0.0993347c0.3097229-0.1353149,0.6544571,0.1178894,0.9757538-0.0525513
				c0.07798-0.0350952,0.1865768-0.0350952,0.2810135-0.0983276c0.1937485-0.1354065,0.2502899-0.4090271,0.1888657-0.6213379
				c-0.1343231-0.3378601-0.2526932-0.6904602-0.4888229-0.9835205c-0.1134796-0.144104-0.2668533-0.2239685-0.4016724-0.3700867
				c-0.0258255-0.040863-0.1344223-0.0292053-0.1982422-0.0574341c-0.1275406-0.0565186-0.1065979-0.2055054-0.0827637-0.3301697
				c0-0.0447693-0.1373138-0.0447693-0.1606522-0.0895386c-0.0447769-0.0808716,0-0.175293,0.011673-0.255188
				c0.0072708-0.0379944-0.0471725-0.071106-0.0564499-0.071106c-0.1820831-0.0359802-0.3472214-0.1177673-0.5317001-0.0895386
				c-0.0589371,0.0067749-0.1134796-0.0574341-0.1675262-0.0905457c-0.0331116-0.0283203,0.0092697-0.0896606,0.0350952-0.0984192
				c0.1066055-0.0905457,0.2317505-0.1538696,0.3641739-0.2035217c-0.0472641-0.0642395-0.0521469-0.1626587-0.0121613-0.1869812
				c0.0710983-0.0700989,0.0520554-0.1976318,0.028717-0.2687378c0-0.0263367-0.028717-0.0856628-0.0993195-0.0856628
				c0.014061-0.1724243,0.1134796-0.3038635,0.014061-0.4558105c-0.1084976-0.144104-0.257576-0.2268677-0.2954712-0.4109497
				c0-0.0184631-0.0896454-0.063324-0.0896454-0.0915527c0-0.2084045,0.0638199-0.4371643,0.0214386-0.6475677
				c-0.0307083-0.0895538-0.1324234-0.195755-0.0545425-0.2502899c0.0331039-0.0262299,0.1109848-0.0827789,0.1796951-0.0993347
				c0.1465836-0.0545349,0.1962433-0.1538696,0.1226501-0.2531738c-0.0729904-0.1012268-0.2219772,0-0.3305664-0.0350037
				c-0.0496597-0.0146637-0.0564423-0.0496674-0.0613251-0.0974274c-0.026329-0.0847626,0.0613251-0.2190857-0.0190506-0.266861
				c-0.0662079-0.0233307-0.1275406-0.0895386-0.1582565-0.1343079c-0.0686035-0.1062012-0.0116653-0.2269592,0.0687103-0.3330688
				c-0.0472641,0.0048828-0.026329-0.0827637-0.0803757-0.0545502c-0.0165558-0.1109772,0.0662155-0.2356262,0.0190506-0.3330536
				c-0.0356064-0.0993195-0.1183701-0.2219849-0.2410278-0.1675415c-0.0121613,0,0,0.0351105-0.0121613,0.0351105
				c-0.0658188,0.0642242-0.1441956,0.0808716-0.214798,0.0194397c-0.014061-0.0194397-0.014061-0.0807648,0-0.127533
				c0.0496597-0.0613403,0.1489792-0.0359955,0.2030258-0.0808716c0.0993195-0.1012115,0.0117722-0.2385406-0.0354919-0.2920837
				c-0.1509781-0.132431-0.2146988-0.251297-0.1815948-0.4372711c-0.1724167-0.0243225-0.4372711-0.0447693-0.4255981-0.2882843
				c0.0121613-0.2131958-0.0374985-0.4089508-0.0895462-0.6261444c-0.0423889-0.1509705-0.0331116-0.3096313,0.0637207-0.4177246
				c0.0258255-0.0330963,0.0570374-0.0945282,0.1042023-0.0993195c0.2220764-0.0312042,0.4957047,0.0165558,0.6213531-0.1938477
				c0.0802689-0.1509857-0.0925369-0.3856201,0.0422745-0.4839478c0.2269669-0.1704102,0.5668106-0.0575409,0.8433304-0.2152863
				c0.0852585-0.0642242,0.0730972-0.1820831,0.0472641-0.2765198c-0.0354996-0.1061096-0.1042023-0.2171936-0.1631393-0.3165131
				c-0.0944366-0.1392059-0.3164062-0.071106-0.3802261-0.2200775c-0.0307159-0.0798798-0.0307159-0.1626434,0-0.2337494
				c0.0496597-0.1080933,0.1440964-0.2074127,0.257576-0.2619629c0.2502899-0.0973206,0.4864273-0.0233307,0.6992264,0.0994263
				c0.0686111,0.0378876,0.1343231,0.1128845,0.1820908,0.188858c0.014061,0.0263367,0.0233383,0.063324,0.0374908,0.0944366
				c0.0662155,0.2834015,0.163147,0.5852509,0.0662155,0.843338c-0.0447769,0.0876465-0.151474,0.1412048-0.1227493,0.2766113
				c0.0705948-0.059433,0.0969238,0.0350037,0.0969238,0.0564423c0.051651,0.1938629,0.1650391,0.4606018,0,0.5813599
				c-0.2079163,0.127655-0.1913605-0.0427704-0.4065552,0c-0.1062012,0.011673-0.1864777-0.0194397-0.1748123,0.0779877
				c0.0072861,0.0564423,0.0895538,0.1839752,0.1417084,0.200531c0.5009842,0.127655,0.7605591,0.1675262,1.2873764,0.2523041
				c0.1109848,0.0262146,0.1962433,0.1586456,0.3286743,0.1772003c0.0969238,0.0145569,0.2054214,0.0662079,0.3140182-0.063324
				c0.0331039-0.0447845,0.1349182,0,0.1465836,0.0282135c0.0258255,0.1013184,0.0871582,0.1013184,0.1533661,0.1373138
				c0.1606522,0.0779877,0.1085968,0.4859314,0.3213959,0.3545074c0.1133804-0.0759888,0.2128067,0.0067749,0.3403473-0.019455
				c-0.1275406,0.1752167-0.0618286,0.3476257,0.0613251,0.4722748c0.0988235,0.1226501,0.2430191,0.180191,0.3637772,0.2930756
				c0.094429,0.1091003,0.2454071,0.0808716,0.259964-0.0709991c0.0233383-0.1607513-0.1489792-0.3467255,0.0564423-0.4860229
				c0.1982422,0.2805023-0.0564423,0.6301117,0.1509781,0.8881836c0.0146637,0.0253448,0.026329,0.0379944,0.0379944,0.0613403
				c0.0944366,0.1178589,0.1723099,0.2405243,0.2974625,0.2268524c0.0925369-0.0311127,0.1300354-0.1187592,0.1748047-0.2151947
				c0.0024948-0.0350037,0.0165558-0.072998,0.026329-0.0807648c0.0141602-0.0915375,0.051651-0.1529694,0.0778809-0.2308502
				c0.0447693-0.1256561,0.2006378-0.2249756,0.1748047-0.3690643c0-0.0447693-0.0116653-0.1032104-0.0116653-0.1412048
				c0.0116653-0.1967468,0.2263641-0.3213959,0.4133377-0.2882843c0.0540466,0.0117645,0.0141602-0.0331116,0.0638199-0.071106
				c0.0803757-0.0613251,0.0613251-0.2453003,0.1344223-0.3378448c0.0613251-0.0798798,0.132431-0.1577606,0.1748123-0.2386322
				c0.0306091-0.0515594,0.0900421-0.1109924,0.0662079-0.1820831
				C100.9039307,251.3059082,100.9039307,251.2094727,100.975029,251.1997986z"/>
			<path fill="#888888" d="M95.0600739,250.8598633c-0.07798-0.0544434-0.1417007-0.0145569-0.1938553,0.039978
				c-0.0520554,0.0545502-0.0613251,0.1226654-0.0262299,0.1655426c0.0378952,0.0662079,0.0783844,0.1440887,0.0851593,0.2103119
				c0,0.1412048-0.0354996,0.2785034-0.0116653,0.4294891c0.0331116,0.1139832,0.1650391,0.3145142,0.238533,0.1820831
				c0.0828629-0.1460876,0.2104111-0.3661652,0.111084-0.5433655
				C95.182724,251.17836,95.2348785,250.9611816,95.0600739,250.8598633z"/>
			<path fill="#888888" d="M94.7834549,252.0956879c0.0214386,0.051651,0.0447693,0.0866547,0.0662079,0.1412048
				c0.0399857,0.11586,0.2288589,0.0613251,0.2975616-0.0185547c0.0096741-0.0447693,0-0.1226501-0.0521469-0.1655273
				c-0.0515594-0.0593414-0.1368179-0.0496674-0.1815948-0.08078c-0.0355988-0.0087738-0.073494-0.0496521-0.0993195-0.0370026
				C94.7717819,251.9720306,94.7717819,252.0411377,94.7834549,252.0956879z"/>
			<path fill="#888888" d="M95.1165161,252.6478271c0-0.2151947-0.1913681-0.2804108-0.3330612-0.1509705
				c-0.1820908,0.1509705,0.0307083,0.4255981,0.1675262,0.6213531c0.0214386,0.0467682,0.0472641,0.1109924,0.0759811,0.1626434
				c0.0662155,0.0710907,0.1937561,0.0447693,0.2361374-0.0351105c0.0331116-0.072998,0.0589371-0.0993195,0.0993271-0.1723022
				C95.4164734,252.9224548,95.3293152,252.6478271,95.1165161,252.6478271z"/>
			<path fill="#888888" d="M94.6939011,251.5211029c0-0.0331116-0.0545425-0.0331116-0.0662079-0.0282288
				c-0.0852585,0.0282288-0.1085968,0.0964355-0.122757,0.1743164c-0.0238342,0.1139832,0.0141602,0.2200775,0.092041,0.3048401
				c0.0355988,0.0476685,0.0969238-0.0087738,0.122757-0.0847626
				C94.7717819,251.7713928,94.7031784,251.6467438,94.6939011,251.5211029z"/>
			<path fill="#888888" d="M95.2820511,252.3790894c0.0307083-0.0263367,0.094429-0.0808716,0.0803757-0.1519775
				c0.0540466,0.0097809,0.1134796,0,0.1509705-0.0632172c0.0354996-0.0283203-0.0374908-0.0682068-0.0190506-0.111084
				c-0.1178665-0.0331116-0.1981354,0.0827637-0.290184,0.1655273
				C95.1213989,252.2982178,95.2348785,252.414093,95.2820511,252.3790894z"/>
			<path fill="#888888" d="M95.1354599,253.6382446c-0.0189438,0.1080933,0,0.1791992,0.0730972,0.2025299
				c0.0354996,0.0097656,0.1042023,0.0263214,0.1042023-0.0233307c0.0092773-0.0662231,0.0515594-0.1295471,0.0092773-0.1889801
				c-0.0092773-0.0097656-0.0399857,0-0.0472717,0C95.2085571,253.5933685,95.182724,253.6878967,95.1354599,253.6382446z"/>
			<path fill="#888888" d="M95.5041199,254.6792145c0.0331116-0.0827637,0.106102-0.1675262-0.0282135-0.2502899
				c-0.026329-0.0086823-0.0925446-0.0086823-0.1325302-0.0086823
				C95.3433762,254.5448914,95.4164734,254.6442108,95.5041199,254.6792145z"/>
			<path fill="#888888" d="M86.5366592,258.1928406c-0.0258331,0.0135498-0.0354996,0.1479797,0,0.18396
				c0.0403824,0.0447693,0.1489792,0.0282288,0.2127991,0.0282288
				C86.7021942,258.2960205,86.7090759,258.1021729,86.5366592,258.1928406z"/>
			<path fill="#888888" d="M87.4627533,259.1276855c-0.0803757,0.144104,0.094429,0.2998657,0.3048401,0.319397
				c0-0.0710754,0.0258255-0.1587524-0.0116653-0.2132874C87.6823349,259.134491,87.5007477,259.047821,87.4627533,259.1276855z"/>
			<path fill="#888888" d="M87.8761902,259.6876221c-0.0239334,0.2570801,0.0778809,0.4303894,0.3378448,0.4654846
				C88.244751,259.8813782,88.1405411,259.7226257,87.8761902,259.6876221z"/>
			<path fill="#888888" d="M102.0949783,252.461853c0.2336426-0.0759888,0.5243225-0.140213,0.7979507-0.140213
				c0.6193619-0.0136566,0.5838623-0.8005371,0.9003677-1.2991333c0.0686111-0.1226654-0.0379868-0.396286-0.125145-0.526825
				c-0.2103119-0.3379364-0.867157,0.0477753-1.0157471-0.3087311c-0.0876465-0.2015228,0.441658,0.1276398,0.4913254-0.1869659
				c0.0092697-0.0827637-0.04039-0.1869812-0.1042099-0.2170868c-0.0846634-0.0496674-0.2502975-0.059433-0.3165131,0
				c-0.332962,0.2785187-0.3943863,0.7605591-0.5643082,1.0769653c-0.3544998,0.6115723-0.9899139,1.0537262-1.3277664,1.7363129
				c-0.0545425,0.1013184,0.0238342,0.184082,0.1085968,0.2220764
				C101.4025269,252.9741058,101.7190399,252.5417328,102.0949783,252.461853z"/>
			<path fill="#888888" d="M104.6293488,250.942627c-0.0871582,0.0302124-0.184082,0.0545502-0.2288589,0.1159821
				c-0.0379944,0.0895386-0.0521545,0.2356262,0,0.3183899c0.0282211,0.0399017,0.1674271,0.0476685,0.2054214,0
				c0.0662155-0.0710907-0.0238342-0.1577454-0.0993195-0.2006226
				C104.582077,251.1101532,104.6580658,251.058609,104.6293488,250.942627z"/>
			<path fill="#888888" d="M102.7586136,253.0734406c0.1962433,0.2336273,0.6992264,0.1557617,0.6446838-0.0692139
				c-0.0589371-0.195755-0.3919983-0.3067322-0.6188583-0.2405243
				C102.6402435,252.8084717,103.0395203,252.9741058,102.7586136,253.0734406z"/>
			<path fill="#888888" d="M103.4154587,254.910965c0.2005386-0.0876617,0.0968323-0.2833099,0.1251526-0.455719
				c-0.2104111,0.0896454-0.3213959,0.2386322-0.3545074,0.455719
				C103.2664795,254.910965,103.3443604,254.9392853,103.4154587,254.910965z"/>
			<path fill="#888888" d="M105.982933,251.1763763c0.0214386-0.0145569,0.04039-0.1538696,0-0.203537
				c-0.0423737-0.0302124-0.1344223,0-0.2099075-0.0184479c-0.0924377-0.0379944-0.1231537-0.1178589-0.1420975-0.2171783
				c0-0.1256561-0.1178665-0.2151947-0.0847626-0.3545074c-0.1558609,0.0710907-0.1465836,0.243515-0.0969238,0.3184967
				C105.5860519,250.9115143,105.6805878,251.2425842,105.982933,251.1763763z"/>
			<path fill="#888888" d="M102.5905838,249.4235077c-0.0944366-0.0496674-0.1650391,0.0116577-0.0944366,0.0964203
				c0.0354996,0.0457764,0.1440964,0.0165558,0.2079163,0.019455
				C102.6709518,249.5013885,102.6524048,249.4449463,102.5905838,249.4235077z"/>
			<path fill="#888888" d="M85.9767303,254.8233032c0.0331116-0.0535431-0.0374908-0.0944214-0.080368-0.1440887
				c-0.0613327-0.0515594-0.1344223,0.0146637-0.1815948-0.0515594c0,0.0515594-0.0141602,0.1207581,0.0209427,0.1606598
				C85.7784882,254.8565063,85.8963623,254.910965,85.9767303,254.8233032z"/>
			<path fill="#888888" d="M86.9476013,254.828186c0.0969315-0.0496521,0.2317505-0.0876465,0.165535-0.2356262
				c0-0.0097809-0.0238342,0-0.0447769,0c-0.1557617-0.0925446-0.3592834-0.0574493-0.3237839,0.1295319
				C86.7494583,254.8048553,86.8506775,254.8925171,86.9476013,254.828186z"/>
			<path fill="#888888" d="M102.9923477,244.9322357c0.0378952-0.0944214,0.1937561-0.1129761,0.1723175-0.2141876
				c-0.0116653-0.0448761-0.1109848-0.0448761-0.1533661-0.0448761c-0.0710983,0.003891-0.0564423,0.103302-0.0564423,0.1908569
				c-0.0288162-0.0067749-0.0521545,0-0.0521545,0.0234375
				C102.9027023,244.9322357,102.9781952,244.9487915,102.9923477,244.9322357z"/>
			<path fill="#888888" d="M103.4884567,244.7413788c0.0238342-0.0233307,0.1109848-0.0925446,0.04039-0.1509705
				c-0.0593414-0.0545502-0.1562653-0.0545502-0.1844864-0.0292206
				C103.27565,244.6371765,103.3847504,244.8124847,103.4884567,244.7413788z"/>
			<path fill="#888888" d="M101.9717255,248.4837494c-0.0613327,0.1597443,0.2317429,0.3612823,0.378334,0.2668457
				c0.1153717-0.0710907,0.0638199-0.2765198-0.0496597-0.3359528
				C102.1937943,248.3581085,102.0097198,248.3844299,101.9717255,248.4837494z"/>
			<path fill="#888888" d="M102.3120651,249.5657043c0.0638199-0.059433,0-0.1421967-0.0520477-0.1753082
				c-0.0565491-0.0496674-0.1650391-0.0233307-0.2502975,0c-0.0214462,0.011673-0.0472717-0.0165558-0.0778809-0.0233307
				c-0.0214462,0.0681,0.0447693,0.1012115,0.0778809,0.1012115
				C102.1280823,249.468277,102.2269058,249.6309204,102.3120651,249.5657043z"/>
			<path fill="#888888" d="M101.8680191,249.8675537c-0.0803757,0.0496674-0.0638199,0.2035217,0.019043,0.2648468
				c0.0895462,0.0448761,0.2079163,0.0253448,0.2550812-0.0856476c0.0331039-0.0915527,0.092041-0.2239685,0-0.2901917
				C102.0311584,249.6786804,101.9766083,249.8042297,101.8680191,249.8675537z"/>
			<path fill="#888888" d="M101.582222,249.468277c0.0092697,0.1489868-0.0710983,0.2901764-0.0355988,0.4304962
				c0.0239258,0.0817566,0.1369095,0.056427,0.1534653,0c0.0452728-0.1305389,0-0.2464142,0.1041107-0.3330688
				c-0.0355072-0.0126648-0.0802765-0.0643158-0.0802765,0.0331116c0.0092697-0.0331116,0.0398865-0.0623322,0.0214386-0.0925446
				C101.7000885,249.456604,101.6460419,249.468277,101.582222,249.468277z"/>
			<path fill="#888888" d="M103.4767914,257.3348389c0.0067749,0.0019836,0.0116653,0,0.0189438,0.0019836
				c0.0043869,0,0.0117645,0,0.0165558-0.0019836C103.4957352,257.3348389,103.4884567,257.3348389,103.4767914,257.3348389z"/>
			<path fill="#888888" d="M112.4106522,259.4110107c0.0121613-0.0068054,0.002388-0.0253296,0-0.0350037
				c-0.0019989,0.0262146-0.032608,0.0447693-0.0565491,0.0350037
				C112.3780441,259.4110107,112.4086533,259.4207764,112.4106522,259.4110107z"/>
			<path fill="#888888" d="M104.2115173,254.0179749c-0.0545425,0.0195465-0.0452728-0.0496521-0.0545425-0.0613251
				c-0.0496597-0.051651-0.1017151-0.051651-0.1202621-0.124649c-0.0520554-0.1042023-0.1397095,0.072998-0.2434158,0.063324
				c-0.0116653,0-0.0379868,0.0350037-0.0238342,0.072998c0.0924454,0.1207581-0.0141525,0.1704102-0.0896454,0.2580719
				c-0.0472641,0.0964203,0.0944366,0.1031952,0.125145,0.2025299c0.0472717,0.1139679-0.0754852,0.2104034-0.0496521,0.3330536
				c-0.0307159,0.0312195-0.0754929,0.0876617-0.1393127,0.1869812c-0.0165558,0.0136566-0.0709991,0.1129761-0.0447769,0.1577454
				c0.092041,0.1091003,0.257576-0.1080933,0.3563995-0.124649c0.0901489,0,0.1042099,0,0.1796951-0.0545349
				c0.1042023-0.0613403,0.2030258-0.0993347,0.2410202-0.2151947c0.0141602-0.0418854-0.165535-0.0613403-0.2195816-0.0681152
				c0.0827637-0.2055206-0.0331116-0.2668457,0.0048828-0.4918213
				C104.1336365,254.1456146,104.2397385,254.0179749,104.2115173,254.0179749z"/>
			<path fill="#888888" d="M105.0616302,256.7038269c0,0.0097656,0.0545425,0.0145569,0.0687027,0
				c0.0871582-0.0662231,0.0969315-0.1820984,0.0520554-0.2521973c-0.0331039-0.0594482-0.1606522-0.0594482-0.1728134,0.0301208
				C104.9862442,256.5597229,105.0217361,256.6376038,105.0616302,256.7038269z"/>
			<path fill="#888888" d="M105.1867752,256.2928772c0.0852661-0.0185547,0.0307159-0.1062012-0.0091705-0.1607666
				c-0.0283203-0.0281982-0.0969315-0.0417786-0.1062012-0.0184326
				C105.0095749,256.2130127,105.0714035,256.3376465,105.1867752,256.2928772z"/>
			<path fill="#888888" d="M106.0233231,256.7183838c-0.0189514-0.0047913-0.04039-0.0331116-0.026329-0.0447693
				c-0.0729904,0-0.1484833-0.0476685-0.2361298-0.024353c-0.0233383,0-0.0871582-0.015564-0.1299362-0.015564
				c-0.0117645,0.0701294-0.0351028,0.16745,0.0496597,0.1927795
				C105.8037415,256.8362427,105.9288864,256.8362427,106.0233231,256.7183838z"/>
			<path fill="#888888" d="M107.4757385,256.5859375c0.0288162,0,0.0073776-0.1343079-0.0184479-0.1421814
				c-0.1251526-0.025238-0.2317505,0.1071777-0.3637772,0.0623169c0,0.0536499-0.0121689,0.0896606-0.04039,0.119873
				c-0.0116653,0.0116577-0.0545425,0.0077515-0.0851593,0.0077515
				C107.105278,256.8011475,107.3248596,256.6376038,107.4757385,256.5859375z"/>
			<path fill="#888888" d="M108.0215988,256.090332c0.0545502,0.2190857,0.2999573,0.1148987,0.3262863-0.0379944
				c0-0.1061859-0.149086-0.1061859-0.1962509-0.0263062c0.0116653-0.0185547,0.0214386-0.0467834,0.0379944-0.072998
				C108.1258087,256.0074768,108.002655,256.0074768,108.0215988,256.090332z"/>
			<path fill="#888888" d="M114.7472687,251.6019745c-0.0496521,0.1177673,0.1626434,0.1412048,0.2668533,0.1791992
				c0.1275406,0.0379944,0.3379517,0.0184479,0.3729477-0.0993195c0.059433-0.2104187-0.1748047-0.4256134-0.3991699-0.3992767
				C114.796936,251.2991333,114.8110962,251.4617767,114.7472687,251.6019745z"/>
			<path fill="#888888" d="M114.7847672,258.7877502c-0.0705948-0.0233459-0.2054214-0.0233459-0.2054214,0
				c-0.1606522,0.6943359-0.8029404,1.6555481-0.0355988,2.1210327c0.3379517,0.2123108,0.7561646-0.207428,0.8083267-0.4274902
				C115.4796143,259.9573669,115.4201813,259.0993652,114.7847672,258.7877502z"/>
			<path fill="#888888" d="M112.6589508,255.7115173c-0.106102,0.0593262-0.1275406,0.3145142,0.0398865,0.3145142
				c0.0687027,0,0.1441956-0.0545502,0.2011337-0.0993347c0.0613327-0.0710907,0.0540466-0.1675262-0.0189438-0.1889648
				C112.8055344,255.7115173,112.7202759,255.671524,112.6589508,255.7115173z"/>
			<path fill="#888888" d="M113.1668243,262.8602905c-0.0662155,0.1158752-0.0496597,0.2600708,0.0637207,0.3379517
				c-0.0023956-0.1042175,0.1913605-0.2317505,0.0496521-0.3379517
				C113.2281494,262.8057556,113.190155,262.8388672,113.1668243,262.8602905z"/>
			<path fill="#888888" d="M116.3911514,246.3754883c-0.0969315-0.0136719-0.1295395,0.0165405-0.1626434,0.071991
				c-0.0238342,0.0915375,0.0116653,0.2006378-0.0238342,0.2999573c-0.2269669,0.630127-0.9544144,1.2017212-0.6120758,1.910614
				c0,0.011673,0.0520477,0.011673,0.0618286,0c0.2030258-0.1373138,0.3232803-0.323288,0.4318771-0.5219269
				c0.2079163-0.4343719,0.3925018-0.8813171,0.5365906-1.3770294
				C116.6462326,246.6072235,116.592186,246.394928,116.3911514,246.3754883z"/>
			<path fill="#888888" d="M115.212265,248.8850098c-0.0540466,0.0993347,0.0687027,0.1772156,0.151474,0.1343231
				c0.0827637-0.0349884,0.1344223-0.1743011,0.0613251-0.1957397
				C115.363739,248.7924805,115.2502594,248.7924805,115.212265,248.8850098z"/>
			<path fill="#888888" d="M108.0381546,244.5476227c-0.0803757-0.2571716-0.2857971-0.0117645-0.4508286-0.0428772
				c-0.071106-0.0067749-0.1042099-0.0964355-0.1441956-0.0964355c-0.0618286,0.011673-0.1182709,0.0214386-0.1606522,0.063324
				c-0.1109848,0.0642242-0.0263214,0.2337494,0.0871582,0.2133026c0.0876541,0,0.1465836-0.1237488,0.1845779-0.04776
				c0.0846634,0.1392975,0.0282211,0.3778381,0.2429199,0.3281708c0.139801-0.0331116,0.2244644-0.132431,0.3759384-0.1460876
				c0.1484833-0.0067749,0.1650391-0.1704254,0.1484833-0.2834015c0.1562576-0.0194397,0.3403397-0.1469879,0.4396591-0.0194397
				c0.0472717,0.0447693,0.0613327,0.1421967,0.0993271,0.2016296c0.0472641,0.1060944,0.1533661,0.131424,0.2644501,0.1363068
				c0.1368179-0.0330963,0.2765198-0.0214386,0.3802338-0.1363068c0.1085968-0.1354218,0.0993195-0.2980652-0.0398941-0.3905029
				c-0.0570374-0.0370941-0.1563568,0.011673-0.2127991-0.0370941c-0.1158676-0.0642242-0.2011337-0.1635437-0.3165054-0.208313
				C108.5269775,243.9730377,108.2840652,244.3275452,108.0381546,244.5476227z"/>
			<path fill="#888888" d="M109.2574234,244.857254c-0.0428848,0-0.0876541,0-0.132431-0.0028992
				c-0.0048828,0-0.0092697,0-0.0141602,0.0028992H109.2574234z"/>
			<path fill="#888888" d="M106.6256256,244.7413788c0.1417084-0.0263214,0.269249-0.0233307,0.4158325-0.0067749
				c0-0.0165558,0-0.0195465,0-0.0292206c-0.0116653-0.2337494-0.2434158-0.2074127-0.3734512-0.114975
				c-0.0116653,0,0,0.0350952,0,0.0350952c-0.0496597,0.0233307-0.1109848-0.0097656-0.1393051,0.011673
				C106.4742508,244.7053833,106.5594177,244.7695923,106.6256256,244.7413788z"/>
			<path fill="#888888" d="M107.138382,245.6791382c0.1508789-0.1957397,0.3661728-0.323288,0.5974197-0.4323883
				c0.0165558,0,0-0.0496521,0-0.0778809c-0.0092697,0.0185547-0.0165558,0.0351105-0.0282211,0.063324
				c-0.0472641-0.1062012-0.125145-0.1811829-0.2244644-0.2308502c-0.0073776,0.0945435-0.1134796,0.1577606-0.1582565,0.195755
				c-0.1183624,0.0876465-0.2644577,0.184082-0.3165054,0.3067322c-0.04039,0.1023102-0.0613327,0.26297,0.0214386,0.3262787
				C107.0813446,245.8632202,107.1076736,245.7307892,107.138382,245.6791382z"/>
			<path fill="#888888" d="M104.9862442,244.290451c-0.0165558,0.0653076-0.0331116,0.1480865,0.0545425,0.1626434
				c0.1084976,0.0302124,0.1084976-0.1392059,0.0540466-0.1752167
				C105.0616302,244.2544556,105.0002975,244.2407837,104.9862442,244.290451z"/>
			<path fill="#888888" d="M99.9593887,241.0963287c0.1650314,0.0827789,0.366066,0.0827789,0.5408783,0.0896606
				c0.0307083,0,0.1300354-0.1042175,0.07798-0.1773071c-0.0969315-0.075882-0.2484055-0.011673-0.335556-0.127533
				l-0.0827713-0.0165558c-0.1440887-0.0447845-0.1815872,0.0876465-0.2619629,0.1636353
				C99.8599625,241.0817719,99.9544983,241.0963287,99.9593887,241.0963287z"/>
			<path fill="#888888" d="M112.7913742,243.4442291c-0.061821,0.0847626-0.1820831,0.04776-0.2955627,0.0847626
				c-0.0564423,0.0145569-0.0520554,0.1304321-0.0233383,0.1655273c0.1085968,0.1557617,0.238533,0.0662231,0.3895035,0.0331116
				c-0.0423813,0.0564423,0.0379944,0.0476685,0.0589371,0.0662079c0.0686035,0.0477753,0.0993195-0.1178589,0.165535-0.0662079
				c0.019043,0.0194397,0.019043,0.1139832,0,0.1226501c-0.0993271,0.0526581-0.0993271,0.1519775-0.1864777,0.191864
				c-0.0569382,0.0399933-0.1704178,0.0399933-0.2220764-0.0691071c-0.0072784-0.0136566-0.0544434,0-0.0827637,0
				c0.0141602,0,0.0214386,0,0.0283203,0c-0.0423813,0.0739899,0,0.2015381-0.0423813,0.2366333
				c-0.1724167,0.1538696-0.5575333,0.2736359-0.3876114,0.5053864c0.1275406,0.1724091,0.4158325,0.122757,0.6495743,0.1042023
				c0.0262222,0,0.0569382-0.0427856,0.0496597-0.0662079c-0.0234375-0.2171936,0.094429-0.2550812,0.2385254-0.3641815
				c0.0589371-0.0496521-0.0447693-0.1178741-0.1133804-0.1791992c-0.0638199-0.0302124,0.0023956-0.1626434,0.0686111-0.1626434
				c0.0896454-0.0048828,0.0896454-0.1187592,0.1699219-0.0925293c0-0.0593414,0-0.0924377,0-0.144104
				c0.1373138,0.0165558,0.2526855-0.0778809,0.2244644-0.1957397c-0.0447693-0.1557617-0.18647-0.2911835-0.1343231-0.4586182
				c0.0091782-0.0614166,0.0588379-0.1276398,0.1508789-0.1509705c0.0447769-0.011673,0.0687027-0.0682068,0.0331116-0.0993195
				c-0.0214462-0.0185547-0.0496674-0.0097809-0.0754929-0.0097809c0,0.0545502-0.0851593,0.0331116-0.0613251,0.0778809
				c-0.1489868,0.0312195-0.2930756,0-0.423111,0.0808716C112.8195953,243.1277161,112.8810272,243.3234711,112.7913742,243.4442291
				z"/>
			<path fill="#888888" d="M111.2960892,244.8640289c0.0092697,0.1675262,0.1933517,0.0847626,0.2877884,0.0283203
				c-0.0613327,0.0233307-0.0141602-0.0545349-0.0613327-0.059433
				C111.439682,244.8192596,111.3739624,244.8640289,111.2960892,244.8640289z"/>
			<path fill="#888888" d="M113.3936844,244.5358582c-0.0993195,0.1373138,0.1724091,0.1373138,0.2810059,0.0798798
				c0.0047913,0,0.0023956-0.0165558,0-0.0253296c0.0091782-0.0292206,0-0.0427856-0.0214386-0.0545502
				C113.5495453,244.4716339,113.4219055,244.4833069,113.3936844,244.5358582z"/>
			<path fill="#888888" d="M113.8280563,243.8269501c-0.0331039-0.0165558-0.0896454-0.0048828-0.1344223-0.0048828
				c0.0613327,0.0282135,0.0613327,0.1558533,0.1582642,0.1373138c-0.0048904-0.0165558-0.0165558-0.0311127-0.0165558-0.0642242
				C113.8280563,243.8766174,113.8470078,243.8416138,113.8280563,243.8269501z"/>
			<path fill="#888888" d="M110.705452,238.150528c0.1295319,0.0759888,0.217186,0.184082,0.2570724,0.2979584
				c0.061821,0.1509705-0.0491638,0.3467255,0.0521545,0.4976959c0.0189438,0.0642242,0.0827637,0.1089935,0.1085892,0.1422119
				c0.0637207,0.0729828-0.0024872,0.2074127,0.0189514,0.2998505c0.0569382,0.2006378,0.0710983,0.3847198,0.0969238,0.5765686
				c0.0778809-0.0165405,0.0778809,0.1207733,0.1772003,0.0875549c0,0.1178741,0.0564423,0.2075195,0.0730972,0.3233948
				c0.0331039,0.1294403,0.1869736,0.0632172,0.271637,0.1557617c0.1349182,0.1889648,0.2624588,0.3778381,0.4630966,0.5102692
				c0.0613251,0.039978,0.1538696,0.039978,0.1864777,0.0974274c0.0165482,0.0253296,0,0.0700989,0.0331039,0.0700989
				c0.2672501,0.0447693,0.6426926,0.1850739,0.5102615,0.5102692c0.0993271-0.072998,0.2220764-0.1275482,0.255188-0.2405243
				c0.0544434-0.2006378,0.0968246-0.4187317,0.0096741-0.6144714c-0.0520554-0.1013184-0.2010422-0.1538696-0.2317581-0.266861
				c-0.0258179-0.0827637,0-0.1587524,0.0023956-0.2219696c0.0073776-0.1158752-0.1557541-0.0759888-0.1839828-0.1295319
				c-0.0638123-0.140213-0.1158676-0.375946,0.1557693-0.3545074c0.0092697,0-0.04039-0.0496521-0.0262299-0.0993195
				c-0.092041,0-0.1768036,0.0165558-0.2644577,0c-0.0613251-0.0067749-0.0613251-0.0974274-0.0613251-0.1256409
				c-0.0282211-0.1489868,0.0496597-0.3349609-0.0827713-0.4391632c-0.1158676-0.071106-0.2643509-0.0925446-0.3803253-0.1724243
				c-0.0968323-0.0797729-0.1795959-0.1420898-0.2906876-0.2054138c-0.0681076-0.0447845-0.1888657,0.063324-0.2410202,0
				c-0.2239685-0.2503052-0.3827209-0.5433807-0.5901413-0.8267822c-0.0802689-0.0896454-0.2410202-0.0876465-0.3851166-0.0662079
				c-0.0403824,0.0097656-0.0189438,0.0545502-0.0282135,0.0778809c0.0184479,0,0.0423813,0,0.0564423,0.0097656
				C110.7147217,238.0677643,110.6840057,238.1271973,110.705452,238.150528z"/>
			<path fill="#888888" d="M109.3966293,238.6160126c-0.094429,0.1344299-0.0569382,0.3097382,0.0374908,0.3467255
				c0.1373138,0.0574341,0.3354568,0.0476685,0.5083694,0.0311127c0.0920486-0.0165558,0.1508789-0.1138763,0.2030334-0.2054138
				c0.092041-0.1422119,0.3330612-0.059433,0.5127563-0.122757c-0.0288162,0.111084,0.0515518,0.0993195,0.1128845,0.1460876
				c-0.0067825-0.1226501-0.0067825-0.2901917-0.0871582-0.3466339c-0.1630402-0.0974121-0.1723099-0.2386169-0.257576-0.3905945
				c-0.0189438-0.0515594-0.1109848,0.0263214-0.1109848,0.0526581c0.0189438,0.252182-0.1937561,0.2074127-0.3661728,0.2736206
				c-0.0067825,0.0165558,0.0097733,0.0643158-0.0067825,0.0827637c0,0.0097809-0.0263214,0.0097809-0.0545425,0
				c-0.0307159-0.0350952-0.0545425-0.0496521-0.0496597-0.1060944c-0.0871506,0-0.2103119,0-0.2454071,0.0564423
				C109.5432205,238.5215759,109.4531708,238.5381317,109.3966293,238.6160126z"/>
			<path fill="#888888" d="M106.0773697,233.1091156c-0.1533661-0.2902832-0.3919983-0.5551453-0.3281708-0.9261932
				c0.4391632,0.1558533,0.8340454,0.0808716,1.2708206-0.0583344c0.3262787-0.0896606,0.6992264,0.0662079,1.0157394-0.1373138
				c0.04039-0.0351105,0.0023956-0.1441956,0.0023956-0.2240753c-0.363678,0.1675262-0.6685181-0.3125153-0.9966965-0.1022186
				c-0.4274979,0.2697449-0.8880997,0.335968-1.3039322,0.4440613c-0.337944,0.0778809-1.214386,0.0195465-1.2542648,0.5200348
				c0.4673843,0.0048828,0.9874191,0.0398865,1.2776031,0.4606018
				C105.8037415,233.1373291,105.9687805,233.1091156,106.0773697,233.1091156z"/>
			<path fill="#888888" d="M107.5211105,235.2028198c0.1275406,0.2239685,0.3563919,0.2736359,0.5667038,0.3496094
				c0.0379944-0.1139679-0.0233383-0.1685181-0.092041-0.2298431
				C107.8467865,235.2028198,107.693428,235.1881561,107.5211105,235.2028198z"/>
			<path fill="#888888" d="M107.1948242,235.8990631c-0.0778809,0.0359955,0.0097733,0.1509705,0.0876541,0.2151947
				C107.2683182,236.0149384,107.3978577,235.8114014,107.1948242,235.8990631z"/>
			<path fill="#888888" d="M106.8524933,235.4813385c0.0209351,0.0067749,0.0638199,0.0067749,0.0847549,0
				c0.0097733-0.0048828,0-0.0312195,0-0.0545502c0-0.1509705-0.1533661-0.1938477-0.2809067-0.2074127
				c0,0.0301056-0.0116653,0.1032104,0.0116653,0.1109924C106.7439957,235.3673553,106.7649307,235.4267883,106.8524933,235.4813385
				z"/>
			<path fill="#888888" d="M108.1160355,237.0822296c0.0097733,0.0214386,0.0570374,0.0457764,0.080368,0.0195465
				c0.0307159-0.0312042,0.0521545-0.0730896,0.0307159-0.132431c0,0,0,0.0096741,0,0.0233459
				c-0.0283203-0.0496674,0.0354996-0.122757-0.0307159-0.1675415c-0.0233307-0.0096741-0.0613251-0.0184479-0.0705948,0
				C108.035759,236.9079285,108.1160355,236.992691,108.1160355,237.0822296z"/>
			<path fill="#888888" d="M108.5723495,237.1036682c-0.0141602,0.0692139,0,0.118866,0.0398865,0.1558685
				c0.0354996,0.0126648,0.0613251,0,0.073494-0.0234375c-0.0379944-0.0262299-0.0379944-0.0466766-0.0379944-0.0895538
				C108.6618958,237.047226,108.5864105,237.1465454,108.5723495,237.1036682z"/>
			<path fill="#888888" d="M108.3926544,237.444519c0.0214386,0.0682068,0.0851593-0.0243378,0.1037064-0.1071014
				c0-0.0019989,0.0072861-0.0136719,0.0097733-0.0204468c0.0116653,0.0087738,0.0233383,0.0184479,0.0331116,0.0282135
				c-0.0048904-0.0145569-0.0190506-0.0282135-0.0283279-0.0428772l0,0
				c-0.0642166-0.0797729-0.1820831-0.1440887-0.2482986-0.0662079
				C108.1896286,237.3237457,108.3478851,237.3237457,108.3926544,237.444519z"/>
			<path fill="#888888" d="M108.5581894,237.4941711c0.0447769,0.0282288-0.0618286,0.0087738-0.0312119,0.0535583
				c0.0852585,0.11586,0.2342377,0.175293,0.337944,0.1421967c0.0521622-0.0360107,0.1158829-0.1421967,0.0613327-0.1772003
				c-0.0846634-0.0545502-0.2054214-0.0185547-0.3140182-0.0185547
				C108.6029663,237.4941711,108.5791321,237.4941711,108.5581894,237.4941711z"/>
			<path fill="#888888" d="M109.219429,237.7863464c0.0589294-0.0331116,0.0048828-0.0778809,0-0.1129761
				c-0.0282211-0.0778809-0.0730972-0.1509705-0.1275406-0.1013184c-0.0521545,0.0283203-0.0896454,0.1509705-0.0141602,0.195755
				C109.1059494,237.7892456,109.1672745,237.8174591,109.219429,237.7863464z"/>
			<path fill="#888888" d="M109.4248505,238.1856232c0.0283203,0.0311127,0.111084-0.0302124,0.1465836-0.0584259
				c0.0214462,0,0.0092773-0.0526581,0.0092773-0.0827789c0.0331116,0.011673,0.0472641,0,0.0472641-0.0312042
				c0.0282288-0.0466766,0.014061-0.1080933-0.0472641-0.1295319c-0.0374908-0.0145569-0.0896454,0.051651-0.1368179,0.0117645
				c-0.0097733,0,0.0092773-0.0263214,0-0.0448761c-0.0423813-0.0331116-0.1042023-0.0613251-0.1349182-0.0282135
				c-0.0564423,0.0467682-0.0564423,0.1344147-0.0306168,0.1889648
				C109.3089752,238.0677643,109.3684082,238.1271973,109.4248505,238.1856232z"/>
			<path fill="#888888" d="M109.0513992,238.4933624c0.026329,0,0.0545502-0.0282288,0.059433-0.0545502
				c0.0165558-0.059433,0.0165558-0.1042023,0-0.1724091c-0.0048828-0.0398865-0.0428772-0.0398865-0.0710983-0.0214386
				c-0.0423813,0.0214386-0.0374908,0.0896454-0.092041,0.1013184
				C108.961853,238.4173737,108.9973526,238.4835815,109.0513992,238.4933624z"/>
			<path fill="#888888" d="M108.6735611,231.4768982c-0.0116653,0-0.0331039-0.0096741-0.0331039-0.0262146
				c0-0.003891,0.0214386-0.0165558,0.0331039-0.0234375c-0.0705948-0.075882-0.1533661-0.0214386-0.2361298-0.0379944
				C108.4919739,231.4768982,108.5723495,231.5500031,108.6735611,231.4768982z"/>
			<path fill="#888888" d="M113.43367,234.9378662c0.075386,0.071106,0.2410202-0.0145569,0.3212967,0.071106
				c0.0803757,0.0915375,0.1417007,0.240509,0.2810059,0.240509c0.0876541,0,0.1538696-0.0466614,0.165535-0.1255341
				c0.0233307-0.2308502-0.0687027-0.4977112-0.2931747-0.5999146c-0.2146988-0.063324-0.4391632-0.063324-0.6519623-0.0584412
				c-0.1392059,0-0.1392059,0.1606445-0.0802765,0.2239685C113.2446976,234.7704315,113.3367462,234.8503113,113.43367,234.9378662z
				"/>
			<path fill="#888888" d="M119.2234726,242.2532806c-0.1533661-0.1889648-0.1650314-0.3963928-0.2643509-0.5502472
				c-0.092041-0.144104-0.3190079-0.1606598-0.4372711-0.3300781c-0.0589294-0.0827637,0.0496597-0.2249603-0.0398865-0.2911835
				c-0.0521545-0.039978-0.1062012-0.0847626-0.1159668-0.1295319c-0.072998-0.1986389-0.1650467-0.3281708-0.3471298-0.4207153
				c0.0569458-0.2317505-0.1533737-0.3447266-0.3710632-0.4060516c-0.0091629-0.011673,0.0214539-0.0731049,0.0214539-0.0993195
				c-0.0092773-0.0896606-0.1202698-0.1158752-0.1962509-0.1422119c-0.0282288-0.0165558-0.0871582,0-0.0968323-0.0165558
				c-0.111084-0.1460876-0.2644577-0.2590637-0.3165131-0.384613c-0.0662079-0.2074127-0.2643509-0.3262787-0.4367676-0.4392548
				c-0.0638199-0.0331116-0.1183701-0.2103119-0.151474-0.2103119c-0.1202545,0-0.2857895,0.0097656-0.3023453-0.1275482
				c-0.0209427-0.2571716-0.2288589-0.4158173-0.4202194-0.5716858c-0.2790146-0.2006378-0.0331116-0.6310272-0.1299362-0.9445496
				c-0.0263214-0.1325226-0.1680222-0.1325226-0.2931747-0.1325226c-0.0447769,0-0.0895462-0.0398865-0.1134796-0.0875549
				c-0.10849-0.1938477-0.0233383-0.4110413-0.1508789-0.5901337c-0.1962433-0.2766266-0.4134293-0.4869385-0.6286316-0.7615662
				c-0.1226501-0.1363068-0.2999496-0.114975-0.4533157-0.1295319c-0.0447769-0.0067749-0.071106-0.0330963-0.1109924-0.0613251
				c-0.0569382-0.0350952-0.073494-0.1042023-0.1062012-0.1587524c-0.0875549-0.1558533-0.2765198-0.2239685-0.4347763-0.2970581
				c-0.2930756-0.1206665-0.607193-0.0593414-0.9168167-0.1022186c-0.2454147-0.0184479-0.5146561,0.0691071-0.6968384,0.2200775
				c-0.2146988,0.1606445-0.4653931,0.2454071-0.7391281,0.2950745c-0.1042023,0.0194397,0.0399933,0.1519775,0,0.2298584
				c-0.0613251,0.1032104-0.2103043,0.2141876-0.1489792,0.3135071c0.0307159,0.0243378-0.0545425,0.007782-0.0258255,0.0428772
				c0.0589294,0.059433,0.1626434,0.0136719,0.2454071,0.0136719c0.0969315,0.0145569,0.1325302,0.1187592,0.1864777,0.1655273
				c0.1207581,0.1256561,0.2576752,0.2464142,0.3286743,0.3992767c0.0283203,0.0593414-0.0827637,0.1704254-0.0282211,0.2268677
				c0.1509781,0.1558533,0.122757,0.2950745,0.122757,0.4840393c0,0.0778809,0.1630402,0.004776,0.200531,0.0311127
				c0.2220764,0.1158752,0.2649612,0.3992767,0.2035294,0.6232452c-0.0331039,0.1207581-0.0213394,0.2931671,0.0307159,0.3924866
				c0.1109924,0.2151947,0.1344223,0.526825,0.3374481,0.6874695c0.0452728-0.0681,0.0993195-0.1606445,0.1373138-0.1508789
				c0.1772079,0.0233459,0.1796951-0.1139679,0.2906876-0.1772919c0.3349533-0.2268677,0.6139679,0.2142944,0.7060089,0.4693756
				c0.092041,0.2531891,0,0.5794678,0.1134796,0.8297577c0.0875549,0.2454224,0.2434158,0.4440613,0.484436,0.5667114
				c0.0540466,0.0312042,0.065712,0.1791992,0.1153793,0.2882843c0.0238266,0.0613403,0.0876465,0.144104,0.1820908,0.0778809
				c0.0540466-0.0330963,0.0283127-0.1509705,0.1178665-0.1869659c0.073494-0.0253296,0.153862,0.0243225,0.1986389,0.0643158
				c0.214798,0.2667542,0.2668457,0.8170013,0.7065125,0.7838898c-0.0097733,0.0662231,0.0374908,0.1158752,0.0822678,0.132431
				c0.0901489,0.0282288,0.153862-0.0993195,0.2176895,0.0165558c0.0681992,0.0993195,0.1037064,0.2268524,0.1981354,0.2765198
				c0.1514816,0.0467682,0.3146133-0.0096741,0.4654922,0.0283203c0.0969315,0.0282288,0.1796951,0.1440887,0.2479019,0.2405243
				c0.0427856,0.0662079,0.0949326,0.1421967,0.1562653,0.2064209c0.2950668,0.2872925,0.4085464,0.7225647,0.7654419,0.9416504
				c0.1085968,0.0740814,0.2123032,0.2133026,0.3705597,0.1704254c0.0471649,0,0.014061-0.0710144,0.0637207-0.0797882
				c0.1465836-0.0165558,0.2317505-0.1403046,0.2931747-0.2298431c0.1085968-0.144104,0.271637-0.2785187,0.4629974-0.3661804
				c0.0024872-0.0087738,0-0.0633087,0.0024872-0.0700989c0.1294403-0.1071014,0.2950745-0.1353149,0.4177246-0.251297
				C119.3325729,242.4947968,119.27314,242.3078308,119.2234726,242.2532806z"/>
			<path fill="#888888" d="M113.5752716,241.592041c0.0379944,0.0048828,0.0663147,0.0194397,0.0945358,0.0311127
				c0.028717,0.0068817,0.0545425,0.0048828,0.0851593,0.0165558L113.5752716,241.592041z"/>
			<path fill="#888888" d="M113.3134079,242.3789215c0.0564423,0.0973358,0.1839828,0.1158752,0.2760239,0.1772003
				c0.1042023,0.0876617,0.1538696,0.2151947,0.2459106,0.2697449c0.184082,0.1032104,0.1134796-0.2084045,0.2006302-0.3126221
				c0.0331116-0.0184479,0.1299362,0.0165558,0.1538696-0.0184479c0.10849-0.1509705-0.0239334-0.3876038-0.1582565-0.5336914
				c-0.1134796-0.1061096-0.1987381-0.2746277-0.3617783-0.3379517c-0.0847626-0.0194397-0.1651382-0.0145569-0.214798,0.0798798
				c-0.0851593,0.1324158,0.0024948,0.3097229-0.0613251,0.444046
				C113.35569,242.2181854,113.2850876,242.299057,113.3134079,242.3789215z"/>
			<path fill="#888888" d="M114.3854904,243.0381775c-0.075386,0.2619629-0.0233383,0.5433655-0.0540466,0.8238831
				c-0.0213394,0.1401978-0.2341385,0.1109772-0.3212967,0.2317352c-0.0521545,0.0662231-0.0754852,0.184082-0.0613251,0.2697449
				c0.0306168,0.184082,0.2410202,0.1723175,0.3709564,0.2405243c0.3447266,0.1724091,0.6563492,0.4274902,0.8550949,0.7771149
				c0.0706024,0.1158752,0.1012115,0.2785187,0.2030258,0.3778381c0.1017151,0.1042023,0.2930756,0.1042023,0.3237839,0.2911835
				c0.014061,0.0729828,0.1460876,0.0993195,0.2054291,0.0564423c0.1791916-0.1459961,0.1582489-0.4275055,0.0331039-0.5813751
				c-0.0827637-0.0797729-0.1606445-0.188858-0.1606445-0.2785187c-0.0141602-0.3827209-0.1275406-0.7420044-0.3330688-1.0721741
				c-0.1300354-0.1820831-0.352005-0.2794189-0.4869232-0.4469452c-0.0165558-0.0379944-0.0613251-0.0993195-0.0282288-0.1460876
				c0.0447769-0.0895538,0.1417084-0.1509705,0.163147-0.2580719c0.0189438-0.195755-0.2030334-0.2687531-0.255188-0.4606018
				c0-0.0087738-0.0613251,0-0.0993118,0l0.1085892,0.0330963
				C114.664505,242.8180847,114.4327545,242.8540955,114.3854904,243.0381775z"/>
			<path fill="#888888" d="M116.4052124,244.9322357c-0.0306168-0.0993195,0-0.2268524-0.014061-0.3496094
				c-0.0165558-0.2103119-0.2430191-0.2434082-0.4178314-0.2434082c-0.0802689,0-0.1772003-0.0253296-0.1937485,0.064209
				c-0.0141602,0.0798798-0.0141602,0.1675262,0.0496521,0.2697449c0.3257904,0.3730469,0.2999649,0.9066467,0.441658,1.3410187
				c0.0471725,0.1772003,0.3520126,0.0360107,0.404068-0.1509705c0.0307159-0.0964203,0.0350952-0.2035217,0.0161514-0.2950745
				c-0.0448685-0.0974121-0.1368103-0.1636353-0.1602478-0.2717285
				C116.507019,245.1591034,116.426651,245.0646667,116.4052124,244.9322357z"/>
			<path fill="#888888" d="M115.8930511,243.7276306c-0.1441956,0.1139832,0.0613251,0.2317505,0.0209427,0.3895111
				c0.0262222,0,0.0403824,0,0.0593262,0c0.092041,0.0428772,0.092041-0.0701141,0.1129837-0.1148834
				c-0.1723099,0.0087738-0.1436005-0.1753082-0.1319275-0.2746277
				C115.9402161,243.7276306,115.9139938,243.713974,115.8930511,243.7276306z"/>
			<path fill="#888888" d="M115.8150635,243.3400269c0.0092773-0.0915527-0.0096664-0.1839905-0.1133804-0.2005463
				c-0.019043,0.144104-0.1607361,0.1089935-0.2386246,0.1839905c-0.0993195,0.0778809,0.0067825,0.2055206,0.1134796,0.2483063
				c0.0233383,0,0.0233383,0.0428772,0.0398941,0.0428772c0.1986313,0.0798645,0.3568878-0.0778809,0.276619-0.2746277
				C115.8930511,243.3283539,115.8477707,243.3400269,115.8150635,243.3400269z"/>
			<path fill="#888888" d="M115.1251144,242.6671143c0.1772995,0.1042023,0.0048828,0.2931824,0.1417007,0.3496246
				c0.0969238,0.0662079,0.2950668,0.1013031,0.3876114,0.0116577c0.0730896-0.0545502-0.0023956-0.1859741-0.1489868-0.1957397
				c-0.0589371-0.0067902-0.0545425-0.1138916-0.0423813-0.1888733c-0.0379944,0-0.0686035-0.0263214-0.0851593-0.0428772
				c-0.1417007-0.0964355,0.1202621-0.1704254,0.0422821-0.2930756c-0.0257263-0.0253296-0.0091782-0.0847626-0.0422821-0.0896454
				c-0.0521545-0.0262299-0.111084,0.0048828-0.1324234,0.0643158c-0.0448761,0.0535431,0.0354919,0.124649,0.0047836,0.1908569
				C115.212265,242.5561218,115.0521164,242.6174622,115.1251144,242.6671143z"/>
			<path fill="#888888" d="M115.025795,241.7906799c-0.0827713-0.0350037-0.2127075,0.0447693-0.2785263-0.0993195
				c-0.0072708-0.0165558-0.073494-0.0165558-0.0993118,0c-0.0214386,0.011673-0.0214386,0.0379944-0.0355072,0.0496674
				c-0.0472641,0.0662079-0.1018066,0.11586-0.0472641,0.1655273c0.0730896,0.0545502,0.0920486,0.1062012,0.132431,0.1675262
				c0.0496521,0.0925446,0.184082,0,0.2122955,0.0827637c0.0214386,0.0808716,0.0945358,0.1061096,0.151474,0.0662231
				c0.0686111-0.0311127,0.011673-0.1489868,0.0331116-0.2103119c-0.0423813,0.0282288-0.0214386-0.0779877-0.0545502-0.0283203
				C115.0613861,241.9163208,115.103775,241.8189087,115.025795,241.7906799z"/>
			<path fill="#888888" d="M105.0616302,248.2802277c0.0097733,0,0.0355988,0,0.0545425,0
				c0.0043869-0.0282288,0-0.0642242,0.0331116-0.1012268c0.0331039-0.04776-0.0189514-0.1158752-0.0520554-0.1490784
				c-0.0472641-0.0544434-0.1465836,0-0.1134796,0.1013184c0,0,0.0258255,0,0.0496597,0
				C105.0217361,248.1790009,105.0217361,248.2256775,105.0616302,248.2802277z"/>
			<path fill="#888888" d="M116.065361,246.5040131c-0.1723099-0.0691986-0.363678,0.0214386-0.5244141,0.1197662
				c-0.3403473,0.1753082-0.3827286,0.6310272-0.5979233,0.8744354c-0.1460876,0.1656342-0.3165054,0.2484131-0.5195389,0.2366486
				c-0.0257263,0-0.1037064-0.0331116-0.1133804-0.0993347c0-0.0993195-0.0355988-0.2015228,0.04039-0.2814026
				c0.0681992-0.0545502,0.1460876-0.0993195,0.1932526-0.1791992c0.0945282-0.1518707,0.0214386-0.3310699-0.014061-0.4722595
				c-0.0827713-0.3106384-0.4060593-0.4918213-0.7016296-0.4421692c-0.297554,0.0584412-0.4723663,0.3681641-0.6379013,0.6379089
				c0,0-0.0589371,0.0067749-0.0589371,0c-0.1133804-0.1393127-0.2619629-0.2122955-0.3398438-0.3593903
				c-0.0189438-0.0135651-0.0189438-0.0466614,0-0.0778809c0.1178741,0.0643158,0.2264633,0.2415314,0.3516159,0.1675262
				c0.1206589-0.0700989,0.0145569-0.2337341-0.07798-0.2668457c-0.1037064-0.0350952-0.2030334-0.1393127-0.3354568-0.1256409
				c-0.092041,0.007782-0.2030334-0.1295319-0.2337418-0.2405243c-0.0379944-0.1655426-0.0520554-0.3827209-0.1961517-0.4275055
				c-0.1534653-0.0643158-0.2950668-0.0710907-0.4441528-0.1772003c-0.0681076-0.0350952-0.1533661,0.0282288-0.2195816,0.0233459
				c0.0472717-0.0467682,0.0072861-0.1577606,0.0307159-0.1577606c0.1844788-0.0165558,0.4109421-0.0165558,0.2999573-0.2249756
				c-0.0496597-0.0993195-0.1485825-0.1986389-0.2644577-0.1158752c-0.0354996,0.0165558-0.1042099,0.0165558-0.1182632,0.0662231
				c-0.0234375,0.0331116-0.0307159,0.0827637-0.0516586,0.1139832c-0.0331039,0.0778809,0.0565414,0.2239685,0,0.271637
				c-0.1158752,0.0779724-0.2837982,0.0700989-0.4274979,0.1724091c-0.0165558,0.0067749-0.0710983,0.0067749-0.0949326,0
				c-0.125145-0.0428772-0.3208923-0.184082-0.3803253-0.1207581c-0.0871582,0.1060944-0.1084976,0.2405243-0.212204,0.2950592
				c-0.092041,0.0447845-0.2104111,0.0525665-0.3073349,0.0973358c-0.1674347,0.0662079-0.0709991,0.2805023,0,0.4372711
				c0.0355988,0.0535431,0.0117645,0.1431885-0.0471649,0.1859741c-0.1202698,0.0691986-0.1465912-0.0827637-0.1748123-0.1412048
				c-0.0496597-0.1518707-0.0944366-0.3212891-0.0944366-0.4820404c-0.0141602-0.1655426,0.1961517-0.271637,0.2454147-0.4303894
				c0.0354996-0.0964355,0.0637207-0.2074127-0.0043869-0.3165131c-0.0754929-0.1158752-0.1962509-0.1723175-0.3097305-0.1373138
				c-0.2999573,0.0808716-0.3851166,0.5979156-0.6850739,0.4635925c-0.1533661-0.059433-0.2882919-0.2171783-0.4533234-0.2950592
				c-0.0944366-0.0643311-0.1844788-0.1305389-0.2906799-0.0496674c-0.2103119,0.1577606-0.4678879,0.2501984-0.6899643,0.3582916
				c-0.198143,0.0925446-0.3729477,0.3262787-0.4888229,0.5434723c-0.125145,0.2745209-0.6261368,0.4275055-0.791275,0.1022186
				c-0.0802689-0.1587524-0.2482986-0.2834015-0.425499-0.2795258c-0.1626434,0.0263367-0.2195816,0.2386322-0.3987808,0.2795258
				c-0.1300354,0.0233307-0.2060165-0.0214386-0.2551804-0.1207581c-0.0072784-0.0263367-0.0072784-0.072998,0-0.0827789
				c0.2430191-0.2006378,0.4937134-0.3496094,0.7960663-0.4654846c0.1460876-0.0496674,0.1651306-0.2074127,0.111084-0.3496246
				c-0.0024948-0.0233307-0.0121689-0.0662079-0.0331116-0.0993195c-0.0141602-0.0749817-0.0263214-0.1908569-0.0521545-0.1908569
				c-0.3685608,0.0282135-0.6777878,0.2901764-0.8622665,0.6261444c-0.0234375,0.0467682-0.0447769,0.1158752-0.0754929,0.1158752
				c-0.2337418-0.019455-0.4722672,0.1129761-0.6685181-0.019455c-0.0423813-0.0263214-0.0993195-0.2950745-0.1275406-0.2668457
				c-0.0945358,0.0993195-0.151474,0.2220764-0.2386322,0.3281708c-0.0238266,0.0545502-0.0876465,0.0808716-0.1226501,0.1344299
				c-0.1325226,0.2035217,0.1226501,0.4138336,0.0637207,0.5764771c-0.0403824,0.0827637-0.2550812,0.0827637-0.3948898,0.1158752
				c-0.0706024,0.0234375-0.0706024,0.1403046-0.0637207,0.231842c0.0096741,0.072998,0.0900497,0.0642242,0.1373138,0.0895538
				c0.1368179,0.1353149,0.146492,0.3661652,0.3212967,0.4469452c0.2123032,0.0964203,0.4698792,0.0302124,0.7250595,0.0964203
				c0.1630402,0.0379944,0.2881927,0.1519775,0.3587875,0.319397c0.0404892,0.0896454,0.1748123,0.136322,0.1820908,0.2766266
				c0.0073776,0.0466766,0.0687027,0.0915375,0.1349258,0.124649c0.0754852,0.0262299,0.1748047-0.051651,0.2477951-0.0185547
				c0.1085968,0.0302277,0.0638275,0.1724243,0.092041,0.2600708c0.0521545,0.1674347-0.0374908,0.3495178,0.1393127,0.5141602
				c0.0662079,0.0574341-0.0682144,0.2298431-0.1436996,0.3261719c-0.0331039,0.0331116-0.1420975,0.0331116-0.153862,0.0857697
				c-0.0422821,0.1479797-0.0067825,0.2852936,0.0662079,0.4011688c0.0545502,0.0682068,0.1417007,0,0.1631393,0.0467682
				c0.130043,0.1636353,0.1840897,0.3457336,0.2926788,0.4937134c0.0471725,0.0574341,0.0993195,0.1305237,0.1630402,0.1538696
				c-0.0778809,0.0165558-0.1012115,0.1139679-0.0778809,0.1489716c0.0472717,0.063324,0.1558685,0.1042023,0.2128067,0.0447845
				c0.0895462-0.0593414,0.18647-0.0797882,0.2736282-0.1606598c0.0521469-0.0564423,0.1397095-0.0350037,0.1937561-0.0895386
				c0.0614243,0.0564423,0.1134796,0.1839752,0.0710983,0.2385254c-0.1299362,0.1276398-0.363678,0.039978-0.515152,0.1393127
				c-0.1037064,0.0476532-0.2054214,0.0214386-0.2594681,0.1042023c-0.0521545,0.0515594,0,0.1723175,0.092041,0.1839752
				c0.3305664,0.071106,0.0729904,0.5482635-0.0876541,0.7917786c-0.0374985,0.0515594,0,0.1412048-0.019043,0.2424164
				c-0.011673,0.0428772-0.072998,0.0691986-0.1109924,0.0691986c-0.3165054,0.0282288-0.6397934-0.0827637-0.9280853,0.0214386
				c-0.0993195,0.0282288-0.1489868,0.1674347-0.1961517,0.2833099c0.0306168,0,0.0471649,0,0.0564423,0
				c-0.0847626,0.0087738-0.0847626,0.1013184-0.1037064,0.1490784c-0.0165558,0.0564423-0.0092773,0.1645355-0.0447769,0.2170868
				c-0.2790146,0.3067474-0.3189011,0.6963501-0.36866,1.0537415c-0.0091705,0.1080933,0.125145,0.1791992,0.203125,0.1791992
				c0.0778809,0,0.1888733-0.0896454,0.257576-0.0896454c0.1440964,0.0185394,0.1084976,0.2405243,0.1630402,0.3350525
				c0.0614319,0.1109924,0.2741318,0.1304321,0.2975616-0.0165558c0.0355072-0.124649,0.0355072-0.2717285,0.0754929-0.3827209
				c0.0452728-0.1529694-0.1178741-0.2571716-0.1485825-0.3992767c-0.0379944-0.1344299,0.0307083-0.2522888,0.1085968-0.3418427
				c0.0521469-0.0525513,0.1368103,0.011673,0.1699219,0.0895538c0.0307083,0.0798645,0.0307083,0.1860809,0.0614243,0.2785187
				c0.0189438,0.0964203-0.0496597,0.2122955,0.0047836,0.2815094c0.0545502,0.0662079,0.0876541,0.1557617,0.0638275,0.2356262
				c-0.0092773,0.0428772-0.0638275,0.0778809-0.092041,0.1305389c-0.0379944,0.1080933,0.0282135,0.2550812-0.0613327,0.2950592
				c-0.0944366,0.072998-0.0827637,0.2054291-0.1937561,0.2151947c-0.2527847,0.0165558-0.5600204-0.118866-0.4772568-0.4021606
				c-0.1017151-0.0087738-0.2079163-0.0087738-0.2526855,0.0807648c-0.0545502,0.1129913,0,0.2931824-0.0662155,0.3846283
				c-0.0944366,0.1159668-0.1557617,0.2367249-0.2599716,0.3544922c-0.0355988,0.0263367,0.0496597,0.0447845,0.0165558,0.0827789
				c-0.1344223,0.1577454-0.2906799,0.2200775-0.4558182,0.3428345c-0.0096741,0-0.0165558,0-0.0165558,0.0301056
				c-0.10849,0.071106-0.2906799-0.0447693-0.3329544,0.0857697c-0.0614319,0.1344147,0.1343155,0.2258606,0.198143,0.3631744
				c0.0379868,0.0925446,0.0141525,0.2006378-0.1134872,0.2171936c-0.1839828,0.0447693-0.3447266,0.0194397-0.5384827-0.0087891
				c0,0.0535583-0.0496597,0.0467834-0.0496597,0.063324c-0.0331039,0.1626587,0,0.2950745-0.1251526,0.4391785
				c-0.080368,0.104187,0.04039,0.231842,0.1109924,0.319397c0.080368,0.1080933,0.1134796,0.2571716,0.2151947,0.2833862
				c0.0803757,0.0214539,0.1485825,0.0915527,0.2220764,0.0827942c0.1557617-0.0408936,0.2668457-0.0993347,0.3281708-0.2667542
				c0.0238342-0.0994263,0.1913681,0.0165405,0.3023529-0.0195618c0.0263214-0.0087585,0.0827637-0.0282288,0.1042023-0.0447693
				c0.0847626-0.0993347-0.0214386-0.240509,0.0282211-0.2999573c0.1675339-0.1986389,0.3588943-0.3592834,0.5833588-0.503479
				c0.073494-0.0613251,0.1864777-0.124649,0.2974625-0.0866547c0.0852661,0.0253296,0.1587524,0.0798798,0.2507935,0.114975
				c0.0847626,0.0427856,0.1557693,0.1022034,0.2410278,0.151886c0.0185471,0.0185242,0.0871506,0.0418701,0.1275406,0.0613098
				c0.1485825,0.063324,0.2386322,0.247406,0.401268,0.3398438c0.0471725,0.0234375,0.0121689-0.0632324,0.0618286-0.0282288
				c0.0043869-0.1489563-0.026329-0.2930603-0.0969315-0.3807068c-0.0969238-0.144104-0.257576-0.2171936-0.3661652-0.3330688
				c-0.04039-0.0351105-0.04039-0.1392059,0.0209427-0.2006378c0.0121613-0.0282288,0.0662079-0.0282288,0.0687027,0
				c0.0871582,0.0779724,0.1748047,0.0779724,0.2643585,0.122757c0.1796951,0.0778809,0.1465836,0.3476257,0.3213959,0.4372559
				c0.092041,0.0496521,0.1417007,0.1869812,0.2526855,0.2054443c0.1300354,0.0447693,0.3403473,0,0.4133377-0.1557922
				c0.0570374-0.0945129-0.0515518-0.1490784-0.1177673-0.2103882c-0.1300354-0.0993195,0.0662155-0.144104,0.1299362-0.2219849
				c0.1129837-0.1372986,0-0.2551727-0.0121689-0.3876038c-0.014061-0.0535431,0.0239334-0.0866547,0.0570374-0.1129761
				c0,0,0.0091782-0.0165558,0.0257339-0.0263367c0.0754852-0.1625366,0.0073776-0.3398438,0.0687027-0.4985962
				c0.0233383-0.0349884,0.0662155-0.0301056,0.0662155-0.0184479c0.0472641,0.0778809,0.1368179,0.1344299,0.217186,0.1061096
				c0.132431-0.0331116,0.2361374-0.0993195,0.3281784-0.2170868c0.1133804-0.1489868,0.3544006-0.0662231,0.4133377,0.075882
				c0.026329,0.1080933-0.0091782,0.2570801-0.0944366,0.2854004c-0.2857971,0.0427704-0.5146484,0.1489716-0.7274475,0.2930756
				c-0.0282288,0.0263214-0.0662155,0.0447693-0.0827713,0.0798645c-0.1134796,0.0827789-0.1582565,0.1655426-0.0969238,0.3427429
				c0.0121613,0.0662079-0.0754929,0.1373138-0.1392136,0.2006378c0.1085968,0.0359955,0.1085968,0.1704254,0.2079163,0.1918488
				c0.1796951,0.0419006,0.3447266,0.0496826,0.4722748-0.072998c0.0307083-0.04776,0.0662079-0.1441803,0.0472641-0.226944
				c0.1158752-0.0145721,0.1937561-0.1256561,0.3189011-0.1518707c0.2507935-0.0399933,0.3948898,0.2346344,0.3286743,0.4518127
				c-0.0141602,0.0419006-0.0778809,0.0419006-0.0993195,0.0564575c-0.1300354,0.2055054-0.2293549,0.4061584-0.4323807,0.4938049
				c-0.3116226,0.1586609-0.6919556,0.1226501-0.9684753,0.2832947c-0.106102,0.071106-0.1393051,0.2570801-0.2974625,0.3028564
				c-0.1373138,0.0350952-0.3121185,0.1149597-0.4538269,0c0,0.0087585,0,0.0165405,0,0.0302124
				c0,0.1042175-0.3237839,0.0331116-0.4796448-0.0302124c-0.0515594-0.0194397-0.0209427-0.1733093-0.0871582-0.2317505
				c-0.0545425-0.0360107-0.1606445,0.0165405-0.1844788-0.0447693c-0.0331116-0.0331116,0-0.1139832-0.0399857-0.1226501
				c-0.3685684-0.0643311-0.710907,0.0496521-1.0867462,0.008667c-0.0993195-0.008667-0.0896454,0.1227417-0.1724167,0.1850891
				c-0.0686035,0.0321045-0.134819,0.0982971-0.2054214,0.127533c-0.1489792,0.0749817-0.3097229,0.1811829-0.4889221,0.1149597
				c-0.1562576,0.0496826-0.300354,0.0710144-0.4420547,0.0973511c-0.2337418,0.0447693-0.3661728,0.240509-0.5575333,0.3729248
				c-0.1484833,0.0993347-0.3209,0.1178894-0.4864273,0.1091003c-0.0472717,0-0.0214462,0.0778809-0.0638275,0.0778809
				c-0.2526855,0.063324-0.4820404,0.3827209-0.6261368,0.6563721c-0.0423813,0.0730896,0.0121689,0.1791992-0.0331039,0.2434998
				c-0.1319275,0.2054138-0.2006302,0.4089355-0.3827209,0.5784607c-0.0184479,0.0194702-0.0184479,0.072998-0.0116653,0.1061096
				c0.2030258,0.2795105,0.444046,0.4654846,0.6495667,0.7518005c0.0496597,0.0778809,0.1513748,0.0778809,0.1820908,0.1509705
				c0.0802765,0.1791992,0.1913605,0.3398438,0.2857971,0.5082703c0.1324234,0.2386169,0.47715,0.3330688,0.7747192,0.2386169
				c0.10849-0.0312195,0.2361374,0.072998,0.3354492,0.0944519c0.3379517,0.0302124,0.6967392,0.111084,1.0137482-0.0593567
				c0.4722748,0.1459961,0.9635925-0.0594177,1.393486,0.1459961c0.0852585,0.0244446,0.0852585,0.1802063,0.1465836,0.2843933
				c0.0993195,0.1859741,0.214798,0.3749695,0.3943863,0.5102844c0.1509781,0.1062012,0.3661728,0.1763,0.5765839,0.1957397
				c0.0588303,0,0.0681076,0.1489868,0.1202545,0.2102966c0.0613327,0.079895,0.0331116,0.2055359,0.1084976,0.2668457
				c0.1042099,0.0993347,0.1938553,0.1704407,0.1869736,0.3136292c0,0.1704102-0.2079086,0.319397-0.0827637,0.5433655
				c0.0307159,0.071106-0.014061,0.1869812,0.0209427,0.2317505c0.2697372,0.2668457,0.5225296,0.5171509,0.8482056,0.758667
				c0.0307159,0.0282288,0.0901489,0.0681152,0.0638275,0.1343384c0.125145,0.0350952,0.1417007,0.1607361,0.2244644,0.2288513
				c0.0637207,0.0808716,0.0282211,0.2055054,0.092041,0.2862854c0.1109924,0.1324158,0.2317505,0.2600708,0.3592911,0.375946
				c0.1650314,0.1508789,0.3943939,0.1148682,0.5926361,0.1577454c0.0452652,0.0311279,0.0993118,0.0662231,0.1562576,0.0827637
				c0.1864777,0.0594482,0.3895035,0.0778809,0.5526428-0.0467529c0.092041-0.0788879,0.1748123-0.2219849,0.2643585-0.2765198
				c0.1417007-0.1158752,0.3593903-0.1062012,0.5531464-0.1422119c0.0374908-0.0067749,0.094429-0.0281982,0.1202545-0.0778809
				c0.0238342-0.111084,0.1251526-0.1704102,0.1183701-0.2785034c0.1440887-0.006897,0.2550812-0.0808716,0.3729477-0.1422119
				c0.2361374-0.1227417,0.4158325-0.3612671,0.6378098-0.5521545c0.2220688-0.2084045,0.59552-0.1158752,0.7157822-0.3496094
				c0.1207581-0.2298584-0.0471649-0.5433655,0.0589371-0.8102112c0.061821-0.1236572,0.1397018-0.2717285,0.151474-0.4090576
				c0.0189438-0.2317505,0.0282211-0.4702759,0.0116653-0.7011108c-0.0116653-0.1353149-0.1509705-0.271637-0.1344223-0.4041748
				c0.0092697-0.0973206,0.1768036-0.0973206,0.2123032-0.1771851c0.0827713-0.1888733,0.1606445-0.3856201,0.257576-0.5628357
				c0.0165482-0.0350952,0.0852585-0.0516357,0.1417007-0.0896301c0.0851593-0.0613403,0.0116653-0.1577759,0.0282211-0.2473145
				c-0.0706024-0.0214539-0.1037064-0.0993347-0.1344223-0.1441956c-0.1986389-0.2814026-0.3826218-0.5531311-0.7108002-0.6874695
				c-0.0803757-0.0243225-0.0876541-0.1109924-0.1256485-0.1773071c-0.0307159-0.0262146,0.0121689-0.1138611-0.0185471-0.1440735
				c-0.0876541-0.0496826-0.0545502-0.1324463-0.0758896-0.1937561h0.0778885c-0.0019989-0.0029907,0-0.006897,0-0.006897
				c-0.032608,0-0.0447769-0.0292053-0.0447769-0.0378723c0.073494-0.1967468,0.1844788-0.3739624,0.332962-0.5015869
				c0.0428848-0.0419006,0.1563644-0.0419006,0.1704178-0.0944519c0.0399933-0.1675415,0.0307159-0.3398438-0.0496597-0.4810486
				c-0.1207581-0.2055054-0.014061-0.4109497-0.0471649-0.6047974c-0.0307083-0.3875122-0.0307083-0.7401123-0.2079163-1.0896301
				c-0.0379944-0.1080933-0.1373138-0.1889648-0.2741318-0.1509705c-0.0662079,0.0097656-0.0589294,0.0973206-0.0969238,0.1509705
				c-0.0472641,0.0544434-0.0564346,0.1255493-0.0803757,0.2219849c-0.0540466,0.127533-0.22686,0.1685181-0.2716293,0.3028259
				c-0.0234375,0.0827942-0.0447769,0.1607666-0.0803757,0.21521c-0.0613327,0.063324-0.1178665,0.1509705-0.2006378,0.1675415
				c-0.1392059,0.0467529-0.271637,0.0798645-0.4040604,0.1061707c-0.1417007,0.0301208-0.2975693,0.0301208-0.4509277-0.0146484
				c-0.8058395-0.2239685-1.4952927-0.5355835-2.3035202-0.7576599c-0.0092773,0-0.0092773-0.0544434,0-0.0642395
				c0.1250458-0.0632935,0.259964,0.0282288,0.392395-0.0067749c0.092041-0.0165405-0.0189514-0.1441956,0.0282211-0.1441956
				c0.1675262,0.0400085,0.3048401,0.1509705,0.4698792,0.21521c0.3355484,0.1159668,0.6666183,0.1490784,1.0230179,0.2220764
				c0.2765198,0.0613098,0.4678802,0.2570801,0.7298431,0.3232727c0.224472,0.0682068,0.3710556-0.1011963,0.5434723-0.1704102
				c0.0091705,0-0.0048828-0.0700989,0.0091705-0.0915527c0.0784836-0.1440735,0.2200851-0.2200623,0.2790146-0.3544006
				c0.0399933-0.0964355-0.0214386-0.2483826,0.0399933-0.359375c0.0311127-0.0516663,0.1207581-0.1032104,0.1420975-0.1655273
				c0.0448761-0.1724243,0.0185471-0.3496246,0.0185471-0.5190582c0.0993195,0.0087891,0.1748123-0.0993042,0.1465912-0.1440887
				c-0.0234299-0.0263214-0.0307159-0.0691986-0.0472717-0.0945282c0-0.0993195,0.0165558-0.2054291,0.0379944-0.3116302
				c0.0515594-0.2531891-0.0214386-0.5014801-0.125145-0.715683c-0.0520554-0.1139832-0.2035294-0.1441956-0.3237915-0.1139832
				c-0.0379944,0.0233307-0.0521469,0.0895538-0.0895462,0.1139832c-0.1232529,0.0086823-0.2269592,0.0632172-0.3024521,0.124649
				c-0.1042023,0.0827637-0.0993195,0.259964-0.1869736,0.332962c-0.1533661,0.1276398-0.3023453,0.2619629-0.5029831,0.3379517
				c-0.1275406,0.0613251-0.3140182-0.011673-0.3403397-0.1178741c-0.1226578-0.3281708,0.3237915-0.2697449,0.5482559-0.3281708
				c0.0307159-0.021347,0.0827637-0.075882,0.1085968-0.1187744c0.0613251-0.1158752,0.0876465-0.2834015,0.2127991-0.3447266
				c0.0827713-0.0302124,0.1772003-0.0302124,0.2594681-0.0185394c0.0803757,0.0185394,0.1417007-0.0944366,0.2269592-0.1421051
				c0.0662155-0.0302124,0.0613327-0.1607513,0.0876541-0.231842c0.0398941-0.1343231,0.1888733-0.2054291,0.2502975-0.3204041
				c0.1392059-0.2511902,0.1392059-0.6261444,0.3403473-0.8227844c0.1368103-0.1062012,0.065712,0.1800995,0.1177673,0.2414246
				c0.0852585,0.1178589,0.3237839,0.1062012,0.4041595,0.0185394c0.0706024-0.0710907-0.0072784-0.2502899,0.1202621-0.3213959
				c0.0569382-0.0116577,0.122757-0.0116577,0.1699219,0c0.0949326,0.0614319,0.2079163,0.1685333,0.3072357,0.1091003
				c0.0687027-0.0476685,0.1417007-0.1470947,0.2151947-0.1704254c0.1154709-0.0379944,0.2479019,0,0.3661652-0.051651
				c0.2901917-0.1343231,0.897377,0.051651,0.8642731-0.2287598c-0.0515594-0.4538269-0.4202194-0.8132172-0.819397-1.0235138
				c-0.3190002-0.1509857-0.1987381-0.5979156-0.4845352-0.8482208c-0.072998-0.051651-0.0354996-0.1675262-0.0969238-0.2386322
				c-0.0209427-0.0233307-0.0613327-0.0583344-0.106102-0.0797729c-0.0423813-0.0330963-0.0895538-0.0730896-0.0895538-0.0876465
				c0.0471725-0.235733-0.0663147-0.4587097,0.0588379-0.6544647c0.0638199-0.0944366,0.2055206-0.1411896,0.2882843-0.2102966
				c0.1013184-0.0827789,0.2858047-0.1461029,0.2858047-0.2805176c0-0.1849823-0.0189514-0.3856201,0.0141525-0.5764771
				c0.0165558-0.0642242,0.1300354-0.1158752,0.1962509-0.1158752c0.332962-0.0067749,0.6918564,0.0827637,0.9990845-0.1207581
				c0.0778885-0.0681152,0.0871582-0.1675262,0.1368179-0.2288513c0.2386322-0.3496246,0.6023102-0.6212616,0.5882492-1.0750732
				c-0.0068817-0.0798798,0.1207504-0.1013184,0.1513672-0.1986542
				C116.0863037,246.5838928,116.0863037,246.5040131,116.065361,246.5040131z M109.6420364,254.1270599
				c0,0.0253296,0.0141678,0.068222-0.014061,0.0778809c-0.0565414,0.0662231-0.1748047,0.0283203-0.203125-0.0593262
				c-0.0422821-0.0896454-0.0851593-0.1889648-0.1723175-0.2239685c-0.0852585-0.0166473-0.1606445-0.0078735-0.2030258,0.0797729
				c-0.0876541-0.0632172-0.1748123-0.0165558-0.2551804-0.0330963c0.0282211-0.136322-0.1085968-0.1275482-0.1820908-0.2171021
				c-0.0852585-0.0798645-0.0540466-0.2406158,0.073494-0.2834015c0.0964279-0.0447693,0.1791916,0.0350037,0.2006378,0.144104
				c-0.011673-0.0185547-0.0214462-0.0185547-0.0258255-0.0398865c0,0.0398865-0.0189514,0.0662079,0,0.0915375
				c0.0871506,0.0827637,0.1889648-0.0253296,0.2857895,0.0447693c0.1110916,0.0662231,0.2619629-0.0369873,0.3896027,0.0379944
				c0.0072861,0-0.0141525,0.0613251,0.0306168,0.0613251c0.1417007,0.0243378,0.1913605,0.1489868,0.1582565,0.255188
				C109.7155304,254.0890808,109.6916962,254.1387329,109.6420364,254.1270599z"/>
			<g>
				<path fill="#888888" d="M96.5928574,278.6712952c1.8142014-2.6858521,7.3041458-5.5654297,12.6855011-5.5654297
					c5.409584,0,11.2539368,3.125,13.5667343,1.4714661c0,0-2.3624573,2.0411377-7.1293488,2.0411377
					c-4.7716675,0-6.588356-2.4053345-9.9003372-2.4053345c-3.3143692,0-6.8221054,2.6838684-8.2823944,4.9373169
					L96.5928574,278.6712952z"/>
				<path fill="#888888" d="M113.6225357,272.7153625c0,0,1.578064-0.9426575,2.398056-2.6760559
					c0.8384399-1.743103,3.0022507-4.500061,5.1827164-6.1963806c0,0-2.452095,7.7360229-4.9748001,8.0817566
					c0,0-0.3992844,0.2405396,0.3116226,0.1226501c0.7157822-0.1226501,3.9425049-1.3088074,5.093071-1.5074463
					c1.1364975-0.1937561,3.9381104-0.8267822,4.689003-1.5756836c0.6354141-0.631012,1.0634079-0.5433655,1.0634079-0.5433655
					s-3.1138458,5.1972961-8.7147827,5.1972961C118.6708298,273.6181335,115.9139938,273.3843689,113.6225357,272.7153625z"/>
				<path fill="#888888" d="M120.2464981,270.0393066c0,0,0.5881424-0.9026794,0.7089081-2.4550171
					c0.1227493-1.534668,1.0672989-5.0784912,3.7560272-8.9474182c0,0,0.3919983,6.1156006-2.6556244,9.8647461
					c0,0-0.1839828,0.5453796,0.2079163,0.1460876c0.3968811-0.3943787,2.3152847-2.7091675,6.4705887-5.5205688
					c0,0,2.1565247-1.774292,2.2796783-2.3595581C131.0139923,260.7675781,129.3225555,269.4462585,120.2464981,270.0393066z"/>
				<path fill="#888888" d="M125.5050964,264.2324219c0,0,0.2313538-0.9796448,0.2313538-1.8093872
					c0-0.8335571-0.3564911-3.6712952-0.3564911-4.9372253c0-1.2660217,0.1251373-3.6235962,1.100502-5.2225952
					c0,0,0,1.4081421,0.3145142,2.043045c0.3189011,0.6212616,0.6728973,3.144455,0.6728973,3.4560699
					c0,0.3145142-0.0822601,2.4501038-0.6330109,3.5905151c0,0,0.3992767-0.2317505,0.8340454-1.0556335
					c0.4323807-0.8413391,1.492897-2.3722229,3.1182327-3.987793c1.6131592-1.6155396,1.9651642-3.1113281,1.9651642-3.1113281
					s0.3968964,2.8347168-1.6934204,5.818512c-2.0933228,3.0169067-2.9575958,2.4901123-4.101265,3.7180481
					C126.9576187,262.7346497,125.6511917,264.3200684,125.5050964,264.2324219z"/>
				<path fill="#888888" d="M128.7625275,257.4147034c0,0-0.0686035-1.7382965-0.3827057-2.2884521
					c-0.3305817-0.5648041-2.2061996-3.9781036-1.816597-8.3553772c0,0,0.3120193-0.2785187,0.9046478,1.4197998
					c0.5813675,1.6983185,1.4247055,2.2037048,1.6939316,3.905014c0.2857971,1.6837616,0.2857971,2.3975525,0.2857971,2.3975525
					s0.1889801,0.2356415,0.1889801,0.0418701c0-0.2055206,0.2006226-2.4822998,1.1505585-4.5682373
					c0.9402466-2.0878296,2.1994171-4.0637665,2.0859222-5.4504547c0,0,0.5526581,0.0447693,0.4654999,2.2923431
					C133.2674561,249.0622253,132.671936,252.9672241,128.7625275,257.4147034z"/>
				<path fill="#888888" d="M129.8021088,250.5103455c0,0-0.6806793-1.5659943-1.1529541-2.0908203
					c-0.4723663-0.5005951-3.7512512-5.2800446-4.0179901-7.4536285c0,0,0.2667389-0.1460876,0.5857468,0.3972931
					c0.3189011,0.5619202,1.896965,2.1287994,2.1687012,2.3693237c0.2832947,0.2405243,1.9369431,2.0148315,2.0927048,3.9030151
					c0,0,0.1582642,0.2006378-0.1557617-2.9584656c-0.3121185-3.1512299,1.0298004-5.1942902-0.0754852-7.4127502
					c0,0,1.5400696,0.2386322,2.3595581,6.708725c0,0-0.0350952,2.2874603-1.2187653,5.0891876
					C130.3878632,249.0622253,129.9910736,250.5103455,129.8021088,250.5103455z"/>
				<path fill="#888888" d="M128.6116638,243.4208984c0,0-1.2260513-1.2640533-2.2135773-1.854187
					c-0.9781418-0.6008148-4.0539932-3.6313782-4.606636-6.0007172c0,0,0.1986389-0.2619629,1.1812744,1.02742
					c0.7512817,0.9922943,1.5307922,0.5083618,3.7866516,3.3548584c0,0,0.3165054,0.634903,0.474762,0.583252
					c0.151474-0.0263214-0.0827713-0.6612396-0.0827713-0.6612396s-0.4391632-1.7694244-0.4771576-2.4121094
					c-0.0331116-0.6330261-0.9377594-3.9751129-1.2542648-4.412384c0,0,3.0309677,1.7314301,3.4726334,6.6209717
					C128.8925781,239.6667633,128.7625275,243.2173615,128.6116638,243.4208984z"/>
				<path fill="#888888" d="M126.0056915,238.2070618c0,0,0.2054214-4.2633972-5.4144592-6.4302063
					c0,0,1.9466171,3.9897766,3.4064102,4.935318C125.4554443,237.6635895,126.0056915,238.2070618,126.0056915,238.2070618z"/>
			</g>
		</g>
		<g>
			<path fill="#888888" d="M111.6549759,278.6712952c-1.8166885-2.6858521-7.3066406-5.5654297-12.6971664-5.5654297
				c-5.3955231,0-11.2447662,3.125-13.5668259,1.4714661c0,0,2.3649445,2.0411377,7.1433945,2.0411377
				c4.7649918,0,6.5908585-2.4053345,9.900444-2.4053345c3.3027039,0,6.8060455,2.6838684,8.2706299,4.9373169
				L111.6549759,278.6712952z"/>
			<path fill="#888888" d="M94.6276932,272.7153625c0,0-1.5805511-0.9426575-2.4189987-2.6760559
				c-0.8223801-1.743103-2.9930725-4.500061-5.1641617-6.1963806c0,0,2.4428253,7.7360229,4.9776917,8.0817566
				c0,0,0.3918991,0.2405396-0.317009,0.1226501c-0.713295-0.1226501-3.9492874-1.3088074-5.093071-1.5074463
				c-1.14328-0.1937561-3.9425049-0.8267822-4.6962814-1.5756836c-0.6281357-0.631012-1.0653076-0.5433655-1.0653076-0.5433655
				s3.1162338,5.1972961,8.7239532,5.1972961C89.5745087,273.6181335,92.3289566,273.3843689,94.6276932,272.7153625z"/>
			<path fill="#888888" d="M87.9920654,270.0393066c0,0-0.5857544-0.9026794-0.7090073-2.4550171
				c-0.1153717-1.534668-1.0653076-5.0784912-3.743866-8.9474182c0,0-0.3972855,6.1156006,2.6337891,9.8647461
				c0,0,0.2079163,0.5453796-0.1889648,0.1460876c-0.3919983-0.3943787-2.3245621-2.7091675-6.4773788-5.5205688
				c0,0-2.1638107-1.774292-2.2772903-2.3595581C77.2293472,260.7675781,78.9252777,269.4462585,87.9920654,270.0393066z"/>
			<path fill="#888888" d="M82.7475204,264.2324219c0,0-0.2361374-0.9796448-0.2361374-1.8093872
				c0-0.8335571,0.3544006-3.6712952,0.3544006-4.9372253c0-1.2660217-0.1182632-3.6235962-1.1032944-5.2225952
				c0,0,0,1.4081421-0.3140106,2.043045c-0.3190079,0.6212616-0.6734085,3.144455-0.6734085,3.4560699
				c0,0.3145142,0.0754852,2.4501038,0.6329193,3.5905151c0,0-0.3918991-0.2317505-0.8384399-1.0556335
				c-0.4323807-0.8413391-1.4952927-2.3722229-3.1064606-3.987793c-1.6087723-1.6155396-1.9724503-3.1113281-1.9724503-3.1113281
				s-0.3896027,2.8347168,1.698822,5.818512c2.087822,3.0169067,2.9477081,2.4901123,4.0982666,3.7180481
				C81.2877274,262.7346497,82.5916595,264.3200684,82.7475204,264.2324219z"/>
			<path fill="#888888" d="M79.4735336,257.4147034c0,0,0.0803757-1.7382965,0.3919983-2.2884521
				c0.3145142-0.5648041,2.2109756-3.9781036,1.8141937-8.3553772c0,0-0.3140182-0.2785187-0.9046555,1.4197998
				c-0.5950241,1.6983185-1.4125214,2.2037048-1.7008133,3.905014c-0.2765198,1.6837616-0.2765198,2.3975525-0.2765198,2.3975525
				s-0.1889725,0.2356415-0.1889725,0.0418701c0-0.2055206-0.2079163-2.4822998-1.1456757-4.5682373
				c-0.9421463-2.0878296-2.2134705-4.0637665-2.0951996-5.4504547c0,0-0.5550385,0.0447693-0.4747696,2.2923431
				C74.9734955,249.0622253,75.5660248,252.9672241,79.4735336,257.4147034z"/>
			<path fill="#888888" d="M78.4437332,250.5103455c0,0,0.672905-1.5659943,1.1500626-2.0908203
				c0.4771576-0.5005951,3.7374802-5.2800446,4.0233765-7.4536285c0,0-0.2858963-0.1460876-0.5979156,0.3972931
				c-0.3141174,0.5619202-1.8897858,2.1287994-2.1687012,2.3693237c-0.2810059,0.2405243-1.9252777,2.0148315-2.0976944,3.9030151
				c0,0-0.1440964,0.2006378,0.1724167-2.9584656c0.3048401-3.1512299-1.0249176-5.1942902,0.0803757-7.4127502
				c0,0-1.5425644,0.2386322-2.3762207,6.708725c0,0,0.0399933,2.2874603,1.2236633,5.0891876
				C77.853096,249.0622253,78.2523727,250.5103455,78.4437332,250.5103455z"/>
			<path fill="#888888" d="M79.6317902,243.4208984c0,0,1.2187653-1.2640533,2.20858-1.854187
				c0.9875259-0.6008148,4.0559921-3.6313782,4.6184082-6.0007172c0,0-0.2030334-0.2619629-1.1880569,1.02742
				c-0.7488937,0.9922943-1.5425568,0.5083618-3.7799683,3.3548584c0,0-0.3164062,0.634903-0.4746628,0.583252
				c-0.165535-0.0263214,0.0754929-0.6612396,0.0754929-0.6612396s0.4396591-1.7694244,0.4702759-2.4121094
				c0.0374908-0.6330261,0.9495239-3.9751129,1.266037-4.412384c0,0-3.0447311,1.7314301-3.4653473,6.6209717
				C79.3625488,239.6667633,79.4735336,243.2173615,79.6317902,243.4208984z"/>
			<path fill="#888888" d="M82.2396469,238.2070618c0,0-0.2054214-4.2633972,5.3955231-6.4302063
				c0,0-1.9301682,3.9897766-3.3874664,4.935318C82.7903976,237.6635895,82.2396469,238.2070618,82.2396469,238.2070618z"/>
		</g>
	</g>
</g>
</svg>
